<svg xmlns="http://www.w3.org/2000/svg" xmlns:xlink="http://www.w3.org/1999/xlink" width="500" zoomAndPan="magnify" viewBox="0 0 375 374.999991" height="500" preserveAspectRatio="xMidYMid meet" version="1.0"><defs><clipPath id="c3a10811b8"><path d="M 1 156.5625 L 66 156.5625 L 66 218.8125 L 1 218.8125 Z M 1 156.5625 " clip-rule="nonzero"/></clipPath><clipPath id="71bda02de6"><path d="M 78 156.5625 L 143 156.5625 L 143 218.8125 L 78 218.8125 Z M 78 156.5625 " clip-rule="nonzero"/></clipPath><clipPath id="eaa80d16af"><path d="M 155 156.5625 L 220 156.5625 L 220 218.8125 L 155 218.8125 Z M 155 156.5625 " clip-rule="nonzero"/></clipPath><clipPath id="3539177155"><path d="M 232 156.5625 L 297 156.5625 L 297 218.8125 L 232 218.8125 Z M 232 156.5625 " clip-rule="nonzero"/></clipPath><clipPath id="f6f190a8df"><path d="M 309 156.5625 L 374 156.5625 L 374 218.8125 L 309 218.8125 Z M 309 156.5625 " clip-rule="nonzero"/></clipPath></defs><g clip-path="url(#c3a10811b8)"><path fill="#000000" d="M 33.46875 156.554688 C 32.464844 156.554688 31.464844 157.078125 30.949219 158.128906 L 23.117188 174.09375 C 22.707031 174.929688 21.917969 175.507812 21.003906 175.636719 L 3.488281 178.199219 C 1.1875 178.535156 0.265625 181.382812 1.933594 183.015625 L 14.605469 195.445312 C 15.269531 196.09375 15.570312 197.03125 15.414062 197.945312 L 12.421875 215.496094 C 12.109375 217.320312 13.554688 218.804688 15.1875 218.804688 C 15.621094 218.804688 16.066406 218.699219 16.496094 218.472656 L 32.160156 210.1875 C 32.570312 209.972656 33.019531 209.863281 33.46875 209.863281 C 33.914062 209.863281 34.363281 209.972656 34.773438 210.1875 L 50.4375 218.472656 C 50.867188 218.699219 51.3125 218.804688 51.746094 218.804688 C 53.382812 218.804688 54.824219 217.320312 54.511719 215.496094 L 51.519531 197.945312 C 51.363281 197.03125 51.667969 196.09375 52.328125 195.445312 L 65 183.015625 C 66.667969 181.382812 65.746094 178.535156 63.445312 178.199219 L 45.929688 175.636719 C 45.015625 175.507812 44.226562 174.929688 43.816406 174.09375 L 35.984375 158.128906 C 35.46875 157.078125 34.46875 156.554688 33.46875 156.554688 Z M 33.46875 159.398438 L 41.292969 175.347656 C 42.109375 177.019531 43.695312 178.175781 45.527344 178.441406 L 63.019531 181 L 50.363281 193.414062 C 49.035156 194.71875 48.429688 196.589844 48.742188 198.425781 L 51.734375 215.953125 L 36.085938 207.679688 C 35.28125 207.253906 34.375 207.027344 33.46875 207.027344 C 32.558594 207.027344 31.652344 207.253906 30.851562 207.679688 L 15.203125 215.953125 L 18.191406 198.425781 C 18.503906 196.589844 17.898438 194.71875 16.570312 193.414062 L 3.914062 181 L 21.40625 178.441406 C 23.242188 178.175781 24.824219 177.019531 25.644531 175.347656 L 33.46875 159.398438 " fill-opacity="1" fill-rule="nonzero"/></g><g clip-path="url(#71bda02de6)"><path fill="#000000" d="M 110.488281 156.554688 C 109.488281 156.554688 108.484375 157.078125 107.96875 158.128906 L 100.136719 174.09375 C 99.730469 174.929688 98.9375 175.507812 98.023438 175.636719 L 80.511719 178.199219 C 78.207031 178.535156 77.289062 181.382812 78.957031 183.015625 L 91.628906 195.445312 C 92.289062 196.09375 92.589844 197.03125 92.433594 197.945312 L 89.441406 215.496094 C 89.132812 217.320312 90.574219 218.804688 92.210938 218.804688 C 92.640625 218.804688 93.085938 218.699219 93.515625 218.472656 L 109.183594 210.1875 C 109.589844 209.972656 110.039062 209.863281 110.488281 209.863281 C 110.9375 209.863281 111.386719 209.972656 111.792969 210.1875 L 127.457031 218.472656 C 127.890625 218.699219 128.335938 218.804688 128.765625 218.804688 C 130.402344 218.804688 131.84375 217.320312 131.535156 215.496094 L 128.542969 197.945312 C 128.386719 197.03125 128.6875 196.09375 129.347656 195.445312 L 142.023438 183.015625 C 143.6875 181.382812 142.769531 178.535156 140.464844 178.199219 L 122.953125 175.636719 C 122.039062 175.507812 121.246094 174.929688 120.835938 174.09375 L 113.007812 158.128906 C 112.492188 157.078125 111.488281 156.554688 110.488281 156.554688 Z M 110.488281 159.398438 L 118.3125 175.347656 C 119.132812 177.019531 120.714844 178.175781 122.546875 178.441406 L 140.042969 181 L 127.382812 193.414062 C 126.058594 194.71875 125.453125 196.589844 125.765625 198.425781 L 128.753906 215.953125 L 113.105469 207.679688 C 112.300781 207.253906 111.394531 207.027344 110.488281 207.027344 C 109.578125 207.027344 108.675781 207.253906 107.871094 207.679688 L 92.222656 215.953125 L 95.210938 198.425781 C 95.523438 196.589844 94.917969 194.71875 93.59375 193.414062 L 80.933594 181 L 98.429688 178.441406 C 100.261719 178.175781 101.84375 177.019531 102.664062 175.347656 L 110.488281 159.398438 " fill-opacity="1" fill-rule="nonzero"/></g><g clip-path="url(#eaa80d16af)"><path fill="#000000" d="M 187.507812 156.554688 C 186.507812 156.554688 185.507812 157.078125 184.992188 158.128906 L 177.160156 174.09375 C 176.75 174.929688 175.960938 175.507812 175.046875 175.636719 L 157.53125 178.199219 C 155.230469 178.535156 154.308594 181.382812 155.976562 183.015625 L 168.648438 195.445312 C 169.308594 196.09375 169.613281 197.03125 169.457031 197.945312 L 166.464844 215.496094 C 166.152344 217.320312 167.59375 218.804688 169.230469 218.804688 C 169.664062 218.804688 170.109375 218.699219 170.539062 218.472656 L 186.203125 210.1875 C 186.613281 209.972656 187.0625 209.863281 187.507812 209.863281 C 187.957031 209.863281 188.40625 209.972656 188.816406 210.1875 L 204.480469 218.472656 C 204.910156 218.699219 205.355469 218.804688 205.785156 218.804688 C 207.421875 218.804688 208.867188 217.320312 208.554688 215.496094 L 205.5625 197.945312 C 205.40625 197.03125 205.707031 196.09375 206.371094 195.445312 L 219.042969 183.015625 C 220.710938 181.382812 219.789062 178.535156 217.488281 178.199219 L 199.972656 175.636719 C 199.058594 175.507812 198.269531 174.929688 197.859375 174.09375 L 190.027344 158.128906 C 189.511719 157.078125 188.511719 156.554688 187.507812 156.554688 Z M 187.507812 159.398438 L 195.332031 175.347656 C 196.152344 177.019531 197.738281 178.175781 199.570312 178.441406 L 217.0625 181 L 204.402344 193.414062 C 203.078125 194.71875 202.472656 196.589844 202.785156 198.425781 L 205.777344 215.953125 L 190.125 207.679688 C 189.324219 207.253906 188.417969 207.027344 187.507812 207.027344 C 186.601562 207.027344 185.695312 207.253906 184.890625 207.679688 L 169.242188 215.953125 L 172.234375 198.425781 C 172.546875 196.589844 171.941406 194.71875 170.613281 193.414062 L 157.953125 181 L 175.449219 178.441406 C 177.28125 178.175781 178.867188 177.019531 179.683594 175.347656 L 187.507812 159.398438 " fill-opacity="1" fill-rule="nonzero"/></g><g clip-path="url(#3539177155)"><path fill="#000000" d="M 264.53125 156.554688 C 263.527344 156.554688 262.527344 157.078125 262.011719 158.128906 L 254.179688 174.09375 C 253.769531 174.929688 252.980469 175.507812 252.066406 175.636719 L 234.554688 178.199219 C 232.25 178.535156 231.332031 181.382812 232.996094 183.015625 L 245.667969 195.445312 C 246.332031 196.09375 246.632812 197.03125 246.476562 197.945312 L 243.484375 215.496094 C 243.175781 217.320312 244.617188 218.804688 246.253906 218.804688 C 246.683594 218.804688 247.128906 218.699219 247.558594 218.472656 L 263.222656 210.1875 C 263.632812 209.972656 264.082031 209.863281 264.53125 209.863281 C 264.980469 209.863281 265.429688 209.972656 265.835938 210.1875 L 281.5 218.472656 C 281.929688 218.699219 282.375 218.804688 282.808594 218.804688 C 284.445312 218.804688 285.886719 217.320312 285.574219 215.496094 L 282.582031 197.945312 C 282.429688 197.03125 282.730469 196.09375 283.390625 195.445312 L 296.0625 183.015625 C 297.730469 181.382812 296.8125 178.535156 294.507812 178.199219 L 276.992188 175.636719 C 276.082031 175.507812 275.289062 174.929688 274.878906 174.09375 L 267.046875 158.128906 C 266.535156 157.078125 265.53125 156.554688 264.53125 156.554688 Z M 264.53125 159.398438 L 272.355469 175.347656 C 273.175781 177.019531 274.757812 178.175781 276.589844 178.441406 L 294.085938 181 L 281.425781 193.414062 C 280.101562 194.71875 279.492188 196.589844 279.808594 198.425781 L 282.796875 215.953125 L 267.148438 207.679688 C 266.34375 207.253906 265.4375 207.027344 264.53125 207.027344 C 263.621094 207.027344 262.71875 207.253906 261.914062 207.679688 L 246.265625 215.953125 L 249.253906 198.425781 C 249.566406 196.589844 248.960938 194.71875 247.636719 193.414062 L 234.976562 181 L 252.472656 178.441406 C 254.304688 178.175781 255.886719 177.019531 256.707031 175.347656 L 264.53125 159.398438 " fill-opacity="1" fill-rule="nonzero"/></g><g clip-path="url(#f6f190a8df)"><path fill="#000000" d="M 341.550781 156.554688 C 340.550781 156.554688 339.546875 157.078125 339.035156 158.128906 L 331.203125 174.09375 C 330.792969 174.929688 330 175.507812 329.085938 175.636719 L 311.574219 178.199219 C 309.269531 178.535156 308.351562 181.382812 310.019531 183.015625 L 322.691406 195.445312 C 323.351562 196.09375 323.65625 197.03125 323.5 197.945312 L 320.503906 215.496094 C 320.195312 217.320312 321.636719 218.804688 323.273438 218.804688 C 323.703125 218.804688 324.152344 218.699219 324.582031 218.472656 L 340.246094 210.1875 C 340.652344 209.972656 341.101562 209.863281 341.550781 209.863281 C 342 209.863281 342.449219 209.972656 342.859375 210.1875 L 358.523438 218.472656 C 358.953125 218.699219 359.398438 218.804688 359.828125 218.804688 C 361.464844 218.804688 362.90625 217.320312 362.597656 215.496094 L 359.605469 197.945312 C 359.449219 197.03125 359.75 196.09375 360.414062 195.445312 L 373.082031 183.015625 C 374.75 181.382812 373.832031 178.535156 371.527344 178.199219 L 354.015625 175.636719 C 353.101562 175.507812 352.308594 174.929688 351.902344 174.09375 L 344.070312 158.128906 C 343.554688 157.078125 342.554688 156.554688 341.550781 156.554688 Z M 341.550781 159.398438 L 349.375 175.347656 C 350.195312 177.019531 351.777344 178.175781 353.609375 178.441406 L 371.105469 181 L 358.445312 193.414062 C 357.121094 194.71875 356.515625 196.589844 356.828125 198.425781 L 359.816406 215.953125 L 344.167969 207.679688 C 343.367188 207.253906 342.460938 207.027344 341.550781 207.027344 C 340.644531 207.027344 339.738281 207.253906 338.933594 207.679688 L 323.285156 215.953125 L 326.273438 198.425781 C 326.585938 196.589844 325.984375 194.71875 324.65625 193.414062 L 311.996094 181 L 329.492188 178.441406 C 331.324219 178.175781 332.90625 177.019531 333.726562 175.347656 L 341.550781 159.398438 " fill-opacity="1" fill-rule="nonzero"/></g></svg>