<svg xmlns="http://www.w3.org/2000/svg" xmlns:xlink="http://www.w3.org/1999/xlink" width="500" zoomAndPan="magnify" viewBox="0 0 375 374.999991" height="500" preserveAspectRatio="xMidYMid meet" version="1.0"><path fill="#ffbe0d" d="M 112.257812 156.863281 C 112.554688 156.863281 113.289062 156.949219 113.6875 157.753906 L 120.703125 172.023438 C 121.945312 174.539062 124.339844 176.28125 127.117188 176.695312 L 142.796875 178.972656 C 142.976562 179 143.089844 179.039062 143.148438 179.058594 C 143.167969 179.0625 143.179688 179.074219 143.199219 179.078125 C 143.683594 179.261719 144.042969 179.703125 144.15625 180.246094 C 144.234375 180.628906 144.21875 181.191406 143.695312 181.699219 L 132.351562 192.800781 C 130.328125 194.765625 129.414062 197.597656 129.890625 200.371094 L 132.570312 216.042969 C 132.65625 216.53125 132.542969 216.960938 132.242188 217.320312 C 131.925781 217.695312 131.464844 217.917969 131.007812 217.917969 C 130.757812 217.917969 130.511719 217.855469 130.265625 217.722656 L 116.226562 210.320312 C 115.007812 209.679688 113.636719 209.34375 112.261719 209.34375 C 110.886719 209.34375 109.515625 209.679688 108.292969 210.324219 L 94.25 217.726562 C 94.007812 217.859375 93.757812 217.921875 93.511719 217.921875 C 92.789062 217.921875 91.980469 217.332031 91.929688 216.460938 C 91.929688 216.425781 91.921875 216.394531 91.917969 216.355469 C 91.914062 216.324219 91.914062 216.226562 91.941406 216.042969 L 94.628906 200.359375 C 95.09375 197.59375 94.179688 194.765625 92.175781 192.804688 L 80.8125 181.699219 C 80.195312 181.097656 80.296875 180.421875 80.40625 180.066406 C 80.5 179.785156 80.808594 179.105469 81.699219 178.972656 L 97.394531 176.691406 C 100.164062 176.277344 102.558594 174.53125 103.800781 172.019531 L 110.828125 157.75 C 111.214844 156.976562 111.890625 156.863281 112.257812 156.863281 M 112.257812 153.386719 C 110.453125 153.386719 108.652344 154.328125 107.722656 156.210938 L 100.695312 170.476562 C 99.960938 171.96875 98.539062 173.003906 96.894531 173.25 L 81.203125 175.53125 C 77.050781 176.136719 75.386719 181.25 78.394531 184.183594 L 89.753906 195.285156 C 90.941406 196.449219 91.484375 198.125 91.210938 199.777344 L 88.527344 215.449219 C 88.460938 215.863281 88.433594 216.265625 88.46875 216.65625 C 88.625 219.355469 90.933594 221.386719 93.511719 221.386719 C 94.292969 221.386719 95.09375 221.199219 95.871094 220.789062 L 109.90625 213.386719 C 110.640625 213 111.453125 212.804688 112.261719 212.804688 C 113.074219 212.804688 113.878906 213 114.617188 213.386719 L 128.652344 220.789062 C 129.429688 221.195312 130.230469 221.382812 131.007812 221.382812 C 133.953125 221.382812 136.550781 218.722656 135.992188 215.441406 L 133.3125 199.773438 C 133.027344 198.121094 133.574219 196.445312 134.769531 195.28125 L 146.117188 184.179688 C 148.835938 181.519531 147.746094 177.09375 144.433594 175.820312 C 144.085938 175.679688 143.71875 175.585938 143.316406 175.527344 L 127.613281 173.242188 C 125.96875 173 124.546875 171.96875 123.8125 170.472656 L 116.792969 156.207031 C 115.863281 154.332031 114.0625 153.386719 112.257812 153.386719 Z M 112.257812 153.386719 " fill-opacity="1" fill-rule="nonzero"/><path fill="#ffbe0d" d="M 187.648438 156.863281 C 187.945312 156.863281 188.683594 156.949219 189.078125 157.753906 L 196.097656 172.023438 C 197.335938 174.539062 199.730469 176.28125 202.511719 176.695312 L 218.1875 178.972656 C 218.371094 179 218.480469 179.039062 218.539062 179.058594 C 218.558594 179.0625 218.574219 179.074219 218.589844 179.078125 C 219.078125 179.261719 219.433594 179.703125 219.546875 180.246094 C 219.628906 180.628906 219.609375 181.191406 219.085938 181.699219 L 207.742188 192.800781 C 205.722656 194.765625 204.804688 197.597656 205.285156 200.371094 L 207.964844 216.042969 C 208.046875 216.53125 207.9375 216.960938 207.632812 217.320312 C 207.320312 217.695312 206.859375 217.917969 206.398438 217.917969 C 206.152344 217.917969 205.902344 217.855469 205.660156 217.722656 L 191.617188 210.320312 C 190.398438 209.679688 189.027344 209.34375 187.652344 209.34375 C 186.277344 209.34375 184.90625 209.679688 183.683594 210.324219 L 169.644531 217.726562 C 169.398438 217.859375 169.152344 217.921875 168.902344 217.921875 C 168.179688 217.921875 167.375 217.332031 167.320312 216.460938 C 167.320312 216.425781 167.316406 216.394531 167.3125 216.355469 C 167.304688 216.324219 167.304688 216.226562 167.332031 216.042969 L 170.023438 200.359375 C 170.488281 197.59375 169.570312 194.765625 167.566406 192.804688 L 156.207031 181.699219 C 155.589844 181.097656 155.6875 180.421875 155.800781 180.066406 C 155.890625 179.785156 156.203125 179.105469 157.089844 178.972656 L 172.785156 176.691406 C 175.554688 176.277344 177.953125 174.53125 179.191406 172.019531 L 186.21875 157.75 C 186.601562 156.976562 187.277344 156.863281 187.648438 156.863281 M 187.648438 153.386719 C 185.84375 153.386719 184.046875 154.328125 183.117188 156.210938 L 176.089844 170.476562 C 175.351562 171.96875 173.933594 173.003906 172.285156 173.25 L 156.59375 175.53125 C 152.445312 176.136719 150.78125 181.25 153.789062 184.183594 L 165.144531 195.285156 C 166.332031 196.449219 166.878906 198.125 166.601562 199.777344 L 163.917969 215.449219 C 163.851562 215.863281 163.824219 216.265625 163.859375 216.65625 C 164.019531 219.355469 166.328125 221.386719 168.902344 221.386719 C 169.683594 221.386719 170.488281 221.199219 171.261719 220.789062 L 185.300781 213.386719 C 186.035156 213 186.847656 212.804688 187.652344 212.804688 C 188.464844 212.804688 189.273438 213 190.007812 213.386719 L 204.042969 220.789062 C 204.820312 221.195312 205.621094 221.382812 206.398438 221.382812 C 209.34375 221.382812 211.941406 218.722656 211.382812 215.441406 L 208.703125 199.773438 C 208.417969 198.121094 208.964844 196.445312 210.160156 195.28125 L 221.507812 184.179688 C 224.230469 181.519531 223.136719 177.09375 219.828125 175.820312 C 219.480469 175.679688 219.109375 175.585938 218.707031 175.527344 L 203.007812 173.242188 C 201.359375 173 199.941406 171.96875 199.203125 170.472656 L 192.1875 156.207031 C 191.257812 154.332031 189.453125 153.386719 187.648438 153.386719 Z M 187.648438 153.386719 " fill-opacity="1" fill-rule="nonzero"/><path fill="#ffbe0d" d="M 263.035156 156.863281 C 263.335938 156.863281 264.070312 156.949219 264.464844 157.753906 L 271.484375 172.023438 C 272.726562 174.539062 275.121094 176.28125 277.898438 176.695312 L 293.578125 178.972656 C 293.757812 179 293.871094 179.039062 293.929688 179.058594 C 293.945312 179.0625 293.960938 179.074219 293.976562 179.078125 C 294.464844 179.261719 294.820312 179.703125 294.933594 180.246094 C 295.015625 180.628906 294.996094 181.191406 294.476562 181.699219 L 283.128906 192.800781 C 281.109375 194.765625 280.195312 197.597656 280.671875 200.371094 L 283.351562 216.042969 C 283.4375 216.53125 283.324219 216.960938 283.023438 217.320312 C 282.707031 217.695312 282.246094 217.917969 281.785156 217.917969 C 281.539062 217.917969 281.289062 217.855469 281.042969 217.722656 L 267 210.320312 C 265.785156 209.679688 264.414062 209.34375 263.035156 209.34375 C 261.660156 209.34375 260.289062 209.679688 259.066406 210.324219 L 245.027344 217.726562 C 244.78125 217.859375 244.535156 217.921875 244.285156 217.921875 C 243.566406 217.921875 242.757812 217.332031 242.703125 216.460938 C 242.703125 216.425781 242.699219 216.394531 242.695312 216.355469 C 242.691406 216.324219 242.691406 216.226562 242.71875 216.042969 L 245.40625 200.359375 C 245.871094 197.59375 244.953125 194.765625 242.953125 192.804688 L 231.589844 181.699219 C 230.972656 181.097656 231.070312 180.421875 231.183594 180.066406 C 231.273438 179.785156 231.585938 179.105469 232.472656 178.972656 L 248.171875 176.691406 C 250.941406 176.277344 253.335938 174.53125 254.574219 172.019531 L 261.601562 157.75 C 261.996094 156.976562 262.667969 156.863281 263.035156 156.863281 M 263.035156 153.386719 C 261.234375 153.386719 259.433594 154.328125 258.503906 156.210938 L 251.476562 170.476562 C 250.742188 171.96875 249.320312 173.003906 247.675781 173.25 L 231.980469 175.53125 C 227.832031 176.136719 226.167969 181.25 229.175781 184.183594 L 240.535156 195.285156 C 241.71875 196.449219 242.265625 198.125 241.992188 199.777344 L 239.308594 215.449219 C 239.238281 215.863281 239.210938 216.265625 239.25 216.65625 C 239.40625 219.355469 241.714844 221.386719 244.292969 221.386719 C 245.070312 221.386719 245.875 221.199219 246.648438 220.789062 L 260.6875 213.386719 C 261.421875 213 262.234375 212.804688 263.042969 212.804688 C 263.851562 212.804688 264.660156 213 265.394531 213.386719 L 279.433594 220.789062 C 280.207031 221.195312 281.011719 221.382812 281.785156 221.382812 C 284.730469 221.382812 287.328125 218.722656 286.769531 215.441406 L 284.089844 199.773438 C 283.808594 198.121094 284.351562 196.445312 285.546875 195.28125 L 296.898438 184.179688 C 299.617188 181.519531 298.523438 177.09375 295.214844 175.820312 C 294.867188 175.679688 294.496094 175.585938 294.097656 175.527344 L 278.394531 173.242188 C 276.75 173 275.328125 171.96875 274.59375 170.472656 L 267.574219 156.207031 C 266.644531 154.332031 264.839844 153.386719 263.035156 153.386719 Z M 263.035156 153.386719 " fill-opacity="1" fill-rule="nonzero"/><path fill="#ffbe0d" d="M 338.429688 156.863281 C 338.726562 156.863281 339.460938 156.949219 339.859375 157.753906 L 346.878906 172.023438 C 348.117188 174.539062 350.511719 176.28125 353.292969 176.695312 L 368.96875 178.972656 C 369.148438 179 369.261719 179.039062 369.320312 179.058594 C 369.339844 179.0625 369.351562 179.074219 369.371094 179.078125 C 369.859375 179.261719 370.214844 179.703125 370.328125 180.246094 C 370.410156 180.628906 370.390625 181.191406 369.867188 181.699219 L 358.523438 192.800781 C 356.503906 194.765625 355.585938 197.597656 356.066406 200.371094 L 358.746094 216.042969 C 358.828125 216.53125 358.71875 216.960938 358.414062 217.320312 C 358.097656 217.695312 357.640625 217.917969 357.179688 217.917969 C 356.929688 217.917969 356.683594 217.855469 356.433594 217.722656 L 342.390625 210.320312 C 341.171875 209.679688 339.800781 209.34375 338.425781 209.34375 C 337.050781 209.34375 335.675781 209.679688 334.457031 210.324219 L 320.414062 217.726562 C 320.171875 217.859375 319.921875 217.921875 319.675781 217.921875 C 318.953125 217.921875 318.144531 217.332031 318.089844 216.460938 C 318.089844 216.425781 318.085938 216.394531 318.082031 216.355469 C 318.078125 216.324219 318.078125 216.226562 318.105469 216.042969 L 320.792969 200.359375 C 321.257812 197.59375 320.34375 194.765625 318.339844 192.804688 L 306.980469 181.699219 C 306.363281 181.097656 306.464844 180.421875 306.578125 180.066406 C 306.667969 179.785156 306.976562 179.105469 307.867188 178.972656 L 323.5625 176.691406 C 326.335938 176.277344 328.726562 174.53125 329.96875 172.019531 L 336.996094 157.75 C 337.382812 156.976562 338.058594 156.863281 338.429688 156.863281 M 338.429688 153.386719 C 336.625 153.386719 334.824219 154.328125 333.894531 156.210938 L 326.867188 170.476562 C 326.132812 171.96875 324.710938 173.003906 323.066406 173.25 L 307.375 175.53125 C 303.226562 176.136719 301.5625 181.25 304.570312 184.183594 L 315.925781 195.285156 C 317.113281 196.449219 317.660156 198.125 317.382812 199.777344 L 314.699219 215.449219 C 314.632812 215.863281 314.605469 216.265625 314.640625 216.65625 C 314.796875 219.355469 317.109375 221.386719 319.683594 221.386719 C 320.464844 221.386719 321.265625 221.199219 322.042969 220.789062 L 336.078125 213.386719 C 336.8125 213 337.625 212.804688 338.433594 212.804688 C 339.246094 212.804688 340.054688 213 340.789062 213.386719 L 354.824219 220.789062 C 355.601562 221.195312 356.402344 221.382812 357.179688 221.382812 C 360.125 221.382812 362.722656 218.722656 362.164062 215.441406 L 359.484375 199.773438 C 359.199219 198.121094 359.746094 196.445312 360.941406 195.28125 L 372.289062 184.179688 C 375.007812 181.519531 373.917969 177.09375 370.605469 175.820312 C 370.257812 175.679688 369.890625 175.585938 369.488281 175.527344 L 353.789062 173.242188 C 352.140625 173 350.71875 171.96875 349.984375 170.472656 L 342.964844 156.207031 C 342.03125 154.332031 340.230469 153.386719 338.429688 153.386719 Z M 338.429688 153.386719 " fill-opacity="1" fill-rule="nonzero"/><path fill="#ffbe0d" d="M 59.375 195.289062 C 58.179688 196.453125 57.632812 198.132812 57.917969 199.78125 L 60.597656 215.453125 C 61.3125 219.59375 56.96875 222.75 53.257812 220.792969 L 39.222656 213.390625 C 37.75 212.617188 35.984375 212.617188 34.507812 213.390625 L 20.472656 220.792969 C 17.136719 222.558594 13.285156 220.179688 13.074219 216.660156 C 13.039062 216.269531 13.066406 215.867188 13.132812 215.453125 L 15.816406 199.78125 C 16.09375 198.132812 15.546875 196.453125 14.363281 195.289062 L 3.003906 184.1875 C -0.00390625 181.253906 1.660156 176.144531 5.808594 175.535156 L 21.5 173.253906 C 23.148438 173.007812 24.570312 171.976562 25.304688 170.480469 L 32.332031 156.214844 C 34.183594 152.445312 39.539062 152.445312 41.402344 156.214844 L 48.417969 170.480469 C 49.15625 171.972656 50.574219 173.007812 52.222656 173.253906 L 67.921875 175.535156 C 68.320312 175.59375 68.695312 175.695312 69.042969 175.832031 C 72.351562 177.097656 73.445312 181.527344 70.722656 184.1875 Z M 59.375 195.289062 " fill-opacity="1" fill-rule="nonzero"/><path fill="#ffce00" d="M 69.046875 175.832031 C 56.621094 195.953125 36.644531 210.894531 13.074219 216.660156 C 13.039062 216.269531 13.066406 215.867188 13.132812 215.453125 L 15.816406 199.78125 C 16.09375 198.132812 15.546875 196.453125 14.363281 195.289062 L 3.003906 184.1875 C -0.00390625 181.253906 1.660156 176.144531 5.808594 175.535156 L 21.5 173.253906 C 23.148438 173.007812 24.570312 171.976562 25.304688 170.480469 L 32.332031 156.214844 C 34.183594 152.445312 39.539062 152.445312 41.402344 156.214844 L 48.417969 170.480469 C 49.15625 171.972656 50.574219 173.007812 52.222656 173.253906 L 67.921875 175.535156 C 68.328125 175.59375 68.699219 175.691406 69.046875 175.832031 Z M 69.046875 175.832031 " fill-opacity="1" fill-rule="nonzero"/><path fill="#ffce00" d="M 34.84375 182 C 34.84375 182.421875 34.820312 182.835938 34.769531 183.25 C 34.722656 183.660156 34.652344 184.0625 34.558594 184.449219 C 34.464844 184.839844 34.347656 185.207031 34.210938 185.558594 C 34.074219 185.90625 33.917969 186.230469 33.742188 186.527344 C 33.570312 186.824219 33.378906 187.089844 33.171875 187.324219 C 32.96875 187.558594 32.75 187.753906 32.523438 187.914062 C 32.296875 188.078125 32.0625 188.199219 31.820312 188.28125 C 31.578125 188.363281 31.332031 188.402344 31.085938 188.402344 C 30.839844 188.402344 30.59375 188.363281 30.351562 188.28125 C 30.109375 188.199219 29.875 188.078125 29.648438 187.914062 C 29.421875 187.753906 29.203125 187.558594 29 187.324219 C 28.792969 187.089844 28.605469 186.824219 28.429688 186.527344 C 28.253906 186.230469 28.097656 185.90625 27.960938 185.558594 C 27.824219 185.207031 27.710938 184.839844 27.613281 184.449219 C 27.519531 184.0625 27.449219 183.660156 27.402344 183.25 C 27.351562 182.835938 27.328125 182.421875 27.328125 182 C 27.328125 181.578125 27.351562 181.164062 27.402344 180.75 C 27.449219 180.335938 27.519531 179.9375 27.613281 179.546875 C 27.710938 179.160156 27.824219 178.792969 27.960938 178.441406 C 28.097656 178.09375 28.253906 177.769531 28.429688 177.472656 C 28.605469 177.175781 28.792969 176.910156 29 176.675781 C 29.203125 176.441406 29.421875 176.242188 29.648438 176.082031 C 29.875 175.921875 30.109375 175.800781 30.351562 175.71875 C 30.59375 175.636719 30.839844 175.59375 31.085938 175.59375 C 31.332031 175.59375 31.578125 175.636719 31.820312 175.71875 C 32.0625 175.800781 32.296875 175.921875 32.523438 176.082031 C 32.75 176.242188 32.96875 176.441406 33.171875 176.675781 C 33.378906 176.910156 33.570312 177.175781 33.742188 177.472656 C 33.917969 177.769531 34.074219 178.09375 34.210938 178.441406 C 34.347656 178.792969 34.464844 179.160156 34.558594 179.546875 C 34.652344 179.9375 34.722656 180.335938 34.769531 180.75 C 34.820312 181.164062 34.84375 181.578125 34.84375 182 Z M 34.84375 182 " fill-opacity="1" fill-rule="nonzero"/><path fill="#ffce00" d="M 46.414062 182 C 46.414062 182.421875 46.386719 182.835938 46.339844 183.25 C 46.292969 183.660156 46.222656 184.0625 46.125 184.449219 C 46.03125 184.839844 45.917969 185.207031 45.78125 185.558594 C 45.640625 185.90625 45.488281 186.230469 45.3125 186.527344 C 45.136719 186.824219 44.949219 187.089844 44.742188 187.324219 C 44.539062 187.558594 44.320312 187.753906 44.09375 187.914062 C 43.867188 188.078125 43.628906 188.199219 43.386719 188.28125 C 43.148438 188.363281 42.902344 188.402344 42.65625 188.402344 C 42.410156 188.402344 42.164062 188.363281 41.921875 188.28125 C 41.679688 188.199219 41.445312 188.078125 41.21875 187.914062 C 40.988281 187.753906 40.773438 187.558594 40.566406 187.324219 C 40.363281 187.089844 40.171875 186.824219 40 186.527344 C 39.824219 186.230469 39.667969 185.90625 39.53125 185.558594 C 39.394531 185.207031 39.277344 184.839844 39.183594 184.449219 C 39.089844 184.0625 39.019531 183.660156 38.96875 183.25 C 38.921875 182.835938 38.898438 182.421875 38.898438 182 C 38.898438 181.578125 38.921875 181.164062 38.96875 180.75 C 39.019531 180.335938 39.089844 179.9375 39.183594 179.546875 C 39.277344 179.160156 39.394531 178.792969 39.53125 178.441406 C 39.667969 178.09375 39.824219 177.769531 40 177.472656 C 40.171875 177.175781 40.363281 176.910156 40.566406 176.675781 C 40.773438 176.441406 40.988281 176.242188 41.21875 176.082031 C 41.445312 175.921875 41.679688 175.800781 41.921875 175.71875 C 42.164062 175.636719 42.410156 175.59375 42.65625 175.59375 C 42.902344 175.59375 43.148438 175.636719 43.386719 175.71875 C 43.628906 175.800781 43.867188 175.921875 44.09375 176.082031 C 44.320312 176.242188 44.539062 176.441406 44.742188 176.675781 C 44.949219 176.910156 45.136719 177.175781 45.3125 177.472656 C 45.488281 177.769531 45.640625 178.09375 45.78125 178.441406 C 45.917969 178.792969 46.03125 179.160156 46.125 179.546875 C 46.222656 179.9375 46.292969 180.335938 46.339844 180.75 C 46.386719 181.164062 46.414062 181.578125 46.414062 182 Z M 46.414062 182 " fill-opacity="1" fill-rule="nonzero"/><path fill="#ffce00" d="M 31.085938 178.449219 C 30.839844 178.449219 30.609375 178.523438 30.386719 178.660156 C 30.671875 178.929688 30.859375 179.445312 30.859375 180.03125 C 30.859375 180.90625 30.445312 181.613281 29.929688 181.613281 C 29.585938 181.613281 29.28125 181.289062 29.128906 180.808594 C 29.046875 181.179688 29.007812 181.578125 29.007812 182 C 29.007812 183.957031 29.9375 185.550781 31.085938 185.550781 C 32.234375 185.550781 33.164062 183.957031 33.164062 182 C 33.164062 180.042969 32.234375 178.449219 31.085938 178.449219 Z M 32.191406 184.003906 C 31.953125 184.003906 31.753906 183.667969 31.753906 183.257812 C 31.753906 182.851562 31.953125 182.515625 32.191406 182.515625 C 32.429688 182.515625 32.628906 182.851562 32.628906 183.257812 C 32.628906 183.667969 32.429688 184.003906 32.191406 184.003906 Z M 32.191406 184.003906 " fill-opacity="1" fill-rule="nonzero"/><path fill="#ffce00" d="M 42.652344 178.453125 C 42.40625 178.453125 42.171875 178.527344 41.957031 178.660156 C 42.242188 178.933594 42.429688 179.445312 42.429688 180.03125 C 42.429688 180.910156 42.011719 181.613281 41.5 181.613281 C 41.152344 181.613281 40.847656 181.289062 40.699219 180.808594 C 40.617188 181.183594 40.574219 181.582031 40.574219 182 C 40.574219 183.960938 41.503906 185.550781 42.652344 185.550781 C 43.804688 185.550781 44.734375 183.960938 44.734375 182 C 44.734375 180.042969 43.804688 178.453125 42.652344 178.453125 Z M 43.761719 184.003906 C 43.515625 184.003906 43.324219 183.667969 43.324219 183.261719 C 43.324219 182.851562 43.515625 182.515625 43.761719 182.515625 C 44 182.515625 44.195312 182.851562 44.195312 183.261719 C 44.195312 183.667969 44 184.003906 43.761719 184.003906 Z M 43.761719 184.003906 " fill-opacity="1" fill-rule="nonzero"/><path fill="#ffce00" d="M 46.136719 200.054688 C 45.660156 200.054688 45.273438 199.664062 45.273438 199.183594 C 45.273438 194.53125 41.496094 190.746094 36.855469 190.746094 C 32.214844 190.746094 28.4375 194.53125 28.4375 199.183594 C 28.4375 199.664062 28.050781 200.054688 27.574219 200.054688 C 27.09375 200.054688 26.707031 199.664062 26.707031 199.183594 C 26.707031 193.574219 31.261719 189.007812 36.855469 189.007812 C 42.453125 189.007812 47.003906 193.578125 47.003906 199.183594 C 47.003906 199.664062 46.617188 200.054688 46.136719 200.054688 Z M 46.136719 200.054688 " fill-opacity="1" fill-rule="nonzero"/></svg>