<svg xmlns="http://www.w3.org/2000/svg" xmlns:xlink="http://www.w3.org/1999/xlink" width="500" zoomAndPan="magnify" viewBox="0 0 375 374.999991" height="500" preserveAspectRatio="xMidYMid meet" version="1.0"><path fill="#ffbe0d" d="M 59.363281 195.28125 C 58.167969 196.445312 57.621094 198.121094 57.90625 199.773438 L 60.585938 215.441406 C 61.296875 219.585938 56.953125 222.742188 53.246094 220.785156 L 39.210938 213.382812 C 37.734375 212.609375 35.972656 212.609375 34.496094 213.382812 L 20.460938 220.785156 C 17.121094 222.546875 13.269531 220.167969 13.0625 216.652344 C 13.027344 216.261719 13.054688 215.859375 13.121094 215.441406 L 15.804688 199.773438 C 16.078125 198.121094 15.535156 196.445312 14.347656 195.28125 L 2.992188 184.179688 C -0.0195312 181.246094 1.644531 176.132812 5.796875 175.527344 L 21.488281 173.242188 C 23.132812 173 24.554688 171.96875 25.289062 170.472656 L 32.316406 156.207031 C 34.171875 152.4375 39.523438 152.4375 41.386719 156.207031 L 48.40625 170.472656 C 49.140625 171.964844 50.5625 173 52.207031 173.242188 L 67.910156 175.527344 C 68.304688 175.585938 68.679688 175.6875 69.027344 175.820312 C 72.339844 177.089844 73.429688 181.519531 70.710938 184.179688 Z M 59.363281 195.28125 " fill-opacity="1" fill-rule="nonzero"/><path fill="#ffbe0d" d="M 134.753906 195.28125 C 133.558594 196.445312 133.011719 198.121094 133.296875 199.773438 L 135.976562 215.441406 C 136.691406 219.585938 132.347656 222.742188 128.636719 220.785156 L 114.601562 213.382812 C 113.128906 212.609375 111.363281 212.609375 109.886719 213.382812 L 95.851562 220.785156 C 92.515625 222.546875 88.664062 220.167969 88.453125 216.652344 C 88.417969 216.261719 88.445312 215.859375 88.511719 215.441406 L 91.195312 199.773438 C 91.472656 198.121094 90.925781 196.445312 89.738281 195.28125 L 78.382812 184.179688 C 75.375 181.246094 77.039062 176.132812 81.1875 175.527344 L 96.878906 173.242188 C 98.527344 173 99.949219 171.96875 100.683594 170.472656 L 107.710938 156.207031 C 109.5625 152.4375 114.917969 152.4375 116.78125 156.207031 L 123.796875 170.472656 C 124.535156 171.964844 125.953125 173 127.601562 173.242188 L 143.300781 175.527344 C 143.699219 175.585938 144.074219 175.6875 144.421875 175.820312 C 147.730469 177.089844 148.824219 181.519531 146.101562 184.179688 Z M 134.753906 195.28125 " fill-opacity="1" fill-rule="nonzero"/><path fill="#ffbe0d" d="M 187.636719 156.855469 C 187.933594 156.855469 188.667969 156.941406 189.066406 157.746094 L 196.082031 172.015625 C 197.324219 174.527344 199.71875 176.273438 202.496094 176.683594 L 218.175781 178.964844 C 218.355469 178.992188 218.46875 179.027344 218.527344 179.050781 C 218.546875 179.054688 218.558594 179.0625 218.578125 179.070312 C 219.0625 179.253906 219.421875 179.691406 219.535156 180.234375 C 219.613281 180.621094 219.597656 181.179688 219.074219 181.691406 L 207.730469 192.789062 C 205.707031 194.757812 204.792969 197.589844 205.269531 200.359375 L 207.949219 216.035156 C 208.03125 216.523438 207.921875 216.953125 207.621094 217.3125 C 207.304688 217.6875 206.84375 217.90625 206.386719 217.90625 C 206.136719 217.90625 205.890625 217.84375 205.644531 217.714844 L 191.605469 210.308594 C 190.386719 209.671875 189.015625 209.332031 187.640625 209.332031 C 186.265625 209.332031 184.894531 209.671875 183.671875 210.316406 L 169.628906 217.71875 C 169.386719 217.847656 169.136719 217.914062 168.890625 217.914062 C 168.167969 217.914062 167.359375 217.324219 167.304688 216.453125 C 167.304688 216.414062 167.300781 216.382812 167.296875 216.347656 C 167.292969 216.316406 167.292969 216.214844 167.320312 216.035156 L 170.007812 200.351562 C 170.472656 197.582031 169.558594 194.757812 167.554688 192.792969 L 156.191406 181.691406 C 155.574219 181.089844 155.675781 180.410156 155.785156 180.058594 C 155.878906 179.773438 156.1875 179.097656 157.078125 178.964844 L 172.773438 176.679688 C 175.542969 176.269531 177.9375 174.523438 179.179688 172.007812 L 186.207031 157.742188 C 186.589844 156.972656 187.265625 156.855469 187.636719 156.855469 M 187.636719 153.382812 C 185.832031 153.382812 184.03125 154.320312 183.101562 156.207031 L 176.074219 170.472656 C 175.339844 171.964844 173.917969 173 172.273438 173.242188 L 156.582031 175.527344 C 152.429688 176.132812 150.765625 181.246094 153.773438 184.179688 L 165.132812 195.28125 C 166.320312 196.445312 166.863281 198.121094 166.589844 199.773438 L 163.90625 215.441406 C 163.839844 215.859375 163.8125 216.261719 163.847656 216.652344 C 164.003906 219.351562 166.3125 221.382812 168.890625 221.382812 C 169.671875 221.382812 170.472656 221.195312 171.25 220.785156 L 185.285156 213.382812 C 186.019531 212.996094 186.832031 212.800781 187.640625 212.800781 C 188.453125 212.800781 189.257812 212.996094 189.996094 213.382812 L 204.03125 220.785156 C 204.804688 221.191406 205.609375 221.375 206.386719 221.375 C 209.332031 221.375 211.929688 218.71875 211.371094 215.4375 L 208.691406 199.769531 C 208.40625 198.117188 208.953125 196.441406 210.148438 195.277344 L 221.496094 184.175781 C 224.214844 181.515625 223.125 177.089844 219.8125 175.816406 C 219.464844 175.675781 219.09375 175.582031 218.695312 175.523438 L 202.992188 173.238281 C 201.347656 172.996094 199.925781 171.964844 199.191406 170.46875 L 192.171875 156.203125 C 191.242188 154.320312 189.441406 153.382812 187.636719 153.382812 Z M 187.636719 153.382812 " fill-opacity="1" fill-rule="nonzero"/><path fill="#ffbe0d" d="M 263.023438 156.855469 C 263.320312 156.855469 264.054688 156.941406 264.453125 157.746094 L 271.472656 172.015625 C 272.710938 174.527344 275.105469 176.273438 277.886719 176.683594 L 293.5625 178.964844 C 293.742188 178.992188 293.855469 179.027344 293.914062 179.050781 C 293.933594 179.054688 293.945312 179.0625 293.964844 179.070312 C 294.453125 179.253906 294.808594 179.691406 294.921875 180.234375 C 295.003906 180.621094 294.984375 181.179688 294.460938 181.691406 L 283.117188 192.789062 C 281.097656 194.757812 280.179688 197.589844 280.660156 200.359375 L 283.339844 216.035156 C 283.425781 216.523438 283.3125 216.953125 283.007812 217.3125 C 282.691406 217.6875 282.234375 217.90625 281.773438 217.90625 C 281.523438 217.90625 281.277344 217.84375 281.027344 217.714844 L 266.988281 210.308594 C 265.769531 209.671875 264.398438 209.332031 263.023438 209.332031 C 261.648438 209.332031 260.277344 209.671875 259.054688 210.316406 L 245.011719 217.71875 C 244.769531 217.847656 244.519531 217.914062 244.273438 217.914062 C 243.550781 217.914062 242.742188 217.324219 242.691406 216.453125 C 242.691406 216.414062 242.683594 216.382812 242.679688 216.347656 C 242.675781 216.316406 242.675781 216.214844 242.703125 216.035156 L 245.390625 200.351562 C 245.855469 197.582031 244.941406 194.757812 242.9375 192.792969 L 231.578125 181.691406 C 230.957031 181.089844 231.058594 180.410156 231.171875 180.058594 C 231.261719 179.773438 231.570312 179.097656 232.460938 178.964844 L 248.15625 176.679688 C 250.925781 176.269531 253.320312 174.523438 254.5625 172.007812 L 261.589844 157.742188 C 261.980469 156.972656 262.652344 156.855469 263.023438 156.855469 M 263.023438 153.382812 C 261.21875 153.382812 259.417969 154.320312 258.488281 156.207031 L 251.460938 170.472656 C 250.726562 171.964844 249.308594 173 247.660156 173.242188 L 231.96875 175.527344 C 227.820312 176.132812 226.15625 181.246094 229.164062 184.179688 L 240.519531 195.28125 C 241.707031 196.445312 242.253906 198.121094 241.976562 199.773438 L 239.292969 215.441406 C 239.226562 215.859375 239.199219 216.261719 239.234375 216.652344 C 239.394531 219.351562 241.703125 221.382812 244.277344 221.382812 C 245.058594 221.382812 245.859375 221.195312 246.636719 220.785156 L 260.671875 213.382812 C 261.410156 212.996094 262.21875 212.800781 263.027344 212.800781 C 263.839844 212.800781 264.648438 212.996094 265.382812 213.382812 L 279.417969 220.785156 C 280.195312 221.191406 280.996094 221.375 281.773438 221.375 C 284.71875 221.375 287.316406 218.71875 286.757812 215.4375 L 284.078125 199.769531 C 283.792969 198.117188 284.339844 196.441406 285.535156 195.277344 L 296.882812 184.175781 C 299.601562 181.515625 298.511719 177.089844 295.199219 175.816406 C 294.851562 175.675781 294.484375 175.582031 294.082031 175.523438 L 278.382812 173.238281 C 276.734375 172.996094 275.3125 171.964844 274.578125 170.46875 L 267.5625 156.203125 C 266.632812 154.320312 264.828125 153.382812 263.023438 153.382812 Z M 263.023438 153.382812 " fill-opacity="1" fill-rule="nonzero"/><path fill="#ffbe0d" d="M 338.414062 156.855469 C 338.714844 156.855469 339.449219 156.941406 339.84375 157.746094 L 346.863281 172.015625 C 348.105469 174.527344 350.5 176.273438 353.277344 176.683594 L 368.957031 178.964844 C 369.136719 178.992188 369.25 179.027344 369.308594 179.050781 C 369.324219 179.054688 369.339844 179.0625 369.355469 179.070312 C 369.84375 179.253906 370.199219 179.691406 370.3125 180.234375 C 370.394531 180.621094 370.375 181.179688 369.851562 181.691406 L 358.507812 192.789062 C 356.488281 194.757812 355.574219 197.589844 356.050781 200.359375 L 358.730469 216.035156 C 358.816406 216.523438 358.703125 216.953125 358.402344 217.3125 C 358.085938 217.6875 357.625 217.90625 357.164062 217.90625 C 356.917969 217.90625 356.667969 217.84375 356.421875 217.714844 L 342.378906 210.308594 C 341.164062 209.671875 339.792969 209.332031 338.414062 209.332031 C 337.039062 209.332031 335.667969 209.671875 334.445312 210.316406 L 320.40625 217.71875 C 320.160156 217.847656 319.914062 217.914062 319.664062 217.914062 C 318.945312 217.914062 318.136719 217.324219 318.082031 216.453125 C 318.082031 216.414062 318.078125 216.382812 318.074219 216.347656 C 318.070312 216.316406 318.070312 216.214844 318.097656 216.035156 L 320.785156 200.351562 C 321.25 197.582031 320.332031 194.757812 318.332031 192.792969 L 306.96875 181.691406 C 306.351562 181.089844 306.449219 180.410156 306.5625 180.058594 C 306.652344 179.773438 306.964844 179.097656 307.851562 178.964844 L 323.550781 176.679688 C 326.320312 176.269531 328.714844 174.523438 329.953125 172.007812 L 336.980469 157.742188 C 337.371094 156.972656 338.046875 156.855469 338.414062 156.855469 M 338.414062 153.382812 C 336.613281 153.382812 334.8125 154.320312 333.882812 156.207031 L 326.855469 170.472656 C 326.121094 171.964844 324.699219 173 323.054688 173.242188 L 307.359375 175.527344 C 303.210938 176.132812 301.546875 181.246094 304.554688 184.179688 L 315.914062 195.28125 C 317.097656 196.445312 317.644531 198.121094 317.371094 199.773438 L 314.6875 215.441406 C 314.617188 215.859375 314.589844 216.261719 314.628906 216.652344 C 314.785156 219.351562 317.09375 221.382812 319.671875 221.382812 C 320.449219 221.382812 321.253906 221.195312 322.027344 220.785156 L 336.066406 213.382812 C 336.800781 212.996094 337.613281 212.800781 338.421875 212.800781 C 339.226562 212.800781 340.039062 212.996094 340.773438 213.382812 L 354.8125 220.785156 C 355.585938 221.191406 356.390625 221.375 357.164062 221.375 C 360.109375 221.375 362.707031 218.71875 362.148438 215.4375 L 359.46875 199.769531 C 359.1875 198.117188 359.730469 196.441406 360.925781 195.277344 L 372.277344 184.175781 C 374.996094 181.515625 373.902344 177.089844 370.59375 175.816406 C 370.246094 175.675781 369.875 175.582031 369.472656 175.523438 L 353.773438 173.238281 C 352.128906 172.996094 350.707031 171.964844 349.972656 170.46875 L 342.953125 156.203125 C 342.019531 154.320312 340.214844 153.382812 338.414062 153.382812 Z M 338.414062 153.382812 " fill-opacity="1" fill-rule="nonzero"/><path fill="#ffce00" d="M 69.03125 175.820312 C 56.605469 195.941406 36.628906 210.882812 13.0625 216.652344 C 13.027344 216.261719 13.054688 215.859375 13.121094 215.441406 L 15.804688 199.773438 C 16.078125 198.121094 15.535156 196.445312 14.347656 195.28125 L 2.992188 184.179688 C -0.0195312 181.246094 1.644531 176.132812 5.796875 175.527344 L 21.488281 173.242188 C 23.132812 173 24.554688 171.96875 25.289062 170.472656 L 32.316406 156.207031 C 34.171875 152.4375 39.523438 152.4375 41.386719 156.207031 L 48.40625 170.472656 C 49.140625 171.964844 50.5625 173 52.207031 173.242188 L 67.910156 175.527344 C 68.316406 175.589844 68.683594 175.6875 69.03125 175.820312 Z M 69.03125 175.820312 " fill-opacity="1" fill-rule="nonzero"/><path fill="#ffce00" d="M 144.425781 175.820312 C 132 195.941406 112.023438 210.882812 88.453125 216.652344 C 88.417969 216.261719 88.445312 215.859375 88.511719 215.441406 L 91.195312 199.773438 C 91.472656 198.121094 90.925781 196.445312 89.738281 195.28125 L 78.382812 184.179688 C 75.375 181.246094 77.039062 176.132812 81.1875 175.527344 L 96.878906 173.242188 C 98.527344 173 99.949219 171.96875 100.683594 170.472656 L 107.710938 156.207031 C 109.5625 152.4375 114.917969 152.4375 116.78125 156.207031 L 123.796875 170.472656 C 124.535156 171.964844 125.953125 173 127.601562 173.242188 L 143.300781 175.527344 C 143.703125 175.589844 144.078125 175.6875 144.425781 175.820312 Z M 144.425781 175.820312 " fill-opacity="1" fill-rule="nonzero"/></svg>