<svg xmlns="http://www.w3.org/2000/svg" xmlns:xlink="http://www.w3.org/1999/xlink" width="500" zoomAndPan="magnify" viewBox="0 0 375 374.999991" height="500" preserveAspectRatio="xMidYMid meet" version="1.0"><path fill="#ffbe0d" d="M 59.363281 195.289062 C 58.167969 196.453125 57.621094 198.132812 57.90625 199.78125 L 60.585938 215.453125 C 61.296875 219.59375 56.953125 222.75 53.246094 220.792969 L 39.210938 213.390625 C 37.734375 212.617188 35.972656 212.617188 34.496094 213.390625 L 20.460938 220.792969 C 17.121094 222.558594 13.269531 220.179688 13.0625 216.660156 C 13.027344 216.269531 13.054688 215.867188 13.121094 215.453125 L 15.804688 199.78125 C 16.078125 198.132812 15.535156 196.453125 14.347656 195.289062 L 2.992188 184.1875 C -0.0195312 181.253906 1.644531 176.144531 5.796875 175.535156 L 21.488281 173.253906 C 23.132812 173.007812 24.554688 171.976562 25.289062 170.480469 L 32.316406 156.214844 C 34.171875 152.445312 39.523438 152.445312 41.386719 156.214844 L 48.40625 170.480469 C 49.140625 171.972656 50.5625 173.007812 52.207031 173.253906 L 67.910156 175.535156 C 68.304688 175.59375 68.679688 175.695312 69.027344 175.832031 C 72.339844 177.097656 73.429688 181.527344 70.710938 184.1875 Z M 59.363281 195.289062 " fill-opacity="1" fill-rule="nonzero"/><path fill="#ffbe0d" d="M 134.753906 195.289062 C 133.558594 196.453125 133.011719 198.132812 133.296875 199.78125 L 135.976562 215.453125 C 136.691406 219.59375 132.347656 222.75 128.636719 220.792969 L 114.601562 213.390625 C 113.128906 212.617188 111.363281 212.617188 109.886719 213.390625 L 95.851562 220.792969 C 92.515625 222.558594 88.664062 220.179688 88.453125 216.660156 C 88.417969 216.269531 88.445312 215.867188 88.511719 215.453125 L 91.195312 199.78125 C 91.472656 198.132812 90.925781 196.453125 89.738281 195.289062 L 78.382812 184.1875 C 75.375 181.253906 77.039062 176.144531 81.1875 175.535156 L 96.878906 173.253906 C 98.527344 173.007812 99.949219 171.976562 100.683594 170.480469 L 107.710938 156.214844 C 109.5625 152.445312 114.917969 152.445312 116.78125 156.214844 L 123.796875 170.480469 C 124.535156 171.972656 125.953125 173.007812 127.601562 173.253906 L 143.300781 175.535156 C 143.699219 175.59375 144.074219 175.695312 144.421875 175.832031 C 147.730469 177.097656 148.824219 181.527344 146.101562 184.1875 Z M 134.753906 195.289062 " fill-opacity="1" fill-rule="nonzero"/><path fill="#ffbe0d" d="M 210.140625 195.289062 C 208.945312 196.453125 208.402344 198.132812 208.6875 199.78125 L 211.363281 215.453125 C 212.078125 219.59375 207.734375 222.75 204.027344 220.792969 L 189.988281 213.390625 C 188.515625 212.617188 186.75 212.617188 185.277344 213.390625 L 171.238281 220.792969 C 167.902344 222.558594 164.050781 220.179688 163.84375 216.660156 C 163.804688 216.269531 163.832031 215.867188 163.902344 215.453125 L 166.585938 199.78125 C 166.859375 198.132812 166.3125 196.453125 165.128906 195.289062 L 153.769531 184.1875 C 150.761719 181.253906 152.425781 176.144531 156.578125 175.535156 L 172.269531 173.253906 C 173.914062 173.007812 175.335938 171.976562 176.070312 170.480469 L 183.097656 156.214844 C 184.953125 152.445312 190.304688 152.445312 192.167969 156.214844 L 199.1875 170.480469 C 199.921875 171.972656 201.34375 173.007812 202.988281 173.253906 L 218.691406 175.535156 C 219.085938 175.59375 219.460938 175.695312 219.808594 175.832031 C 223.117188 177.097656 224.210938 181.527344 221.492188 184.1875 Z M 210.140625 195.289062 " fill-opacity="1" fill-rule="nonzero"/><path fill="#ffbe0d" d="M 263.023438 156.863281 C 263.320312 156.863281 264.054688 156.949219 264.453125 157.753906 L 271.472656 172.023438 C 272.710938 174.539062 275.105469 176.28125 277.886719 176.695312 L 293.5625 178.972656 C 293.742188 179 293.855469 179.039062 293.914062 179.058594 C 293.933594 179.0625 293.945312 179.074219 293.964844 179.078125 C 294.453125 179.261719 294.808594 179.703125 294.921875 180.246094 C 295.003906 180.628906 294.984375 181.191406 294.460938 181.699219 L 283.117188 192.800781 C 281.097656 194.765625 280.179688 197.597656 280.660156 200.371094 L 283.339844 216.042969 C 283.425781 216.53125 283.3125 216.960938 283.007812 217.320312 C 282.691406 217.695312 282.234375 217.917969 281.773438 217.917969 C 281.523438 217.917969 281.277344 217.855469 281.027344 217.722656 L 266.988281 210.320312 C 265.769531 209.679688 264.398438 209.34375 263.023438 209.34375 C 261.648438 209.34375 260.277344 209.679688 259.054688 210.324219 L 245.011719 217.726562 C 244.769531 217.859375 244.519531 217.921875 244.273438 217.921875 C 243.550781 217.921875 242.742188 217.332031 242.691406 216.460938 C 242.691406 216.425781 242.683594 216.394531 242.679688 216.355469 C 242.675781 216.324219 242.675781 216.226562 242.703125 216.042969 L 245.390625 200.359375 C 245.855469 197.59375 244.941406 194.765625 242.9375 192.804688 L 231.578125 181.699219 C 230.957031 181.097656 231.058594 180.421875 231.171875 180.066406 C 231.261719 179.785156 231.570312 179.105469 232.460938 178.972656 L 248.15625 176.691406 C 250.925781 176.277344 253.320312 174.53125 254.5625 172.019531 L 261.589844 157.75 C 261.980469 156.976562 262.652344 156.863281 263.023438 156.863281 M 263.023438 153.386719 C 261.21875 153.386719 259.417969 154.328125 258.488281 156.210938 L 251.460938 170.476562 C 250.726562 171.96875 249.308594 173.003906 247.660156 173.25 L 231.96875 175.53125 C 227.820312 176.136719 226.15625 181.25 229.164062 184.183594 L 240.519531 195.285156 C 241.707031 196.449219 242.253906 198.125 241.976562 199.777344 L 239.292969 215.449219 C 239.226562 215.863281 239.199219 216.265625 239.234375 216.65625 C 239.394531 219.355469 241.703125 221.386719 244.277344 221.386719 C 245.058594 221.386719 245.859375 221.199219 246.636719 220.789062 L 260.671875 213.386719 C 261.410156 213 262.21875 212.804688 263.027344 212.804688 C 263.839844 212.804688 264.648438 213 265.382812 213.386719 L 279.417969 220.789062 C 280.195312 221.195312 280.996094 221.382812 281.773438 221.382812 C 284.71875 221.382812 287.316406 218.722656 286.757812 215.441406 L 284.078125 199.773438 C 283.792969 198.121094 284.339844 196.445312 285.535156 195.28125 L 296.882812 184.179688 C 299.601562 181.519531 298.511719 177.09375 295.199219 175.820312 C 294.851562 175.679688 294.484375 175.585938 294.082031 175.527344 L 278.382812 173.242188 C 276.734375 173 275.3125 171.96875 274.578125 170.472656 L 267.5625 156.207031 C 266.632812 154.332031 264.828125 153.386719 263.023438 153.386719 Z M 263.023438 153.386719 " fill-opacity="1" fill-rule="nonzero"/><path fill="#ffbe0d" d="M 338.414062 156.863281 C 338.714844 156.863281 339.449219 156.949219 339.84375 157.753906 L 346.863281 172.023438 C 348.105469 174.539062 350.5 176.28125 353.277344 176.695312 L 368.957031 178.972656 C 369.136719 179 369.25 179.039062 369.308594 179.058594 C 369.324219 179.0625 369.339844 179.074219 369.355469 179.078125 C 369.84375 179.261719 370.199219 179.703125 370.3125 180.246094 C 370.394531 180.628906 370.375 181.191406 369.851562 181.699219 L 358.507812 192.800781 C 356.488281 194.765625 355.574219 197.597656 356.050781 200.371094 L 358.730469 216.042969 C 358.816406 216.53125 358.703125 216.960938 358.402344 217.320312 C 358.085938 217.695312 357.625 217.917969 357.164062 217.917969 C 356.917969 217.917969 356.667969 217.855469 356.421875 217.722656 L 342.378906 210.320312 C 341.164062 209.679688 339.792969 209.34375 338.414062 209.34375 C 337.039062 209.34375 335.667969 209.679688 334.445312 210.324219 L 320.40625 217.726562 C 320.160156 217.859375 319.914062 217.921875 319.664062 217.921875 C 318.945312 217.921875 318.136719 217.332031 318.082031 216.460938 C 318.082031 216.425781 318.078125 216.394531 318.074219 216.355469 C 318.070312 216.324219 318.070312 216.226562 318.097656 216.042969 L 320.785156 200.359375 C 321.25 197.59375 320.332031 194.765625 318.332031 192.804688 L 306.96875 181.699219 C 306.351562 181.097656 306.449219 180.421875 306.5625 180.066406 C 306.652344 179.785156 306.964844 179.105469 307.851562 178.972656 L 323.550781 176.691406 C 326.320312 176.277344 328.714844 174.53125 329.953125 172.019531 L 336.980469 157.75 C 337.371094 156.976562 338.046875 156.863281 338.414062 156.863281 M 338.414062 153.386719 C 336.613281 153.386719 334.8125 154.328125 333.882812 156.210938 L 326.855469 170.476562 C 326.121094 171.96875 324.699219 173.003906 323.054688 173.25 L 307.359375 175.53125 C 303.210938 176.136719 301.546875 181.25 304.554688 184.183594 L 315.914062 195.285156 C 317.097656 196.449219 317.644531 198.125 317.371094 199.777344 L 314.6875 215.449219 C 314.617188 215.863281 314.589844 216.265625 314.628906 216.65625 C 314.785156 219.355469 317.09375 221.386719 319.671875 221.386719 C 320.449219 221.386719 321.253906 221.199219 322.027344 220.789062 L 336.066406 213.386719 C 336.800781 213 337.613281 212.804688 338.421875 212.804688 C 339.226562 212.804688 340.039062 213 340.773438 213.386719 L 354.8125 220.789062 C 355.585938 221.195312 356.390625 221.382812 357.164062 221.382812 C 360.109375 221.382812 362.707031 218.722656 362.148438 215.441406 L 359.46875 199.773438 C 359.1875 198.121094 359.730469 196.445312 360.925781 195.28125 L 372.277344 184.179688 C 374.996094 181.519531 373.902344 177.09375 370.59375 175.820312 C 370.246094 175.679688 369.875 175.585938 369.472656 175.527344 L 353.773438 173.242188 C 352.128906 173 350.707031 171.96875 349.972656 170.472656 L 342.953125 156.207031 C 342.019531 154.332031 340.214844 153.386719 338.414062 153.386719 Z M 338.414062 153.386719 " fill-opacity="1" fill-rule="nonzero"/><path fill="#ffce00" d="M 69.03125 175.832031 C 56.605469 195.953125 36.628906 210.894531 13.0625 216.660156 C 13.027344 216.269531 13.054688 215.867188 13.121094 215.453125 L 15.804688 199.78125 C 16.078125 198.132812 15.535156 196.453125 14.347656 195.289062 L 2.992188 184.1875 C -0.0195312 181.253906 1.644531 176.144531 5.796875 175.535156 L 21.488281 173.253906 C 23.132812 173.007812 24.554688 171.976562 25.289062 170.480469 L 32.316406 156.214844 C 34.171875 152.445312 39.523438 152.445312 41.386719 156.214844 L 48.40625 170.480469 C 49.140625 171.972656 50.5625 173.007812 52.207031 173.253906 L 67.910156 175.535156 C 68.316406 175.59375 68.683594 175.691406 69.03125 175.832031 Z M 69.03125 175.832031 " fill-opacity="1" fill-rule="nonzero"/><path fill="#ffce00" d="M 144.425781 175.832031 C 132 195.953125 112.023438 210.894531 88.453125 216.660156 C 88.417969 216.269531 88.445312 215.867188 88.511719 215.453125 L 91.195312 199.78125 C 91.472656 198.132812 90.925781 196.453125 89.738281 195.289062 L 78.382812 184.1875 C 75.375 181.253906 77.039062 176.144531 81.1875 175.535156 L 96.878906 173.253906 C 98.527344 173.007812 99.949219 171.976562 100.683594 170.480469 L 107.710938 156.214844 C 109.5625 152.445312 114.917969 152.445312 116.78125 156.214844 L 123.796875 170.480469 C 124.535156 171.972656 125.953125 173.007812 127.601562 173.253906 L 143.300781 175.535156 C 143.703125 175.59375 144.078125 175.691406 144.425781 175.832031 Z M 144.425781 175.832031 " fill-opacity="1" fill-rule="nonzero"/><path fill="#ffce00" d="M 219.8125 175.832031 C 207.386719 195.953125 187.410156 210.894531 163.84375 216.660156 C 163.804688 216.269531 163.832031 215.867188 163.902344 215.453125 L 166.585938 199.78125 C 166.859375 198.132812 166.3125 196.453125 165.128906 195.289062 L 153.769531 184.1875 C 150.761719 181.253906 152.425781 176.144531 156.578125 175.535156 L 172.269531 173.253906 C 173.914062 173.007812 175.335938 171.976562 176.070312 170.480469 L 183.097656 156.214844 C 184.953125 152.445312 190.304688 152.445312 192.167969 156.214844 L 199.1875 170.480469 C 199.921875 171.972656 201.34375 173.007812 202.988281 173.253906 L 218.691406 175.535156 C 219.089844 175.59375 219.464844 175.691406 219.8125 175.832031 Z M 219.8125 175.832031 " fill-opacity="1" fill-rule="nonzero"/></svg>