<svg xmlns="http://www.w3.org/2000/svg" xmlns:xlink="http://www.w3.org/1999/xlink" width="500" zoomAndPan="magnify" viewBox="0 0 375 374.999991" height="500" preserveAspectRatio="xMidYMid meet" version="1.0"><path fill="#ffbe0d" d="M 59.363281 195.296875 C 58.167969 196.457031 57.621094 198.136719 57.90625 199.785156 L 60.585938 215.457031 C 61.296875 219.597656 56.953125 222.757812 53.246094 220.796875 L 39.210938 213.394531 C 37.734375 212.621094 35.972656 212.621094 34.496094 213.394531 L 20.460938 220.796875 C 17.121094 222.5625 13.269531 220.183594 13.0625 216.664062 C 13.027344 216.273438 13.054688 215.871094 13.121094 215.457031 L 15.804688 199.785156 C 16.078125 198.136719 15.535156 196.457031 14.347656 195.296875 L 2.992188 184.191406 C -0.0195312 181.257812 1.644531 176.148438 5.796875 175.542969 L 21.488281 173.257812 C 23.132812 173.011719 24.554688 171.980469 25.289062 170.484375 L 32.316406 156.222656 C 34.171875 152.449219 39.523438 152.449219 41.386719 156.222656 L 48.40625 170.484375 C 49.140625 171.976562 50.5625 173.011719 52.207031 173.257812 L 67.910156 175.542969 C 68.304688 175.601562 68.679688 175.699219 69.027344 175.835938 C 72.339844 177.101562 73.429688 181.535156 70.710938 184.191406 Z M 59.363281 195.296875 " fill-opacity="1" fill-rule="nonzero"/><path fill="#ffbe0d" d="M 134.753906 195.296875 C 133.558594 196.457031 133.011719 198.136719 133.296875 199.785156 L 135.976562 215.457031 C 136.691406 219.597656 132.347656 222.757812 128.636719 220.796875 L 114.601562 213.394531 C 113.128906 212.621094 111.363281 212.621094 109.886719 213.394531 L 95.851562 220.796875 C 92.515625 222.5625 88.664062 220.183594 88.453125 216.664062 C 88.417969 216.273438 88.445312 215.871094 88.511719 215.457031 L 91.195312 199.785156 C 91.472656 198.136719 90.925781 196.457031 89.738281 195.296875 L 78.382812 184.191406 C 75.375 181.257812 77.039062 176.148438 81.1875 175.542969 L 96.878906 173.257812 C 98.527344 173.011719 99.949219 171.980469 100.683594 170.484375 L 107.710938 156.222656 C 109.5625 152.449219 114.917969 152.449219 116.78125 156.222656 L 123.796875 170.484375 C 124.535156 171.976562 125.953125 173.011719 127.601562 173.257812 L 143.300781 175.542969 C 143.699219 175.601562 144.074219 175.699219 144.421875 175.835938 C 147.730469 177.101562 148.824219 181.535156 146.101562 184.191406 Z M 134.753906 195.296875 " fill-opacity="1" fill-rule="nonzero"/><path fill="#ffbe0d" d="M 210.140625 195.296875 C 208.945312 196.457031 208.402344 198.136719 208.6875 199.785156 L 211.363281 215.457031 C 212.078125 219.597656 207.734375 222.757812 204.027344 220.796875 L 189.988281 213.394531 C 188.515625 212.621094 186.75 212.621094 185.277344 213.394531 L 171.238281 220.796875 C 167.902344 222.5625 164.050781 220.183594 163.84375 216.664062 C 163.804688 216.273438 163.832031 215.871094 163.902344 215.457031 L 166.585938 199.785156 C 166.859375 198.136719 166.3125 196.457031 165.128906 195.296875 L 153.769531 184.191406 C 150.761719 181.257812 152.425781 176.148438 156.578125 175.542969 L 172.269531 173.257812 C 173.914062 173.011719 175.335938 171.980469 176.070312 170.484375 L 183.097656 156.222656 C 184.953125 152.449219 190.304688 152.449219 192.167969 156.222656 L 199.1875 170.484375 C 199.921875 171.976562 201.34375 173.011719 202.988281 173.257812 L 218.691406 175.542969 C 219.085938 175.601562 219.460938 175.699219 219.808594 175.835938 C 223.117188 177.101562 224.210938 181.535156 221.492188 184.191406 Z M 210.140625 195.296875 " fill-opacity="1" fill-rule="nonzero"/><path fill="#ffbe0d" d="M 285.535156 195.296875 C 284.339844 196.457031 283.792969 198.136719 284.078125 199.785156 L 286.757812 215.457031 C 287.46875 219.597656 283.125 222.757812 279.417969 220.796875 L 265.382812 213.394531 C 263.90625 212.621094 262.144531 212.621094 260.667969 213.394531 L 246.632812 220.796875 C 243.292969 222.5625 239.441406 220.183594 239.234375 216.664062 C 239.199219 216.273438 239.226562 215.871094 239.292969 215.457031 L 241.976562 199.785156 C 242.253906 198.136719 241.707031 196.457031 240.519531 195.296875 L 229.164062 184.191406 C 226.15625 181.257812 227.820312 176.148438 231.96875 175.542969 L 247.660156 173.257812 C 249.308594 173.011719 250.726562 171.980469 251.460938 170.484375 L 258.488281 156.222656 C 260.34375 152.449219 265.699219 152.449219 267.5625 156.222656 L 274.578125 170.484375 C 275.3125 171.976562 276.734375 173.011719 278.382812 173.257812 L 294.082031 175.542969 C 294.480469 175.601562 294.855469 175.699219 295.199219 175.835938 C 298.511719 177.101562 299.601562 181.535156 296.882812 184.191406 Z M 285.535156 195.296875 " fill-opacity="1" fill-rule="nonzero"/><path fill="#ffbe0d" d="M 338.414062 156.867188 C 338.714844 156.867188 339.449219 156.953125 339.84375 157.757812 L 346.863281 172.027344 C 348.105469 174.542969 350.5 176.289062 353.277344 176.699219 L 368.957031 178.976562 C 369.136719 179.003906 369.25 179.042969 369.308594 179.0625 C 369.324219 179.070312 369.339844 179.078125 369.355469 179.082031 C 369.84375 179.269531 370.199219 179.707031 370.3125 180.25 C 370.394531 180.632812 370.375 181.195312 369.851562 181.707031 L 358.507812 192.804688 C 356.488281 194.769531 355.574219 197.601562 356.050781 200.375 L 358.730469 216.050781 C 358.816406 216.539062 358.703125 216.96875 358.402344 217.324219 C 358.085938 217.699219 357.625 217.921875 357.164062 217.921875 C 356.917969 217.921875 356.667969 217.859375 356.421875 217.726562 L 342.378906 210.324219 C 341.164062 209.6875 339.792969 209.347656 338.414062 209.347656 C 337.039062 209.347656 335.667969 209.6875 334.445312 210.328125 L 320.40625 217.730469 C 320.160156 217.863281 319.914062 217.925781 319.664062 217.925781 C 318.945312 217.925781 318.136719 217.339844 318.082031 216.464844 C 318.082031 216.429688 318.078125 216.398438 318.074219 216.359375 C 318.070312 216.328125 318.070312 216.230469 318.097656 216.050781 L 320.785156 200.363281 C 321.25 197.597656 320.332031 194.769531 318.332031 192.808594 L 306.96875 181.707031 C 306.351562 181.105469 306.449219 180.425781 306.5625 180.074219 C 306.652344 179.789062 306.964844 179.109375 307.851562 178.976562 L 323.550781 176.695312 C 326.320312 176.28125 328.714844 174.539062 329.953125 172.023438 L 336.980469 157.753906 C 337.371094 156.984375 338.046875 156.867188 338.414062 156.867188 M 338.414062 153.394531 C 336.613281 153.394531 334.8125 154.335938 333.882812 156.222656 L 326.855469 170.484375 C 326.121094 171.976562 324.699219 173.011719 323.054688 173.257812 L 307.359375 175.542969 C 303.210938 176.148438 301.546875 181.257812 304.554688 184.191406 L 315.914062 195.296875 C 317.097656 196.457031 317.644531 198.136719 317.371094 199.785156 L 314.6875 215.457031 C 314.617188 215.871094 314.589844 216.273438 314.628906 216.664062 C 314.785156 219.363281 317.09375 221.394531 319.671875 221.394531 C 320.449219 221.394531 321.253906 221.210938 322.027344 220.796875 L 336.066406 213.394531 C 336.800781 213.011719 337.613281 212.816406 338.421875 212.816406 C 339.226562 212.816406 340.039062 213.011719 340.773438 213.394531 L 354.8125 220.796875 C 355.585938 221.203125 356.390625 221.390625 357.164062 221.390625 C 360.109375 221.390625 362.707031 218.730469 362.148438 215.453125 L 359.46875 199.78125 C 359.1875 198.132812 359.730469 196.453125 360.925781 195.289062 L 372.277344 184.1875 C 374.996094 181.527344 373.902344 177.101562 370.59375 175.832031 C 370.246094 175.691406 369.875 175.59375 369.472656 175.535156 L 353.773438 173.253906 C 352.128906 173.007812 350.707031 171.976562 349.972656 170.480469 L 342.953125 156.214844 C 342.019531 154.335938 340.214844 153.394531 338.414062 153.394531 Z M 338.414062 153.394531 " fill-opacity="1" fill-rule="nonzero"/><path fill="#ffce00" d="M 69.03125 175.835938 C 56.605469 195.957031 36.628906 210.898438 13.0625 216.664062 C 13.027344 216.273438 13.054688 215.871094 13.121094 215.457031 L 15.804688 199.785156 C 16.078125 198.136719 15.535156 196.457031 14.347656 195.296875 L 2.992188 184.191406 C -0.0195312 181.257812 1.644531 176.148438 5.796875 175.542969 L 21.488281 173.257812 C 23.132812 173.011719 24.554688 171.980469 25.289062 170.484375 L 32.316406 156.222656 C 34.171875 152.449219 39.523438 152.449219 41.386719 156.222656 L 48.40625 170.484375 C 49.140625 171.976562 50.5625 173.011719 52.207031 173.257812 L 67.910156 175.542969 C 68.316406 175.601562 68.683594 175.699219 69.03125 175.835938 Z M 69.03125 175.835938 " fill-opacity="1" fill-rule="nonzero"/><path fill="#ffce00" d="M 144.425781 175.835938 C 132 195.957031 112.023438 210.898438 88.453125 216.664062 C 88.417969 216.273438 88.445312 215.871094 88.511719 215.457031 L 91.195312 199.785156 C 91.472656 198.136719 90.925781 196.457031 89.738281 195.296875 L 78.382812 184.191406 C 75.375 181.257812 77.039062 176.148438 81.1875 175.542969 L 96.878906 173.257812 C 98.527344 173.011719 99.949219 171.980469 100.683594 170.484375 L 107.710938 156.222656 C 109.5625 152.449219 114.917969 152.449219 116.78125 156.222656 L 123.796875 170.484375 C 124.535156 171.976562 125.953125 173.011719 127.601562 173.257812 L 143.300781 175.542969 C 143.703125 175.601562 144.078125 175.699219 144.425781 175.835938 Z M 144.425781 175.835938 " fill-opacity="1" fill-rule="nonzero"/><path fill="#ffce00" d="M 219.8125 175.835938 C 207.386719 195.957031 187.410156 210.898438 163.84375 216.664062 C 163.804688 216.273438 163.832031 215.871094 163.902344 215.457031 L 166.585938 199.785156 C 166.859375 198.136719 166.3125 196.457031 165.128906 195.296875 L 153.769531 184.191406 C 150.761719 181.257812 152.425781 176.148438 156.578125 175.542969 L 172.269531 173.257812 C 173.914062 173.011719 175.335938 171.980469 176.070312 170.484375 L 183.097656 156.222656 C 184.953125 152.449219 190.304688 152.449219 192.167969 156.222656 L 199.1875 170.484375 C 199.921875 171.976562 201.34375 173.011719 202.988281 173.257812 L 218.691406 175.542969 C 219.089844 175.601562 219.464844 175.699219 219.8125 175.835938 Z M 219.8125 175.835938 " fill-opacity="1" fill-rule="nonzero"/><path fill="#ffce00" d="M 295.199219 175.835938 C 282.773438 195.957031 262.796875 210.898438 239.230469 216.664062 C 239.195312 216.273438 239.222656 215.871094 239.289062 215.457031 L 241.972656 199.785156 C 242.246094 198.136719 241.703125 196.457031 240.515625 195.296875 L 229.160156 184.191406 C 226.148438 181.257812 227.816406 176.148438 231.964844 175.542969 L 247.65625 173.257812 C 249.300781 173.011719 250.722656 171.980469 251.457031 170.484375 L 258.484375 156.222656 C 260.339844 152.449219 265.695312 152.449219 267.554688 156.222656 L 274.574219 170.484375 C 275.308594 171.976562 276.730469 173.011719 278.375 173.257812 L 294.082031 175.542969 C 294.484375 175.601562 294.855469 175.699219 295.199219 175.835938 Z M 295.199219 175.835938 " fill-opacity="1" fill-rule="nonzero"/></svg>