<svg xmlns="http://www.w3.org/2000/svg" xmlns:xlink="http://www.w3.org/1999/xlink" width="500" zoomAndPan="magnify" viewBox="0 0 375 374.999991" height="500" preserveAspectRatio="xMidYMid meet" version="1.0"><defs><clipPath id="1d21549170"><path d="M 0.953125 158.203125 L 62.585938 158.203125 L 62.585938 216.679688 L 0.953125 216.679688 Z M 0.953125 158.203125 " clip-rule="nonzero"/></clipPath><clipPath id="31093e584d"><path d="M 0.953125 158.203125 L 32 158.203125 L 32 216.679688 L 0.953125 216.679688 Z M 0.953125 158.203125 " clip-rule="nonzero"/></clipPath><clipPath id="7251c716e1"><path d="M 78.203125 158.203125 L 140.65625 158.203125 L 140.65625 216.679688 L 78.203125 216.679688 Z M 78.203125 158.203125 " clip-rule="nonzero"/></clipPath><clipPath id="b4bc71dc59"><path d="M 78.203125 158.203125 L 110 158.203125 L 110 216.679688 L 78.203125 216.679688 Z M 78.203125 158.203125 " clip-rule="nonzero"/></clipPath><clipPath id="031b8a9c2b"><path d="M 156.273438 158.203125 L 218.726562 158.203125 L 218.726562 216.679688 L 156.273438 216.679688 Z M 156.273438 158.203125 " clip-rule="nonzero"/></clipPath><clipPath id="95d93feea9"><path d="M 156.273438 158.203125 L 187.5 158.203125 L 187.5 216.679688 L 156.273438 216.679688 Z M 156.273438 158.203125 " clip-rule="nonzero"/></clipPath><clipPath id="2d1879ac21"><path d="M 234.34375 158.203125 L 296.796875 158.203125 L 296.796875 216.679688 L 234.34375 216.679688 Z M 234.34375 158.203125 " clip-rule="nonzero"/></clipPath><clipPath id="df352b6b7b"><path d="M 234.34375 158.203125 L 265.570312 158.203125 L 265.570312 216.679688 L 234.34375 216.679688 Z M 234.34375 158.203125 " clip-rule="nonzero"/></clipPath><clipPath id="c945e3b0f1"><path d="M 312.414062 158.203125 L 374.046875 158.203125 L 374.046875 216.679688 L 312.414062 216.679688 Z M 312.414062 158.203125 " clip-rule="nonzero"/></clipPath><clipPath id="917d2f1eca"><path d="M 312.414062 158.203125 L 343.640625 158.203125 L 343.640625 216.679688 L 312.414062 216.679688 Z M 312.414062 158.203125 " clip-rule="nonzero"/></clipPath></defs><g clip-path="url(#1d21549170)"><path fill="#ffcf06" d="M 12.679688 216.644531 L 17.359375 195.167969 L 0.953125 180.507812 L 22.859375 178.3125 L 31.753906 158.203125 L 40.613281 178.332031 L 62.515625 180.5625 L 47.113281 195.523438 L 50.726562 216.679688 L 31.710938 205.59375 L 12.679688 216.644531 " fill-opacity="1" fill-rule="nonzero"/></g><g clip-path="url(#31093e584d)"><path fill="#fdc408" d="M 12.679688 216.644531 L 17.359375 195.167969 L 0.953125 180.507812 L 22.859375 178.3125 L 31.722656 158.285156 L 31.722656 205.601562 L 31.710938 205.59375 L 12.679688 216.644531 " fill-opacity="1" fill-rule="nonzero"/></g><g clip-path="url(#7251c716e1)"><path fill="#ffcf06" d="M 90.5625 216.644531 L 95.246094 195.167969 L 78.835938 180.507812 L 100.742188 178.3125 L 109.636719 158.203125 L 118.496094 178.332031 L 140.402344 180.5625 L 124.996094 195.523438 L 128.609375 216.679688 L 109.59375 205.59375 L 90.5625 216.644531 " fill-opacity="1" fill-rule="nonzero"/></g><g clip-path="url(#b4bc71dc59)"><path fill="#fdc408" d="M 90.5625 216.644531 L 95.246094 195.167969 L 78.835938 180.507812 L 100.742188 178.3125 L 109.601562 158.285156 L 109.601562 205.601562 L 109.59375 205.59375 L 90.5625 216.644531 " fill-opacity="1" fill-rule="nonzero"/></g><g clip-path="url(#031b8a9c2b)"><path fill="#ffcf06" d="M 168.445312 216.644531 L 173.125 195.167969 L 156.71875 180.507812 L 178.625 178.3125 L 187.519531 158.203125 L 196.378906 178.332031 L 218.28125 180.5625 L 202.875 195.523438 L 206.492188 216.679688 L 187.476562 205.59375 L 168.445312 216.644531 " fill-opacity="1" fill-rule="nonzero"/></g><g clip-path="url(#95d93feea9)"><path fill="#fdc408" d="M 168.445312 216.644531 L 173.125 195.167969 L 156.71875 180.507812 L 178.625 178.3125 L 187.488281 158.285156 L 187.488281 205.601562 L 187.476562 205.59375 L 168.445312 216.644531 " fill-opacity="1" fill-rule="nonzero"/></g><g clip-path="url(#2d1879ac21)"><path fill="#ffcf06" d="M 246.324219 216.644531 L 251.007812 195.167969 L 234.597656 180.507812 L 256.507812 178.3125 L 265.402344 158.203125 L 274.261719 178.332031 L 296.164062 180.5625 L 280.761719 195.523438 L 284.375 216.679688 L 265.359375 205.59375 L 246.324219 216.644531 " fill-opacity="1" fill-rule="nonzero"/></g><g clip-path="url(#df352b6b7b)"><path fill="#fdc408" d="M 246.324219 216.644531 L 251.007812 195.167969 L 234.597656 180.507812 L 256.507812 178.3125 L 265.367188 158.285156 L 265.367188 205.601562 L 265.359375 205.59375 L 246.324219 216.644531 " fill-opacity="1" fill-rule="nonzero"/></g><g clip-path="url(#c945e3b0f1)"><path fill="#ffcf06" d="M 324.210938 216.644531 L 328.890625 195.167969 L 312.484375 180.507812 L 334.390625 178.3125 L 343.285156 158.203125 L 352.144531 178.332031 L 374.046875 180.5625 L 358.640625 195.523438 L 362.257812 216.679688 L 343.242188 205.59375 L 324.210938 216.644531 " fill-opacity="1" fill-rule="nonzero"/></g><g clip-path="url(#917d2f1eca)"><path fill="#fdc408" d="M 324.210938 216.644531 L 328.890625 195.167969 L 312.484375 180.507812 L 334.390625 178.3125 L 343.253906 158.285156 L 343.253906 205.601562 L 343.242188 205.59375 L 324.210938 216.644531 " fill-opacity="1" fill-rule="nonzero"/></g></svg>