<svg xmlns="http://www.w3.org/2000/svg" xmlns:xlink="http://www.w3.org/1999/xlink" width="500" zoomAndPan="magnify" viewBox="0 0 375 374.999991" height="500" preserveAspectRatio="xMidYMid meet" version="1.0"><path fill="#f2cc5d" d="M 19.632812 174.40625 C 18.132812 174.40625 2.382812 176.027344 -0.367188 176.152344 C -2.617188 176.277344 -3.867188 177.894531 -3.992188 179.640625 L -3.992188 180.265625 C -3.992188 181.261719 -3.492188 182.132812 -2.742188 182.882812 C -2.367188 183.132812 -2.367188 183.132812 -2.117188 183.253906 L 9.757812 193.726562 C 10.007812 193.972656 10.007812 193.972656 10.382812 194.222656 C 11.007812 194.847656 11.757812 195.59375 12.507812 196.09375 C 12.257812 196.714844 7.882812 216.160156 7.882812 216.78125 C 7.882812 218.652344 9.632812 220.523438 11.632812 220.523438 C 13.132812 220.523438 15.132812 219.027344 16.757812 218.152344 L 28.632812 211.050781 C 29.507812 210.550781 30.257812 210.050781 31.007812 209.554688 L 47.507812 219.398438 C 49.257812 220.398438 51.132812 221.269531 53.007812 219.398438 C 55.132812 217.40625 53.757812 214.914062 53.132812 211.671875 L 49.507812 196.09375 L 61.882812 185.375 C 63.257812 184.128906 66.007812 182.132812 66.007812 180.265625 C 66.007812 177.894531 64.757812 176.402344 62.507812 176.152344 L 42.382812 174.40625 C 42.382812 173.785156 35.757812 158.828125 35.257812 157.457031 C 34.882812 156.582031 34.507812 155.585938 33.882812 154.839844 C 32.507812 153.09375 29.632812 153.09375 28.132812 154.714844 C 27.382812 155.710938 21.882812 168.921875 20.882812 171.414062 C 20.632812 172.039062 19.757812 173.785156 19.632812 174.40625 Z M 19.632812 174.40625 " fill-opacity="1" fill-rule="evenodd"/><path fill="#f2cc5d" d="M 97.757812 174.40625 C 96.257812 174.40625 80.507812 176.027344 77.757812 176.152344 C 75.507812 176.277344 74.257812 177.894531 74.132812 179.640625 L 74.132812 180.265625 C 74.132812 181.261719 74.632812 182.132812 75.382812 182.882812 C 75.632812 183.132812 75.757812 183.132812 76.007812 183.253906 L 87.757812 193.726562 C 88.132812 193.972656 88.132812 193.972656 88.382812 194.222656 C 89.132812 194.847656 89.882812 195.59375 90.632812 196.09375 C 90.382812 196.714844 86.007812 216.160156 86.007812 216.78125 C 86.007812 218.652344 87.757812 220.523438 89.632812 220.523438 C 91.257812 220.523438 93.257812 219.027344 94.757812 218.152344 L 106.757812 211.050781 C 107.507812 210.550781 108.257812 210.050781 109.132812 209.554688 L 125.632812 219.398438 C 127.257812 220.398438 129.257812 221.269531 131.007812 219.398438 C 133.132812 217.40625 131.882812 214.914062 131.132812 211.671875 L 127.632812 196.09375 L 140.007812 185.375 C 141.382812 184.128906 144.132812 182.132812 144.132812 180.265625 C 144.132812 177.894531 142.757812 176.402344 140.632812 176.152344 L 120.507812 174.40625 C 120.382812 173.785156 113.882812 158.828125 113.257812 157.457031 C 112.882812 156.582031 112.632812 155.585938 112.007812 154.839844 C 110.632812 153.09375 107.757812 153.09375 106.257812 154.714844 C 105.507812 155.710938 100.007812 168.921875 98.882812 171.414062 C 98.632812 172.039062 97.757812 173.785156 97.757812 174.40625 Z M 97.757812 174.40625 " fill-opacity="1" fill-rule="evenodd"/><path fill="#f2cc5d" d="M 175.882812 174.40625 C 174.257812 174.40625 158.507812 176.027344 155.882812 176.152344 C 153.632812 176.277344 152.257812 177.894531 152.132812 179.640625 L 152.132812 180.265625 C 152.257812 181.261719 152.632812 182.132812 153.507812 182.882812 C 153.757812 183.132812 153.757812 183.132812 154.007812 183.253906 L 165.882812 193.726562 C 166.132812 193.972656 166.257812 193.972656 166.507812 194.222656 C 167.257812 194.847656 168.007812 195.59375 168.757812 196.09375 C 168.382812 196.714844 164.132812 216.160156 164.132812 216.78125 C 164.132812 218.652344 165.757812 220.523438 167.757812 220.523438 C 169.382812 220.523438 171.257812 219.027344 172.882812 218.152344 L 184.757812 211.050781 C 185.632812 210.550781 186.382812 210.050781 187.257812 209.554688 L 203.757812 219.398438 C 205.382812 220.398438 207.257812 221.269531 209.132812 219.398438 C 211.257812 217.40625 209.882812 214.914062 209.257812 211.671875 L 205.632812 196.09375 L 218.007812 185.375 C 219.507812 184.128906 222.257812 182.132812 222.257812 180.265625 C 222.257812 177.894531 220.882812 176.402344 218.632812 176.152344 L 198.507812 174.40625 C 198.507812 173.785156 192.007812 158.828125 191.382812 157.457031 C 191.007812 156.582031 190.632812 155.585938 190.132812 154.839844 C 188.757812 153.09375 185.882812 153.09375 184.382812 154.714844 C 183.507812 155.710938 178.007812 168.921875 177.007812 171.414062 C 176.757812 172.039062 175.882812 173.785156 175.882812 174.40625 Z M 175.882812 174.40625 " fill-opacity="1" fill-rule="evenodd"/><path fill="#f2cc5d" d="M 253.882812 174.40625 C 252.382812 174.40625 236.632812 176.027344 234.007812 176.152344 C 231.757812 176.277344 230.382812 177.894531 230.257812 179.640625 L 230.257812 180.265625 C 230.382812 181.261719 230.757812 182.132812 231.632812 182.882812 C 231.882812 183.132812 231.882812 183.132812 232.132812 183.253906 L 244.007812 193.726562 C 244.257812 193.972656 244.257812 193.972656 244.632812 194.222656 C 245.257812 194.847656 246.007812 195.59375 246.757812 196.09375 C 246.507812 196.714844 242.132812 216.160156 242.132812 216.78125 C 242.132812 218.652344 243.882812 220.523438 245.882812 220.523438 C 247.507812 220.523438 249.382812 219.027344 251.007812 218.152344 L 262.882812 211.050781 C 263.757812 210.550781 264.507812 210.050781 265.257812 209.554688 L 281.882812 219.398438 C 283.507812 220.398438 285.382812 221.269531 287.257812 219.398438 C 289.382812 217.40625 288.007812 214.914062 287.382812 211.671875 L 283.757812 196.09375 L 296.132812 185.375 C 297.632812 184.128906 300.382812 182.132812 300.382812 180.265625 C 300.382812 177.894531 299.007812 176.402344 296.757812 176.152344 L 276.632812 174.40625 C 276.632812 173.785156 270.007812 158.828125 269.507812 157.457031 C 269.132812 156.582031 268.757812 155.585938 268.257812 154.839844 C 266.757812 153.09375 263.882812 153.09375 262.507812 154.714844 C 261.632812 155.710938 256.132812 168.921875 255.132812 171.414062 C 254.882812 172.039062 254.007812 173.785156 253.882812 174.40625 Z M 253.882812 174.40625 " fill-opacity="1" fill-rule="evenodd"/><path fill="#f2cc5d" d="M 332.007812 174.40625 C 330.507812 174.40625 314.757812 176.027344 312.007812 176.152344 C 309.757812 176.277344 308.507812 177.894531 308.382812 179.640625 L 308.382812 180.265625 C 308.382812 181.261719 308.882812 182.132812 309.632812 182.882812 C 309.882812 183.132812 310.007812 183.132812 310.257812 183.253906 L 322.132812 193.726562 C 322.382812 193.972656 322.382812 193.972656 322.632812 194.222656 C 323.382812 194.847656 324.132812 195.59375 324.882812 196.09375 C 324.632812 196.714844 320.257812 216.160156 320.257812 216.78125 C 320.257812 218.652344 322.007812 220.523438 324.007812 220.523438 C 325.507812 220.523438 327.507812 219.027344 329.132812 218.152344 L 341.007812 211.050781 C 341.757812 210.550781 342.632812 210.050781 343.382812 209.554688 L 359.882812 219.398438 C 361.632812 220.398438 363.507812 221.269531 365.382812 219.398438 C 367.507812 217.40625 366.132812 214.914062 365.382812 211.671875 L 361.882812 196.09375 L 374.257812 185.375 C 375.632812 184.128906 378.382812 182.132812 378.382812 180.265625 C 378.382812 177.894531 377.132812 176.402344 374.882812 176.152344 L 354.757812 174.40625 C 354.632812 173.785156 348.132812 158.828125 347.632812 157.457031 C 347.132812 156.582031 346.882812 155.585938 346.257812 154.839844 C 344.882812 153.09375 342.007812 153.09375 340.507812 154.714844 C 339.757812 155.710938 334.257812 168.921875 333.257812 171.414062 C 332.882812 172.039062 332.132812 173.785156 332.007812 174.40625 Z M 332.007812 174.40625 " fill-opacity="1" fill-rule="evenodd"/></svg>