<svg xmlns="http://www.w3.org/2000/svg" xmlns:xlink="http://www.w3.org/1999/xlink" width="1000" zoomAndPan="magnify" viewBox="0 0 750 749.999995" height="1000" preserveAspectRatio="xMidYMid meet" version="1.0"><defs><clipPath id="4a188d1df9"><path d="M 37.5 0 L 712.5 0 L 712.5 750 L 37.5 750 Z M 37.5 0 " clip-rule="nonzero"/></clipPath></defs><g clip-path="url(#4a188d1df9)"><path fill="#ffffff" d="M 544.875 377.25 L 505.125 337.5 L 322.125 520.5 L 242.625 441 L 202.875 480.75 L 322.125 600 Z M 637.5 75 L 600 75 L 600 0 L 525 0 L 525 75 L 225 75 L 225 0 L 150 0 L 150 75 L 112.5 75 C 71.0625 75 37.875 108.5625 37.875 150 L 37.5 675 C 37.5 716.4375 71.0625 750 112.5 750 L 637.5 750 C 678.9375 750 712.5 716.4375 712.5 675 L 712.5 150 C 712.5 108.5625 678.9375 75 637.5 75 Z M 637.5 675 L 112.5 675 L 112.5 262.5 L 637.5 262.5 Z M 637.5 675 " fill-opacity="1" fill-rule="nonzero"/></g></svg>