<svg xmlns="http://www.w3.org/2000/svg" xmlns:xlink="http://www.w3.org/1999/xlink" width="500" zoomAndPan="magnify" viewBox="0 0 375 374.999991" height="500" preserveAspectRatio="xMidYMid meet" version="1.0"><defs><clipPath id="d50ebffb3f"><path d="M 187.5 0 C 83.945312 0 0 83.945312 0 187.5 C 0 291.054688 83.945312 375 187.5 375 C 291.054688 375 375 291.054688 375 187.5 C 375 83.945312 291.054688 0 187.5 0 " clip-rule="nonzero"/></clipPath><clipPath id="2227ef52ff"><path d="M 99 99.269531 L 276 99.269531 L 276 275.519531 L 99 275.519531 Z M 99 99.269531 " clip-rule="nonzero"/></clipPath><clipPath id="7358b84fc5"><path d="M 40.449219 99.269531 L 90 99.269531 L 90 275.519531 L 40.449219 275.519531 Z M 40.449219 99.269531 " clip-rule="nonzero"/></clipPath><clipPath id="e6137ca9c0"><path d="M 285 99.269531 L 334.449219 99.269531 L 334.449219 275.519531 L 285 275.519531 Z M 285 99.269531 " clip-rule="nonzero"/></clipPath></defs><g clip-path="url(#d50ebffb3f)"><rect x="-37.5" width="450" fill="#ffffff" y="-37.499999" height="449.999989" fill-opacity="1"/></g><g clip-path="url(#2227ef52ff)"><path fill="#f56d15" d="M 187.449219 99.269531 C 138.730469 99.269531 99.246094 138.71875 99.246094 187.394531 C 99.246094 236.066406 138.730469 275.515625 187.449219 275.515625 C 236.164062 275.515625 275.648438 236.066406 275.648438 187.394531 C 275.648438 138.71875 236.164062 99.269531 187.449219 99.269531 Z M 187.449219 255.933594 C 149.5625 255.933594 118.847656 225.257812 118.847656 187.394531 C 118.847656 149.53125 149.5625 118.855469 187.449219 118.855469 C 225.335938 118.855469 256.046875 149.53125 256.046875 187.394531 C 256.046875 225.257812 225.335938 255.933594 187.449219 255.933594 Z M 187.449219 255.933594 " fill-opacity="1" fill-rule="nonzero"/></g><path fill="#f56d15" d="M 246.246094 187.394531 C 246.246094 189.316406 246.152344 191.238281 245.964844 193.152344 C 245.777344 195.066406 245.492188 196.96875 245.117188 198.855469 C 244.742188 200.742188 244.273438 202.605469 243.714844 204.449219 C 243.15625 206.289062 242.507812 208.097656 241.773438 209.875 C 241.035156 211.652344 240.210938 213.390625 239.304688 215.085938 C 238.398438 216.785156 237.40625 218.433594 236.339844 220.03125 C 235.269531 221.632812 234.121094 223.175781 232.902344 224.664062 C 231.679688 226.152344 230.386719 227.574219 229.027344 228.933594 C 227.664062 230.296875 226.238281 231.585938 224.75 232.808594 C 223.261719 234.027344 221.714844 235.171875 220.117188 236.242188 C 218.515625 237.308594 216.863281 238.296875 215.164062 239.207031 C 213.46875 240.113281 211.730469 240.933594 209.949219 241.671875 C 208.171875 242.40625 206.359375 243.054688 204.515625 243.613281 C 202.671875 244.171875 200.808594 244.636719 198.917969 245.011719 C 197.03125 245.390625 195.128906 245.671875 193.210938 245.859375 C 191.292969 246.046875 189.375 246.140625 187.449219 246.140625 C 185.523438 246.140625 183.601562 246.046875 181.683594 245.859375 C 179.769531 245.671875 177.867188 245.390625 175.976562 245.011719 C 174.085938 244.636719 172.222656 244.171875 170.378906 243.613281 C 168.535156 243.054688 166.726562 242.40625 164.945312 241.671875 C 163.167969 240.933594 161.429688 240.113281 159.730469 239.207031 C 158.03125 238.296875 156.382812 237.308594 154.78125 236.242188 C 153.179688 235.171875 151.632812 234.027344 150.144531 232.808594 C 148.65625 231.585938 147.230469 230.296875 145.871094 228.933594 C 144.507812 227.574219 143.214844 226.152344 141.996094 224.664062 C 140.773438 223.175781 139.628906 221.632812 138.558594 220.03125 C 137.488281 218.433594 136.5 216.785156 135.589844 215.085938 C 134.683594 213.390625 133.859375 211.652344 133.125 209.875 C 132.386719 208.097656 131.738281 206.289062 131.179688 204.449219 C 130.621094 202.605469 130.152344 200.742188 129.777344 198.855469 C 129.402344 196.96875 129.121094 195.066406 128.929688 193.152344 C 128.742188 191.238281 128.648438 189.316406 128.648438 187.394531 C 128.648438 185.46875 128.742188 183.550781 128.929688 181.636719 C 129.121094 179.71875 129.402344 177.820312 129.777344 175.933594 C 130.152344 174.046875 130.621094 172.179688 131.179688 170.339844 C 131.738281 168.5 132.386719 166.6875 133.125 164.910156 C 133.859375 163.132812 134.683594 161.398438 135.589844 159.699219 C 136.5 158.003906 137.488281 156.355469 138.558594 154.753906 C 139.628906 153.15625 140.773438 151.613281 141.996094 150.125 C 143.214844 148.636719 144.507812 147.210938 145.871094 145.851562 C 147.230469 144.492188 148.65625 143.203125 150.144531 141.980469 C 151.632812 140.761719 153.179688 139.613281 154.78125 138.546875 C 156.382812 137.476562 158.03125 136.488281 159.730469 135.582031 C 161.429688 134.675781 163.167969 133.855469 164.945312 133.117188 C 166.726562 132.382812 168.535156 131.734375 170.378906 131.175781 C 172.222656 130.617188 174.085938 130.148438 175.976562 129.773438 C 177.867188 129.398438 179.769531 129.117188 181.683594 128.929688 C 183.601562 128.738281 185.523438 128.644531 187.449219 128.644531 C 189.375 128.644531 191.292969 128.738281 193.210938 128.929688 C 195.128906 129.117188 197.03125 129.398438 198.917969 129.773438 C 200.808594 130.148438 202.671875 130.617188 204.515625 131.175781 C 206.359375 131.734375 208.171875 132.382812 209.949219 133.117188 C 211.730469 133.855469 213.46875 134.675781 215.164062 135.582031 C 216.863281 136.488281 218.515625 137.476562 220.117188 138.546875 C 221.714844 139.613281 223.261719 140.761719 224.75 141.980469 C 226.238281 143.203125 227.664062 144.492188 229.027344 145.851562 C 230.386719 147.210938 231.679688 148.636719 232.902344 150.125 C 234.121094 151.613281 235.269531 153.15625 236.339844 154.753906 C 237.40625 156.355469 238.398438 158.003906 239.304688 159.699219 C 240.210938 161.398438 241.035156 163.132812 241.773438 164.910156 C 242.507812 166.6875 243.15625 168.5 243.714844 170.339844 C 244.273438 172.179688 244.742188 174.046875 245.117188 175.933594 C 245.492188 177.820312 245.777344 179.71875 245.964844 181.636719 C 246.152344 183.550781 246.246094 185.46875 246.246094 187.394531 Z M 246.246094 187.394531 " fill-opacity="1" fill-rule="nonzero"/><g clip-path="url(#7358b84fc5)"><path fill="#f56d15" d="M 79.648438 99.269531 L 79.648438 148.226562 L 69.847656 148.226562 L 69.847656 99.269531 L 60.046875 99.269531 L 60.046875 148.226562 L 50.246094 148.226562 L 50.246094 99.269531 L 40.449219 99.269531 L 40.449219 167.8125 L 60.046875 167.8125 L 60.046875 275.515625 L 69.847656 275.515625 L 69.847656 167.8125 L 89.449219 167.8125 L 89.449219 99.269531 Z M 79.648438 99.269531 " fill-opacity="1" fill-rule="nonzero"/></g><g clip-path="url(#e6137ca9c0)"><path fill="#f56d15" d="M 334.449219 138.4375 C 334.449219 116.808594 323.480469 99.269531 309.949219 99.269531 C 296.414062 99.269531 285.449219 116.808594 285.449219 138.4375 C 285.449219 157.394531 293.867188 173.1875 305.046875 176.820312 L 305.046875 275.515625 L 314.847656 275.515625 L 314.847656 176.820312 C 326.039062 173.1875 334.449219 157.394531 334.449219 138.4375 Z M 334.449219 138.4375 " fill-opacity="1" fill-rule="nonzero"/></g></svg>