<svg xmlns="http://www.w3.org/2000/svg" xmlns:xlink="http://www.w3.org/1999/xlink" width="500" zoomAndPan="magnify" viewBox="0 0 375 374.999991" height="500" preserveAspectRatio="xMidYMid meet" version="1.0"><defs><clipPath id="b1a1c57812"><path d="M 187.5 0 C 83.945312 0 0 83.945312 0 187.5 C 0 291.054688 83.945312 375 187.5 375 C 291.054688 375 375 291.054688 375 187.5 C 375 83.945312 291.054688 0 187.5 0 " clip-rule="nonzero"/></clipPath><clipPath id="91ce852a38"><path d="M 298 258 L 334.222656 258 L 334.222656 272 L 298 272 Z M 298 258 " clip-rule="nonzero"/></clipPath><clipPath id="9c3912c9ad"><path d="M 158 103.3125 L 224 103.3125 L 224 168 L 158 168 Z M 158 103.3125 " clip-rule="nonzero"/></clipPath></defs><g clip-path="url(#b1a1c57812)"><rect x="-37.5" width="450" fill="#ffffff" y="-37.499999" height="449.999989" fill-opacity="1"/></g><path fill="#f56d15" d="M 304.878906 271.992188 L 72.714844 271.992188 C 69.058594 271.992188 66.097656 269.023438 66.097656 265.363281 C 66.097656 204.144531 121.140625 154.335938 188.796875 154.335938 C 256.457031 154.335938 311.496094 204.144531 311.496094 265.363281 C 311.496094 269.027344 308.535156 271.992188 304.878906 271.992188 Z M 79.578125 258.734375 L 298.015625 258.734375 C 294.183594 207.902344 246.664062 167.585938 188.796875 167.585938 C 130.929688 167.585938 83.40625 207.90625 79.578125 258.734375 Z M 79.578125 258.734375 " fill-opacity="1" fill-rule="nonzero"/><g clip-path="url(#91ce852a38)"><path fill="#f56d15" d="M 327.460938 271.992188 L 304.878906 271.992188 C 301.226562 271.992188 298.265625 269.023438 298.265625 265.363281 C 298.265625 261.699219 301.226562 258.734375 304.878906 258.734375 L 327.460938 258.734375 C 331.117188 258.734375 334.078125 261.699219 334.078125 265.363281 C 334.078125 269.027344 331.117188 271.992188 327.460938 271.992188 Z M 327.460938 271.992188 " fill-opacity="1" fill-rule="nonzero"/></g><path fill="#f56d15" d="M 72.714844 271.992188 L 47.667969 271.992188 C 44.011719 271.992188 41.050781 269.023438 41.050781 265.363281 C 41.050781 261.699219 44.011719 258.734375 47.667969 258.734375 L 72.714844 258.734375 C 76.371094 258.734375 79.332031 261.699219 79.332031 265.363281 C 79.332031 269.027344 76.367188 271.992188 72.714844 271.992188 Z M 72.714844 271.992188 " fill-opacity="1" fill-rule="nonzero"/><path fill="#f56d15" d="M 304.878906 271.992188 L 72.714844 271.992188 C 69.058594 271.992188 66.097656 269.023438 66.097656 265.363281 C 66.097656 261.699219 69.058594 258.734375 72.714844 258.734375 L 304.878906 258.734375 C 308.535156 258.734375 311.496094 261.699219 311.496094 265.363281 C 311.496094 269.027344 308.535156 271.992188 304.878906 271.992188 Z M 304.878906 271.992188 " fill-opacity="1" fill-rule="nonzero"/><g clip-path="url(#9c3912c9ad)"><path fill="#f56d15" d="M 191.011719 167.59375 C 173.300781 167.59375 158.886719 153.167969 158.886719 135.417969 C 158.886719 117.679688 173.300781 103.246094 191.011719 103.246094 C 208.726562 103.246094 223.136719 117.675781 223.136719 135.417969 C 223.136719 153.167969 208.726562 167.59375 191.011719 167.59375 Z M 191.011719 116.5 C 180.59375 116.5 172.121094 124.992188 172.121094 135.417969 C 172.121094 145.855469 180.59375 154.34375 191.011719 154.34375 C 201.433594 154.34375 209.90625 145.855469 209.90625 135.417969 C 209.90625 124.992188 201.429688 116.5 191.011719 116.5 Z M 191.011719 116.5 " fill-opacity="1" fill-rule="nonzero"/></g><path fill="#f56d15" d="M 100.085938 245.898438 C 99.910156 245.898438 99.734375 245.894531 99.558594 245.878906 C 95.914062 245.585938 93.191406 242.394531 93.480469 238.742188 C 96.40625 201.707031 140.996094 182.863281 142.898438 182.070312 C 146.261719 180.699219 150.128906 182.285156 151.53125 185.664062 C 152.929688 189.039062 151.324219 192.917969 147.953125 194.320312 C 147.566406 194.484375 108.957031 210.882812 106.675781 239.792969 C 106.398438 243.265625 103.503906 245.898438 100.085938 245.898438 Z M 100.085938 245.898438 " fill-opacity="1" fill-rule="nonzero"/></svg>