<svg xmlns="http://www.w3.org/2000/svg" xmlns:xlink="http://www.w3.org/1999/xlink" width="500" zoomAndPan="magnify" viewBox="0 0 375 374.999991" height="500" preserveAspectRatio="xMidYMid meet" version="1.0"><defs><clipPath id="5333dfd1ea"><path d="M 187.5 0 C 83.945312 0 0 83.945312 0 187.5 C 0 291.054688 83.945312 375 187.5 375 C 291.054688 375 375 291.054688 375 187.5 C 375 83.945312 291.054688 0 187.5 0 " clip-rule="nonzero"/></clipPath><clipPath id="009db6a98c"><path d="M 67.109375 170 L 308.222656 170 L 308.222656 295.867188 L 67.109375 295.867188 Z M 67.109375 170 " clip-rule="nonzero"/></clipPath><clipPath id="32c2e457fc"><path d="M 227 79.125 L 242 79.125 L 242 179 L 227 179 Z M 227 79.125 " clip-rule="nonzero"/></clipPath><clipPath id="88154c6902"><path d="M 189.203125 79.195312 L 308.222656 79.195312 L 308.222656 178.128906 L 189.203125 178.128906 Z M 189.203125 79.195312 " clip-rule="nonzero"/></clipPath></defs><g clip-path="url(#5333dfd1ea)"><rect x="-37.5" width="450" fill="#ffffff" y="-37.499999" height="449.999989" fill-opacity="1"/></g><g clip-path="url(#009db6a98c)"><path fill="#f56d15" d="M 308.222656 175.476562 C 308.222656 199.320312 301.265625 221.558594 289.265625 240.28125 C 277.507812 258.628906 260.898438 273.578125 241.25 283.332031 L 241.25 290.515625 C 241.25 293.472656 238.847656 295.867188 235.890625 295.867188 L 187.667969 295.867188 L 187.667969 285.167969 L 230.53125 285.167969 L 230.53125 280.070312 C 230.496094 278.015625 231.65625 276.035156 233.640625 275.117188 L 235.890625 279.976562 L 233.648438 275.125 C 252.804688 266.296875 268.984375 252.121094 280.265625 234.515625 C 290.28125 218.890625 296.429688 200.546875 297.378906 180.828125 L 187.667969 180.828125 L 187.667969 170.125 L 302.867188 170.125 C 305.824219 170.125 308.222656 172.519531 308.222656 175.476562 Z M 187.667969 295.867188 L 139.445312 295.867188 C 136.484375 295.867188 134.085938 293.472656 134.085938 290.515625 L 134.085938 283.332031 C 114.433594 273.578125 97.824219 258.628906 86.066406 240.28125 C 74.066406 221.558594 67.109375 199.320312 67.109375 175.476562 C 67.109375 172.519531 69.507812 170.125 72.46875 170.125 L 187.667969 170.125 L 187.667969 180.828125 L 77.957031 180.828125 C 78.902344 200.546875 85.054688 218.890625 95.066406 234.515625 C 106.289062 252.027344 122.359375 266.144531 141.378906 274.984375 C 143.382812 275.761719 144.800781 277.699219 144.800781 279.976562 L 144.800781 285.167969 L 187.667969 285.167969 L 187.667969 295.867188 " fill-opacity="1" fill-rule="nonzero"/></g><g clip-path="url(#32c2e457fc)"><path fill="#f56d15" d="M 241.914062 84.753906 C 242.03125 81.8125 239.734375 79.332031 236.785156 79.214844 C 233.839844 79.101562 231.355469 81.390625 231.238281 84.335938 L 227.5 172.5625 C 227.386719 175.507812 229.679688 177.984375 232.628906 178.101562 C 235.578125 178.214844 238.058594 175.921875 238.175781 172.980469 L 241.914062 84.753906 " fill-opacity="1" fill-rule="nonzero"/></g><g clip-path="url(#88154c6902)"><path fill="#f56d15" d="M 306.257812 88.683594 C 308.546875 86.8125 308.882812 83.445312 307.007812 81.160156 C 305.136719 78.875 301.761719 78.535156 299.476562 80.40625 L 191.511719 168.632812 C 189.21875 170.5 188.886719 173.871094 190.757812 176.15625 C 192.628906 178.441406 196.003906 178.78125 198.292969 176.90625 L 306.257812 88.683594 " fill-opacity="1" fill-rule="nonzero"/></g></svg>