<svg xmlns="http://www.w3.org/2000/svg" xmlns:xlink="http://www.w3.org/1999/xlink" width="500" zoomAndPan="magnify" viewBox="0 0 375 374.999991" height="500" preserveAspectRatio="xMidYMid meet" version="1.0"><defs><clipPath id="8608fa07af"><path d="M 187.5 0 C 83.945312 0 0 83.945312 0 187.5 C 0 291.054688 83.945312 375 187.5 375 C 291.054688 375 375 291.054688 375 187.5 C 375 83.945312 291.054688 0 187.5 0 " clip-rule="nonzero"/></clipPath><clipPath id="380535f7dd"><path d="M 86.5625 69 L 286 69 L 286 308 L 86.5625 308 Z M 86.5625 69 " clip-rule="nonzero"/></clipPath></defs><g clip-path="url(#8608fa07af)"><rect x="-37.5" width="450" fill="#ffffff" y="-37.499999" height="449.999989" fill-opacity="1"/></g><g clip-path="url(#380535f7dd)"><path fill="#f56d15" d="M 275.921875 146.515625 C 273.425781 151.714844 268.890625 155.480469 262.9375 155.71875 C 256.804688 155.960938 252.457031 151.734375 247.691406 148.515625 C 236.894531 141.226562 225.304688 135.140625 213.328125 130.023438 C 186.429688 118.535156 157.359375 111.398438 128.070312 110.351562 C 117.8125 109.984375 102.808594 113.550781 98.433594 100.9375 C 96.921875 96.574219 97.347656 91.675781 99.941406 87.808594 C 103.027344 83.203125 107.71875 81.871094 112.945312 81.148438 C 140.5625 77.363281 169.238281 81.570312 195.765625 89.503906 C 223.523438 97.808594 251 110.925781 272.3125 130.890625 C 277.394531 135.65625 285.066406 128.011719 279.96875 123.234375 C 258.621094 103.226562 231.609375 89.660156 203.949219 80.710938 C 174.222656 71.097656 141.90625 66.273438 110.78125 70.605469 C 97.703125 72.425781 86.96875 81.375 86.726562 95.382812 C 86.554688 105.273438 92.277344 114.382812 100.851562 118.65625 C 101.332031 119.003906 101.898438 119.269531 102.550781 119.425781 C 104.253906 120.117188 106.050781 120.628906 107.921875 120.921875 C 114.949219 122.023438 122.445312 120.933594 129.5625 121.242188 C 137.613281 121.589844 145.636719 122.425781 153.585938 123.738281 C 170.40625 126.523438 186.957031 131.117188 202.832031 137.339844 C 218.242188 143.378906 233.101562 151.179688 246.539062 160.871094 C 248.882812 162.5625 251.40625 163.847656 253.996094 164.726562 C 249.355469 169.714844 244.71875 174.707031 240.078125 179.695312 C 238.578125 172.355469 233.363281 166.074219 225.589844 163.753906 C 214.6875 160.5 202.859375 167.152344 199.6875 177.996094 C 196.488281 188.914062 203.046875 200.71875 213.929688 203.898438 C 214.945312 204.199219 215.960938 204.410156 216.96875 204.546875 C 216.570312 204.976562 216.167969 205.410156 215.769531 205.839844 C 192.527344 230.832031 169.289062 255.824219 146.050781 280.8125 C 143.125 283.957031 140.203125 287.101562 137.277344 290.246094 C 134.675781 275.425781 132.074219 260.613281 129.476562 245.792969 C 124.40625 216.917969 119.339844 188.042969 114.269531 159.171875 C 113.101562 152.503906 111.929688 145.84375 110.761719 139.179688 C 109.5625 132.324219 99.121094 135.226562 100.316406 142.054688 C 103.515625 160.273438 106.710938 178.488281 109.910156 196.703125 C 114.980469 225.582031 120.046875 254.457031 125.117188 283.328125 C 126.285156 289.992188 127.457031 296.65625 128.625 303.320312 C 129.328125 307.34375 135.066406 308.515625 137.671875 305.707031 C 152.332031 289.945312 166.984375 274.183594 181.644531 258.425781 C 204.886719 233.433594 228.125 208.441406 251.363281 183.453125 C 256.707031 177.707031 262.050781 171.960938 267.398438 166.214844 C 267.554688 166.042969 267.699219 165.867188 267.832031 165.691406 C 275.074219 164.238281 281.601562 159.644531 285.28125 151.980469 C 288.28125 145.730469 278.945312 140.230469 275.921875 146.515625 Z M 210.121094 180.875 C 213.96875 168.472656 232.589844 174.164062 229.382812 186.785156 C 225.199219 199.148438 206.289062 193.242188 210.121094 180.875 Z M 210.121094 180.875 " fill-opacity="1" fill-rule="nonzero"/></g><path fill="#f56d15" d="M 153.769531 132.007812 C 142.867188 128.753906 131.039062 135.402344 127.867188 146.25 C 124.667969 157.164062 131.226562 168.96875 142.109375 172.152344 C 152.933594 175.320312 163.535156 169.152344 167.5625 159.132812 C 167.75 158.765625 167.90625 158.363281 168.019531 157.914062 C 168.167969 157.46875 168.257812 157.046875 168.300781 156.640625 C 170.371094 145.976562 164.507812 135.214844 153.769531 132.007812 Z M 138.3125 149.128906 C 142.15625 136.722656 160.78125 142.414062 157.574219 155.035156 C 153.390625 167.402344 134.476562 161.492188 138.3125 149.128906 Z M 138.3125 149.128906 " fill-opacity="1" fill-rule="nonzero"/><path fill="#f56d15" d="M 144.269531 223.351562 C 144.269531 234.710938 153.808594 244.253906 165.175781 244.253906 C 176.417969 244.253906 184.957031 235.421875 185.984375 224.65625 C 186.0625 224.25 186.09375 223.816406 186.074219 223.355469 C 186.09375 222.894531 186.0625 222.460938 185.984375 222.058594 C 184.957031 211.265625 176.421875 202.496094 165.171875 202.457031 C 153.808594 202.402344 144.269531 212.019531 144.269531 223.351562 Z M 175.25 223.351562 C 174.75 236.375 155.101562 236.320312 155.101562 223.351562 C 155.101562 210.394531 174.742188 210.308594 175.25 223.351562 Z M 175.25 223.351562 " fill-opacity="1" fill-rule="nonzero"/></svg>