<svg xmlns="http://www.w3.org/2000/svg" xmlns:xlink="http://www.w3.org/1999/xlink" width="500" zoomAndPan="magnify" viewBox="0 0 375 374.999991" height="500" preserveAspectRatio="xMidYMid meet" version="1.0"><defs><clipPath id="0ba7888ad7"><path d="M 187.5 0 C 83.945312 0 0 83.945312 0 187.5 C 0 291.054688 83.945312 375 187.5 375 C 291.054688 375 375 291.054688 375 187.5 C 375 83.945312 291.054688 0 187.5 0 " clip-rule="nonzero"/></clipPath><clipPath id="d2a97a144b"><path d="M 51 109.75 L 323.878906 109.75 L 323.878906 265 L 51 265 Z M 51 109.75 " clip-rule="nonzero"/></clipPath></defs><g clip-path="url(#0ba7888ad7)"><rect x="-37.5" width="450" fill="#ffffff" y="-37.499999" height="449.999989" fill-opacity="1"/></g><g clip-path="url(#d2a97a144b)"><path fill="#f56d15" d="M 320.796875 159.441406 C 323.320312 164.488281 323.058594 171.1875 318.269531 174.757812 C 304.859375 184.9375 294.234375 165.445312 290.75 155.523438 C 290.230469 153.957031 292.667969 153.347656 293.191406 154.828125 C 295.800781 162.136719 300.59375 175.367188 310.695312 174.410156 C 320.535156 169.1875 322.449219 164.054688 316.527344 158.832031 C 314.875 155.4375 312.175781 153.347656 308.34375 152.480469 C 305.46875 151.433594 302.332031 150.914062 299.371094 150.390625 C 298.328125 150.214844 298.152344 148.5625 299.113281 148.128906 C 302.683594 146.386719 306.164062 144.558594 309.476562 142.296875 C 315.484375 138.207031 318.007812 137.425781 317.75 130.375 C 319.230469 123.152344 315.484375 121.847656 306.601562 126.371094 C 304.164062 127.765625 301.898438 129.503906 299.722656 131.332031 C 296.761719 133.941406 294.234375 136.816406 291.882812 140.035156 C 290.925781 141.339844 288.75 140.035156 289.707031 138.730469 C 295.105469 131.59375 310.695312 114.363281 320.621094 124.542969 C 329.59375 133.683594 312.4375 144.039062 303.554688 148.648438 C 310.433594 150.304688 317.488281 152.914062 320.796875 159.441406 Z M 166.21875 236.628906 C 152.109375 240.285156 141.136719 236.195312 127.636719 233.585938 C 115.359375 231.148438 108.828125 233.238281 106.214844 218.007812 C 105.429688 213.222656 107.871094 208.085938 107 203.648438 C 105.691406 196.511719 99.855469 189.550781 112.746094 187.203125 C 113.703125 187.027344 113.878906 185.722656 113.269531 185.113281 C 113.179688 182.675781 113.007812 180.328125 112.921875 177.890625 C 114.488281 177.804688 114.574219 175.277344 112.921875 175.367188 C 109.4375 175.628906 108.652344 176.84375 107.695312 180.066406 C 105.605469 187.203125 114.050781 181.457031 103.863281 186.851562 C 99.683594 189.027344 98.984375 189.027344 97.246094 192.683594 C 97.070312 193.117188 99.246094 197.46875 98.984375 195.382812 C 99.246094 197.816406 100.726562 208.085938 101.425781 212.785156 C 103.253906 224.273438 102.992188 230.714844 115.96875 234.890625 C 123.804688 237.328125 132.253906 237.5 140.265625 239.414062 C 149.324219 241.589844 157.769531 241.417969 166.738281 239.066406 C 168.480469 238.632812 167.785156 236.195312 166.21875 236.628906 Z M 291.882812 177.019531 C 293.449219 183.71875 281.605469 198.6875 278.296875 202.691406 C 272.898438 209.21875 268.890625 213.484375 260.878906 216.007812 C 256.265625 217.484375 252.867188 217.921875 248.777344 220.445312 C 242.855469 224.097656 236.234375 227.492188 229.789062 230.886719 C 225.957031 232.890625 222.648438 236.890625 218.035156 237.675781 C 213.855469 238.457031 207.933594 236.980469 203.402344 237.414062 C 196.261719 238.023438 183.894531 243.765625 177.800781 239.503906 C 176.492188 238.546875 175.1875 240.722656 176.492188 241.679688 C 181.371094 245.070312 183.722656 243.765625 189.382812 242.808594 C 197.132812 241.503906 204.101562 239.589844 212.113281 239.675781 C 214.203125 239.675781 221.082031 241.242188 223.605469 240.113281 C 224.828125 239.589844 225.609375 238.371094 226.828125 237.761719 C 230.398438 236.023438 234.144531 233.585938 238.324219 231.757812 C 244.683594 229.058594 250.082031 221.835938 255.917969 219.488281 C 261.578125 217.222656 268.542969 218.703125 273.59375 214.699219 C 274.640625 213.832031 275.425781 212.699219 276.292969 211.742188 C 279.082031 208.871094 283 204.082031 285.4375 201.039062 C 290.664062 194.425781 296.152344 184.675781 294.234375 176.324219 C 293.972656 174.757812 291.535156 175.453125 291.882812 177.019531 Z M 218.644531 186.765625 C 218.46875 183.980469 215.683594 182.9375 213.242188 182.761719 C 211.675781 182.675781 211.675781 185.113281 213.242188 185.285156 C 214.113281 185.285156 214.984375 185.546875 215.683594 186.070312 L 215.683594 187.722656 C 215.421875 188.070312 214.289062 188.160156 213.855469 188.417969 C 212.894531 188.941406 212.285156 189.550781 211.851562 190.507812 C 211.414062 191.464844 211.414062 192.511719 211.328125 193.554688 C 211.242188 194.164062 211.328125 194.945312 211.066406 195.554688 C 210.371094 197.035156 208.800781 196.949219 208.105469 195.46875 C 207.496094 193.988281 205.320312 195.292969 205.929688 196.773438 C 206.800781 198.777344 209.324219 199.820312 211.414062 198.863281 C 213.941406 197.644531 213.59375 194.859375 213.941406 192.511719 C 214.464844 189.726562 218.90625 190.335938 218.644531 186.765625 Z M 256.875 189.464844 C 255.480469 188.679688 254.175781 190.855469 255.566406 191.640625 C 258.007812 192.945312 261.402344 192.25 262.796875 189.726562 C 264.191406 187.203125 263.058594 183.980469 260.621094 182.589844 C 259.226562 181.804688 257.917969 183.980469 259.3125 184.765625 C 262.621094 186.59375 260.183594 191.203125 256.875 189.464844 Z M 209.933594 220.355469 C 208.800781 219.226562 206.972656 221.054688 208.191406 222.097656 C 212.199219 225.925781 218.644531 222.097656 217.074219 216.703125 C 216.640625 215.136719 214.203125 215.832031 214.636719 217.398438 C 215.421875 220.355469 212.199219 222.53125 209.933594 220.355469 Z M 156.550781 217.398438 C 156.898438 218.964844 159.335938 218.269531 158.988281 216.703125 C 158.03125 212.613281 152.109375 212.351562 150.890625 216.441406 C 149.671875 220.617188 154.375 223.488281 157.855469 221.488281 C 159.25 220.707031 157.945312 218.53125 156.550781 219.3125 C 155.15625 220.097656 152.894531 219.574219 153.152344 217.660156 C 153.414062 215.570312 156.027344 215.398438 156.550781 217.398438 Z M 131.035156 204.78125 C 131.296875 205.300781 131.207031 206 130.511719 206.347656 C 127.375 208.085938 122.761719 205.5625 123.109375 201.734375 C 123.285156 199.734375 125.984375 199.734375 127.464844 200.167969 C 129.207031 200.691406 130.511719 202.082031 131.035156 203.824219 C 131.207031 204.171875 131.207031 204.519531 131.035156 204.78125 Z M 128.683594 204.34375 C 128.246094 203.039062 127.027344 202.34375 125.722656 202.515625 C 125.984375 203.734375 127.464844 204.605469 128.683594 204.34375 Z M 96.375 218.703125 C 80.785156 218.355469 81.21875 197.121094 81.308594 186.15625 C 81.308594 183.894531 81.480469 182.589844 81.832031 180.238281 C 82.351562 179.457031 82.789062 178.761719 83.3125 177.976562 C 83.222656 175.277344 83.136719 172.496094 83.050781 169.796875 C 83.136719 168.925781 82.960938 167.796875 83.222656 166.925781 C 84.617188 162.3125 88.363281 160.050781 92.453125 158.046875 C 91.0625 155.871094 90.363281 153 90.539062 149.433594 C 91.324219 134.292969 111.179688 126.980469 122.585938 122.367188 C 122.847656 122.28125 123.023438 122.195312 123.285156 122.109375 C 123.457031 121.671875 123.804688 121.410156 124.328125 121.324219 L 125.285156 121.324219 C 132.515625 118.539062 139.828125 116.277344 147.40625 114.535156 C 147.230469 114.449219 147.058594 114.363281 146.882812 114.1875 C 145.492188 113.316406 146.796875 111.144531 148.191406 112.011719 C 149.0625 112.535156 149.933594 113.144531 150.714844 113.753906 C 164.5625 110.882812 178.757812 109.925781 192.953125 111.316406 C 199.308594 111.925781 206.101562 112.882812 212.984375 114.101562 C 213.242188 113.144531 214.636719 112.621094 215.335938 113.753906 C 215.507812 114.101562 215.683594 114.363281 215.855469 114.710938 C 228.484375 117.234375 241.199219 120.976562 251.910156 126.808594 C 251.910156 126.632812 251.910156 126.371094 251.996094 126.109375 C 253.914062 121.585938 256.789062 117.582031 260.53125 114.363281 C 262.710938 112.449219 266.628906 108.878906 269.761719 110.011719 C 272.8125 111.144531 273.332031 115.582031 272.898438 118.277344 C 272.027344 123.152344 268.28125 126.546875 264.710938 129.503906 C 263.492188 130.550781 261.664062 128.808594 262.96875 127.765625 C 265.496094 125.589844 268.28125 123.414062 269.675781 120.367188 C 271.15625 117.058594 270.632812 110.621094 265.671875 113.753906 C 260.445312 116.972656 256.613281 121.757812 254.261719 127.328125 C 254.175781 127.503906 254.085938 127.675781 253.914062 127.765625 C 255.046875 128.460938 256.179688 129.070312 257.222656 129.851562 C 257.398438 130.027344 257.570312 130.199219 257.660156 130.375 C 259.574219 130.808594 261.402344 131.332031 263.320312 131.855469 L 263.40625 131.765625 C 268.890625 129.417969 277.253906 130.113281 282.214844 133.507812 C 285.351562 135.597656 284.394531 137.945312 282.304688 139.339844 C 286.660156 141.601562 290.839844 144.125 294.84375 147.082031 C 295.628906 147.605469 295.714844 148.738281 294.84375 149.257812 C 285.351562 155.175781 274.8125 154.21875 264.015625 156.132812 C 249.296875 158.746094 235.191406 164.140625 221.777344 170.667969 C 203.578125 179.457031 185.984375 193.726562 165.085938 195.207031 C 151.414062 196.164062 129.554688 190.507812 120.582031 179.019531 C 110.832031 166.578125 121.890625 155.785156 132.167969 148.5625 C 133.472656 147.605469 134.777344 149.78125 133.472656 150.738281 C 121.195312 156.742188 119.800781 167.445312 129.464844 182.761719 C 133.734375 185.199219 138.089844 187.203125 142.703125 188.941406 C 152.457031 192.421875 162.296875 193.726562 172.488281 191.464844 C 184.417969 188.855469 195.042969 182.152344 205.667969 176.148438 C 205.582031 176.0625 205.492188 175.976562 205.492188 175.886719 C 197.21875 158.484375 181.632812 146.214844 162.90625 142.472656 C 149.234375 146.648438 135.386719 151.523438 126.246094 163.007812 C 125.199219 164.3125 123.457031 162.488281 124.503906 161.269531 C 131.90625 151.957031 143.402344 145.34375 156.113281 140.558594 C 155.941406 139.773438 156.289062 138.992188 157.246094 139.078125 C 158.03125 139.164062 158.726562 139.25 159.511719 139.339844 C 160.035156 139.164062 160.644531 138.992188 161.167969 138.730469 C 161.078125 138.207031 161.339844 137.683594 162.039062 137.511719 C 164.039062 137.164062 165.957031 136.902344 167.699219 136.726562 C 181.632812 132.8125 196 130.460938 207.671875 128.808594 C 208.367188 128.722656 209.0625 128.632812 209.847656 128.546875 C 209.761719 128.460938 209.671875 128.285156 209.585938 128.023438 C 207.757812 122.542969 204.1875 117.929688 199.484375 114.625 C 199.308594 114.449219 199.136719 114.277344 199.050781 114.101562 C 188.859375 113.058594 178.933594 112.796875 170.222656 113.40625 C 164.5625 113.753906 158.902344 114.535156 153.328125 115.667969 C 159.078125 120.800781 163.082031 127.589844 164.824219 135.335938 C 165.171875 136.902344 162.734375 137.597656 162.386719 136.03125 C 160.644531 128.113281 156.464844 121.324219 150.191406 116.363281 C 143.921875 117.757812 137.738281 119.496094 131.644531 121.585938 C 141.398438 123.238281 149.84375 129.941406 153.589844 139.511719 C 154.199219 140.992188 151.761719 141.6875 151.152344 140.207031 C 147.058594 129.851562 136.78125 123.414062 125.808594 123.761719 C 119.886719 126.023438 114.050781 128.546875 108.480469 131.679688 C 105.082031 133.421875 101.949219 135.507812 98.988281 138.121094 C 98.027344 156.570312 103.339844 164.921875 115.011719 163.183594 C 116.664062 163.097656 116.578125 165.621094 115.011719 165.707031 C 107.433594 165.878906 98.8125 165.011719 94.023438 160.136719 C 82.179688 167.359375 78.433594 215.832031 96.285156 216.179688 C 98.027344 216.179688 98.027344 218.703125 96.375 218.703125 Z M 267.5 132.984375 C 271.679688 134.378906 275.683594 135.945312 279.691406 137.859375 C 280.734375 137.773438 281.085938 136.902344 280.648438 135.25 C 280.039062 134.898438 279.34375 134.640625 278.644531 134.464844 C 277.425781 134.03125 276.292969 133.769531 275.074219 133.421875 C 272.464844 132.898438 269.9375 132.636719 267.5 132.984375 Z M 261.578125 133.59375 C 256.351562 132.203125 251.039062 131.15625 245.726562 130.550781 C 251.738281 136.117188 255.132812 143.601562 255.132812 151.957031 C 255.132812 153.609375 252.605469 153.609375 252.605469 151.957031 C 252.605469 143.515625 248.863281 135.769531 242.070312 130.722656 C 241.808594 130.550781 241.722656 130.375 241.632812 130.113281 C 239.195312 129.941406 236.671875 129.765625 234.230469 129.679688 C 236.496094 131.246094 238.5 133.507812 240.242188 135.421875 C 244.507812 139.949219 247.644531 145.082031 247.644531 151.433594 C 247.644531 153.089844 245.117188 153.089844 245.117188 151.433594 C 245.117188 146.300781 242.765625 142.035156 239.457031 138.207031 C 236.933594 135.335938 232.054688 129.242188 227.699219 130.375 C 227.003906 130.550781 226.566406 130.199219 226.308594 129.679688 C 224.128906 129.765625 221.953125 129.851562 219.777344 130.027344 C 206.277344 130.984375 192.953125 133.769531 179.976562 137.335938 C 183.984375 138.292969 187.988281 140.035156 192.429688 142.820312 C 201.921875 148.648438 210.542969 154.828125 216.816406 164.140625 C 217.683594 165.445312 215.507812 166.75 214.636719 165.445312 C 209.324219 157.4375 202.097656 151.871094 194.085938 146.824219 C 186.769531 142.125 180.847656 139.597656 173.792969 139.164062 C 172.488281 139.597656 171.179688 139.949219 169.789062 140.382812 C 169.089844 140.644531 168.308594 140.816406 167.609375 141.078125 C 185.113281 145.863281 199.660156 157.875 207.671875 174.671875 C 207.757812 174.84375 207.757812 174.929688 207.757812 175.105469 C 208.628906 174.582031 209.5 174.148438 210.457031 173.625 C 230.835938 162.746094 251.910156 154.914062 274.902344 152.128906 C 281.433594 153.609375 286.308594 151.609375 289.445312 146.214844 C 286.570312 144.296875 283.609375 142.558594 280.5625 140.992188 L 279.515625 140.46875 C 279.34375 140.46875 279.082031 140.558594 278.90625 140.558594 C 278.210938 140.644531 277.773438 140.121094 277.6875 139.597656 C 272.550781 136.988281 267.0625 135.074219 261.578125 133.59375 Z M 217.164062 117.058594 C 218.46875 120.019531 219.253906 123.152344 219.425781 126.371094 C 219.515625 128.023438 216.988281 127.9375 216.902344 126.371094 C 216.640625 122.804688 215.683594 119.496094 214.027344 116.453125 C 210.542969 115.753906 206.972656 115.234375 203.492188 114.710938 C 207.410156 118.105469 210.28125 122.367188 212.023438 127.417969 C 212.113281 127.765625 212.113281 128.023438 211.9375 128.285156 C 225.085938 126.808594 238.238281 126.808594 250.953125 128.984375 C 241.199219 123.585938 229.441406 119.671875 217.164062 117.058594 Z M 101.511719 171.972656 C 99.335938 175.019531 101.597656 178.933594 105.257812 178.847656 C 106.824219 178.761719 106.910156 176.238281 105.257812 176.324219 C 103.425781 176.410156 102.644531 174.671875 103.6875 173.277344 C 104.648438 171.886719 102.46875 170.667969 101.511719 171.972656 Z M 65.804688 227.929688 C 63.105469 230.714844 58.664062 230.625 55.617188 228.363281 C 51.871094 225.578125 51.261719 220.53125 51.699219 216.265625 C 51.785156 215.398438 52.394531 214.960938 53.265625 215.050781 C 58.753906 215.832031 63.195312 219.75 64.847656 224.96875 C 64.933594 225.316406 64.933594 225.578125 64.847656 225.753906 C 65.894531 225.839844 66.675781 227.058594 65.804688 227.929688 Z M 63.628906 226.535156 C 63.195312 226.535156 62.671875 226.273438 62.496094 225.664062 C 61.191406 221.664062 58.054688 218.878906 54.136719 217.832031 C 53.960938 220.617188 54.398438 223.488281 56.3125 225.578125 C 58.144531 227.582031 61.453125 228.277344 63.628906 226.535156 Z M 89.40625 241.503906 C 85.574219 240.460938 86.53125 234.457031 90.277344 233.933594 C 90.625 233.847656 90.972656 234.019531 91.148438 234.195312 C 91.410156 234.105469 91.757812 234.105469 92.019531 234.28125 C 95.503906 236.195312 93.324219 242.546875 89.40625 241.503906 Z M 90.714844 236.542969 C 90.625 236.542969 90.625 236.457031 90.539062 236.457031 C 90.453125 236.457031 90.363281 236.542969 90.191406 236.542969 C 89.144531 236.628906 89.058594 238.894531 90.015625 239.15625 C 91.234375 239.414062 91.671875 237.066406 90.714844 236.542969 Z M 221.167969 263.433594 C 221.34375 264.21875 220.820312 265 219.949219 265 C 215.335938 264.914062 204.449219 265.433594 202.445312 259.691406 C 200.617188 254.46875 207.234375 253.601562 210.804688 253.949219 C 210.980469 253.253906 211.761719 252.554688 212.722656 252.902344 C 217.074219 254.90625 220.210938 258.734375 221.167969 263.433594 Z M 208.628906 261.34375 C 211.675781 262.214844 215.074219 262.390625 218.296875 262.476562 C 217.25 259.34375 215.074219 256.90625 211.9375 255.429688 C 211.761719 256.035156 211.242188 256.558594 210.457031 256.472656 C 209.414062 256.296875 206.277344 255.949219 205.582031 256.90625 C 204.796875 258.125 205.320312 259.867188 206.453125 260.476562 C 207.148438 260.910156 207.933594 261.171875 208.628906 261.34375 Z M 190.863281 253.863281 C 190.515625 253.601562 190.167969 253.511719 189.816406 253.601562 C 189.554688 252.46875 187.640625 252.121094 187.378906 253.511719 C 187.03125 255.253906 187.117188 256.90625 187.726562 258.648438 C 187.902344 259.082031 188.335938 259.605469 188.945312 259.605469 C 191.558594 259.167969 193.039062 255.6875 190.863281 253.863281 Z M 312.695312 199.992188 C 311.214844 200.515625 311.828125 202.953125 313.394531 202.429688 C 314.875 201.910156 316.355469 202.605469 316.964844 203.824219 C 316.179688 203.824219 315.308594 203.910156 314.527344 203.996094 C 313.566406 204.171875 312.609375 204.433594 311.738281 204.34375 C 311.128906 204.257812 309.039062 203.476562 310.085938 202.34375 C 311.214844 201.210938 309.476562 199.382812 308.34375 200.601562 C 306.773438 202.167969 307.210938 204.691406 308.953125 206 C 311.828125 208.085938 315.222656 205.476562 318.269531 206.519531 C 319.054688 206.78125 319.839844 206.085938 319.839844 205.300781 C 320.011719 201.734375 316.179688 198.777344 312.695312 199.992188 Z M 306.773438 216.703125 C 306.164062 216.355469 305.207031 216.527344 304.945312 217.398438 C 304.597656 218.964844 305.382812 220.445312 306.949219 220.707031 C 307.820312 220.878906 308.515625 220.355469 308.515625 219.488281 C 308.515625 218.878906 308.605469 218.269531 308.605469 217.660156 C 308.691406 216.617188 307.472656 216.265625 306.773438 216.703125 Z M 306.773438 216.703125 " fill-opacity="1" fill-rule="nonzero"/></g></svg>