<svg width="24" height="24" viewBox="0 0 24 24" fill="none" xmlns="http://www.w3.org/2000/svg">
<g clip-path="url(#clip0_113_253)">
<path d="M2.41734 17.551C2.59222 17.7863 2.92459 17.8353 3.16072 17.6609C3.42197 17.467 3.73122 17.3645 4.05534 17.3645C4.53722 17.3645 4.97772 17.5859 5.26447 17.9718C5.75847 18.6374 5.61884 19.581 4.95309 20.0751C4.71747 20.2501 4.66822 20.5828 4.84334 20.8183L6.90734 23.598C7.01134 23.7385 7.17197 23.8126 7.33447 23.8126C7.44447 23.8126 7.55547 23.7786 7.65072 23.708L23.7136 11.787C23.9492 11.6121 23.9985 11.2794 23.8233 11.0439L21.7593 8.264C21.6756 8.15075 21.55 8.07575 21.4106 8.05513C21.2715 8.035 21.1291 8.07 21.016 8.154C20.7547 8.34788 20.4453 8.45038 20.1213 8.45038C19.6395 8.45038 19.199 8.229 18.9122 7.84313C18.673 7.52063 18.5733 7.12425 18.6323 6.72713C18.691 6.32988 18.9008 5.97925 19.2236 5.74C19.3367 5.65613 19.4117 5.5305 19.4325 5.39113C19.453 5.25175 19.4175 5.10988 19.3333 4.99663L17.2691 2.21688C17.094 1.98138 16.7613 1.93213 16.5257 2.10688L0.462716 14.0279C0.349591 14.1119 0.274341 14.2374 0.253966 14.3768C0.233466 14.5161 0.268966 14.6579 0.352966 14.7711L2.41734 17.551ZM12.7746 6.21375L12.9332 6.42725C13.0113 6.53263 13.1317 6.58825 13.2533 6.58825C13.3358 6.58825 13.4192 6.56263 13.4905 6.50975C13.6675 6.37863 13.7042 6.12913 13.573 5.95238L13.4146 5.739L16.7325 3.2765L18.1958 5.24713C17.8683 5.616 17.6546 6.07225 17.5808 6.57138C17.4805 7.24938 17.6503 7.92588 18.059 8.47625C18.5408 9.12525 19.312 9.51275 20.1212 9.51275C20.4951 9.51275 20.8571 9.43313 21.1902 9.27975L22.6533 11.2505L19.3352 13.713L19.1767 13.4996C19.0457 13.3229 18.7963 13.2863 18.6192 13.4171C18.4425 13.5484 18.4057 13.7979 18.537 13.9745L18.6953 14.1879L7.44384 22.5381L5.98022 20.5671C6.76609 19.6781 6.85247 18.3281 6.11747 17.3384C5.63559 16.6893 4.86472 16.302 4.05522 16.302C3.68134 16.302 3.31934 16.3815 2.98634 16.535L1.52297 14.5643L12.7746 6.21375Z" fill="#FFCC4D"/>
<path d="M17.4162 12.4651C17.4943 12.5704 17.6147 12.626 17.7365 12.626C17.819 12.626 17.9022 12.6005 17.9738 12.5475C18.1506 12.4162 18.1875 12.1667 18.0561 11.9901L16.9352 10.4806C16.8042 10.304 16.555 10.2674 16.3777 10.3982C16.201 10.5295 16.1642 10.779 16.2955 10.9556L17.4162 12.4651Z" fill="#FFCC4D"/>
<path d="M15.1747 9.44613C15.2528 9.5515 15.3732 9.60713 15.495 9.60713C15.5775 9.60713 15.6607 9.5815 15.7325 9.52863C15.9091 9.39738 15.946 9.14788 15.8147 8.97125L14.6938 7.46175C14.5627 7.28513 14.3137 7.2485 14.1362 7.37925C13.9596 7.5105 13.9227 7.76013 14.054 7.93675L15.1747 9.44613Z" fill="#FFCC4D"/>
<path d="M4.86153 10.1033C4.93978 10.1441 5.02391 10.1635 5.10666 10.1635C5.29841 10.1635 5.48366 10.0595 5.57841 9.87775L7.74391 5.72638L7.92191 5.81913C7.98078 5.85 8.04353 5.8645 8.10578 5.8645C8.24953 5.8645 8.38841 5.78638 8.45953 5.65013C8.56116 5.455 8.48553 5.21425 8.29041 5.11263L8.11253 5.01988L10.0233 1.35688L12.1999 2.49175C12.0653 2.97075 12.0733 3.47875 12.2285 3.964C12.318 4.24325 12.6169 4.3975 12.8965 4.308C13.1763 4.2185 13.3302 3.9195 13.2409 3.64C13.1174 3.25488 13.1524 2.84525 13.3395 2.48663C13.4752 2.2265 13.3743 1.9055 13.114 1.76988L10.0435 0.169126C9.91841 0.103876 9.77216 0.0908761 9.63853 0.133501C9.50391 0.175751 9.39178 0.269626 9.32666 0.394501L4.63603 9.3865C4.50028 9.64663 4.60128 9.96763 4.86153 10.1033Z" fill="#FFCC4D"/>
<path d="M0.301653 18.8445L3.37215 20.4454C3.44865 20.4854 3.5329 20.5055 3.61778 20.5055C3.67153 20.5055 3.72528 20.4974 3.7774 20.481C3.91178 20.4388 4.0239 20.3449 4.08903 20.2198C4.25765 19.8964 4.53753 19.6458 4.87753 19.514C5.15103 19.408 5.28665 19.1001 5.18053 18.8266C5.07453 18.5528 4.76615 18.4173 4.49303 18.5234C4.0804 18.6834 3.71928 18.9463 3.44165 19.2833L1.26428 18.1481L1.57015 17.5614C1.70578 17.3013 1.6049 16.9804 1.34465 16.8449C1.08415 16.7098 0.763403 16.8105 0.627778 17.0704L0.0761533 18.1278C0.0110283 18.2526 -0.00197167 18.3985 0.0402783 18.5328C0.0825283 18.6673 0.176528 18.7794 0.301653 18.8445Z" fill="#FFCC4D"/>
<path d="M10.5579 21.808L10.0717 22.7402L9.81769 22.6077C9.55694 22.4726 9.23644 22.573 9.10082 22.8332C8.96519 23.0934 9.06607 23.4144 9.32632 23.55L10.0514 23.928C10.1281 23.9679 10.2123 23.9881 10.2972 23.9881C10.3509 23.9881 10.4047 23.98 10.4568 23.9636C10.5912 23.9212 10.7033 23.8274 10.7683 23.7024L11.5003 22.2996C11.6359 22.0394 11.5351 21.7185 11.2748 21.5829C11.0152 21.4471 10.6939 21.5482 10.5579 21.808Z" fill="#FFCC4D"/>
<path d="M9.49747 5.742C9.30209 5.6405 9.06184 5.71625 8.95984 5.9115C8.85834 6.10675 8.93409 6.34737 9.12947 6.44887L9.42634 6.60362C9.48522 6.63437 9.54834 6.649 9.61059 6.649C9.75422 6.649 9.89309 6.57112 9.96422 6.43487C10.0658 6.23975 9.99047 5.99912 9.79534 5.89737L9.49747 5.742Z" fill="#FFCC4D"/>
</g>
<defs>
<clipPath id="clip0_113_253">
<rect width="24" height="24" fill="white"/>
</clipPath>
</defs>
</svg>
