<svg width="24" height="24" viewBox="0 0 24 24" fill="none" xmlns="http://www.w3.org/2000/svg">
<g clip-path="url(#clip0_32_99)">
<path d="M2.41734 17.5511C2.59222 17.7863 2.92459 17.8353 3.16072 17.6609C3.42197 17.4671 3.73122 17.3646 4.05534 17.3646C4.53722 17.3646 4.97772 17.5859 5.26447 17.9718C5.75847 18.6374 5.61884 19.5811 4.95309 20.0752C4.71747 20.2502 4.66822 20.5828 4.84334 20.8183L6.90734 23.5981C7.01134 23.7386 7.17197 23.8127 7.33447 23.8127C7.44447 23.8127 7.55547 23.7787 7.65072 23.7081L23.7136 11.7871C23.9492 11.6122 23.9985 11.2794 23.8233 11.0439L21.7593 8.26405C21.6756 8.1508 21.55 8.0758 21.4106 8.05517C21.2715 8.03505 21.1291 8.07005 21.016 8.15405C20.7547 8.34792 20.4453 8.45042 20.1213 8.45042C19.6395 8.45042 19.199 8.22905 18.9122 7.84317C18.673 7.52067 18.5733 7.1243 18.6323 6.72717C18.691 6.32992 18.9008 5.9793 19.2236 5.74005C19.3367 5.65617 19.4117 5.53055 19.4325 5.39117C19.453 5.2518 19.4175 5.10992 19.3333 4.99667L17.2691 2.21692C17.094 1.98142 16.7613 1.93217 16.5257 2.10692L0.462716 14.0279C0.349591 14.1119 0.274341 14.2374 0.253966 14.3768C0.233466 14.5162 0.268966 14.6579 0.352966 14.7712L2.41734 17.5511ZM12.7746 6.2138L12.9332 6.4273C13.0113 6.53267 13.1317 6.5883 13.2533 6.5883C13.3358 6.5883 13.4192 6.56267 13.4905 6.5098C13.6675 6.37867 13.7042 6.12917 13.573 5.95242L13.4146 5.73905L16.7325 3.27655L18.1958 5.24717C17.8683 5.61605 17.6546 6.0723 17.5808 6.57142C17.4805 7.24942 17.6503 7.92592 18.059 8.4763C18.5408 9.1253 19.312 9.5128 20.1212 9.5128C20.4951 9.5128 20.8571 9.43317 21.1902 9.2798L22.6533 11.2506L19.3352 13.713L19.1767 13.4997C19.0457 13.3229 18.7963 13.2863 18.6192 13.4172C18.4425 13.5484 18.4057 13.7979 18.537 13.9746L18.6953 14.1879L7.44384 22.5382L5.98022 20.5672C6.76609 19.6782 6.85247 18.3282 6.11747 17.3384C5.63559 16.6893 4.86472 16.3021 4.05522 16.3021C3.68134 16.3021 3.31934 16.3816 2.98634 16.5351L1.52297 14.5643L12.7746 6.2138Z" fill="#A6A6A6"/>
<path d="M17.4162 12.4651C17.4943 12.5704 17.6147 12.626 17.7365 12.626C17.819 12.626 17.9022 12.6005 17.9738 12.5475C18.1506 12.4162 18.1875 12.1667 18.0561 11.9901L16.9352 10.4806C16.8042 10.304 16.555 10.2674 16.3777 10.3982C16.201 10.5295 16.1642 10.779 16.2955 10.9556L17.4162 12.4651Z" fill="#A6A6A6"/>
<path d="M15.1747 9.4461C15.2528 9.55147 15.3732 9.6071 15.495 9.6071C15.5775 9.6071 15.6607 9.58147 15.7325 9.5286C15.9091 9.39735 15.946 9.14785 15.8147 8.97122L14.6938 7.46172C14.5627 7.2851 14.3137 7.24847 14.1362 7.37922C13.9596 7.51047 13.9227 7.7601 14.054 7.93672L15.1747 9.4461Z" fill="#A6A6A6"/>
<path d="M4.86153 10.1032C4.93978 10.1441 5.02391 10.1635 5.10666 10.1635C5.29841 10.1635 5.48366 10.0595 5.57841 9.87771L7.74391 5.72633L7.92191 5.81908C7.98078 5.84996 8.04353 5.86446 8.10578 5.86446C8.24953 5.86446 8.38841 5.78633 8.45953 5.65008C8.56116 5.45496 8.48553 5.21421 8.29041 5.11258L8.11253 5.01983L10.0233 1.35683L12.1999 2.49171C12.0653 2.97071 12.0733 3.47871 12.2285 3.96396C12.318 4.24321 12.6169 4.39746 12.8965 4.30796C13.1763 4.21846 13.3302 3.91946 13.2409 3.63996C13.1174 3.25483 13.1524 2.84521 13.3395 2.48658C13.4752 2.22646 13.3743 1.90546 13.114 1.76983L10.0435 0.16908C9.91841 0.10383 9.77216 0.0908303 9.63853 0.133455C9.50391 0.175705 9.39178 0.26958 9.32666 0.394455L4.63603 9.38646C4.50028 9.64658 4.60128 9.96758 4.86153 10.1032Z" fill="#A6A6A6"/>
<path d="M0.301653 18.8445L3.37215 20.4454C3.44865 20.4854 3.5329 20.5055 3.61778 20.5055C3.67153 20.5055 3.72528 20.4974 3.7774 20.481C3.91178 20.4388 4.0239 20.3449 4.08903 20.2198C4.25765 19.8964 4.53753 19.6458 4.87753 19.514C5.15103 19.408 5.28665 19.1002 5.18053 18.8267C5.07453 18.5528 4.76615 18.4173 4.49303 18.5234C4.0804 18.6834 3.71928 18.9463 3.44165 19.2833L1.26428 18.1482L1.57015 17.5614C1.70578 17.3013 1.6049 16.9804 1.34465 16.8449C1.08415 16.7098 0.763403 16.8105 0.627778 17.0704L0.0761533 18.1278C0.0110283 18.2527 -0.00197167 18.3985 0.0402783 18.5328C0.0825283 18.6673 0.176528 18.7794 0.301653 18.8445Z" fill="#A6A6A6"/>
<path d="M10.5579 21.808L10.0717 22.7403L9.81769 22.6078C9.55694 22.4727 9.23644 22.573 9.10082 22.8333C8.96519 23.0934 9.06607 23.4144 9.32632 23.55L10.0514 23.928C10.1281 23.9679 10.2123 23.9882 10.2972 23.9882C10.3509 23.9882 10.4047 23.98 10.4568 23.9637C10.5912 23.9213 10.7033 23.8274 10.7683 23.7024L11.5003 22.2997C11.6359 22.0394 11.5351 21.7185 11.2748 21.5829C11.0152 21.4472 10.6939 21.5483 10.5579 21.808Z" fill="#A6A6A6"/>
<path d="M9.49747 5.74195C9.30209 5.64045 9.06184 5.7162 8.95984 5.91145C8.85834 6.1067 8.93409 6.34733 9.12947 6.44883L9.42634 6.60358C9.48522 6.63433 9.54834 6.64895 9.61059 6.64895C9.75422 6.64895 9.89309 6.57108 9.96422 6.43483C10.0658 6.2397 9.99047 5.99908 9.79534 5.89733L9.49747 5.74195Z" fill="#A6A6A6"/>
</g>
<defs>
<clipPath id="clip0_32_99">
<rect width="24" height="24" fill="white"/>
</clipPath>
</defs>
</svg>
