<svg xmlns="http://www.w3.org/2000/svg" xmlns:xlink="http://www.w3.org/1999/xlink" width="500" zoomAndPan="magnify" viewBox="0 0 375 374.999991" height="500" preserveAspectRatio="xMidYMid meet" version="1.0"><defs><clipPath id="7b2af9fba3"><path d="M 31.363281 2 L 343.363281 2 L 343.363281 373 L 31.363281 373 Z M 31.363281 2 " clip-rule="nonzero"/></clipPath></defs><g clip-path="url(#7b2af9fba3)"><path fill="#f56d15" d="M 188.242188 2.226562 L 44.019531 2.226562 C 37.195312 2.226562 31.65625 7.761719 31.65625 14.578125 L 31.65625 360.421875 C 31.65625 367.238281 37.195312 372.773438 44.019531 372.773438 L 332.464844 372.773438 C 339.289062 372.773438 344.828125 367.238281 344.828125 360.421875 L 344.828125 187.5 C 344.828125 180.683594 339.289062 175.148438 332.464844 175.148438 C 325.644531 175.148438 320.105469 180.683594 320.105469 187.5 L 320.105469 348.070312 C 320.105469 348.070312 56.382812 348.070312 56.382812 348.070312 C 56.382812 348.070312 56.382812 26.929688 56.382812 26.929688 C 56.382812 26.929688 188.242188 26.929688 188.242188 26.929688 C 195.066406 26.929688 200.605469 21.398438 200.605469 14.578125 C 200.605469 7.761719 195.066406 2.226562 188.242188 2.226562 Z M 338.25 89.664062 C 343.085938 84.835938 343.085938 77.015625 338.25 72.1875 L 303.292969 37.257812 C 298.460938 32.425781 290.632812 32.425781 285.8125 37.257812 L 163.433594 159.523438 C 162.085938 160.882812 161.058594 162.539062 160.453125 164.351562 L 142.960938 216.761719 C 141.492188 221.195312 142.640625 226.085938 145.953125 229.394531 C 149.265625 232.707031 154.160156 233.867188 158.601562 232.386719 L 211.050781 214.921875 C 212.867188 214.316406 214.523438 213.289062 215.882812 211.929688 Z M 268.335938 89.664062 L 285.8125 107.128906 L 200.46875 192.402344 C 200.46875 192.402344 174.238281 201.136719 174.238281 201.136719 C 174.238281 201.136719 182.976562 174.9375 182.976562 174.9375 Z M 285.8125 72.1875 L 294.554688 63.453125 L 312.03125 80.917969 L 303.292969 89.664062 Z M 285.8125 72.1875 " fill-opacity="1" fill-rule="evenodd"/></g></svg>