<svg xmlns="http://www.w3.org/2000/svg" xmlns:xlink="http://www.w3.org/1999/xlink" viewBox="0 0 1467.64 217.58"><defs><style>.cls-1{fill:none;}.cls-2,.cls-6{fill:#ffcc4d;}.cls-2,.cls-4{fill-rule:evenodd;}.cls-3{clip-path:url(#clip-path);}.cls-4{fill:#ff1616;}.cls-5{isolation:isolate;}</style><clipPath id="clip-path" transform="translate(0 0.1)"><rect class="cls-1" width="392.5" height="214.5"/></clipPath></defs><g id="Layer_2" data-name="Layer 2"><g id="Layer_1-2" data-name="Layer 1"><path class="cls-2" d="M327.3,14.2c-12.5,3.1-25.2,5.6-38.1,7.7l-.6,19.4-6.7-7.9L279,43.2,274.8,24c-9.4,1.2-18.9,2.3-28.4,3.1l-1.5,8.8-7.3-8.2a543.23,543.23,0,0,1-66.3.5l-5.2,19.5-9.5-20.5-5.6-.6-3.5,5.2-.1-5.6a486.22,486.22,0,0,1-48.2-6.9l-9.3,14,1.3-15.6c-8.9-1.8-17.7-3.9-26.5-6.3a1195.67,1195.67,0,0,0-.1,188.3c10.4-2.4,20.7-4.5,31.1-6.3l.5-12.1,6.5,10.9c14.8-2.5,29.5-4.4,44.4-5.7l-.5-4.4,2.7,4.2c15.6-1.3,31.2-2,46.5-2.1l-.1-8.1,6.5,8a592.77,592.77,0,0,1,76.3,5.2l2.3-7.3,2.5,8c14.8,2,29.5,4.6,44.3,7.9A1224.42,1224.42,0,0,0,327.3,14.2Zm-81.7,125,.8-.4.7-.2.7-.4.7-.4,1-.5,1.4-.8.8-.4.7-.4.7-.5.7-.4.6-.6.7-.4.5-.4,3.5,5.2-.2.2-.7.5-1,.5-.7.6-.7.5-1,.5-.7.5-.8.4-1,.5-.7.5-.8.4-1,.5-.8.4-1.3.5-2.3-5.7ZM143,172.1c-1.1,2-10.1.2-14.2-1.7-3.3-1.7-6.8-3.6-9.8-4.3-6.4-1.7-13.3-.5-25.8,1.9-1.9.4-5.2,1.1-7.3-.8-1.2-1.2-1.4-2.9-1.4-4.8.1-8.8,6-11.8,5.5-17.4-.5-5.8-7-6.1-7.9-11.3-1.5-9.9,19.3-22.7,22.9-19.6,2.5,2.3-5.7,10.8-1.8,19.9,2.4,5.4,8.2,8.9,9.3,8.1.6-.5-.4-1.9-.4-5.1a15.11,15.11,0,0,1,1-6.4,11.07,11.07,0,0,1,10-6.4,11.21,11.21,0,0,1,7.4,3.3,15.29,15.29,0,0,1,7.4,6.2c3.6,6.4.2,13.3-.2,14.3-2.3,4.6-5,4.3-5.7,7.4C130.4,162.3,144.5,169.4,143,172.1ZM90.2,95.3,94,90.4l.2.1.1.2.6.2.1.2.4.1.2.2.5.2.1.2.6.2.2.2.6.2.2.2.5.2.2.2.2.1.4.4.2.1.4.4.5.2.4.4.2.1.4.4.5.2.4.4.5.4.5.2.4.4.5.2.4.4-3.5,5.1-.2-.1-.5-.4-.5-.2-.4-.4-.6-.2-.4-.4-.4-.4-.5-.2-.4-.4-.5-.2-.2-.2-.5-.2-.4-.4-.2-.1-.4-.4-.2-.1-.2-.2-.5-.2-.2-.2-.6-.2-.2-.2-.1-.1-.2-.2-.5-.2-.2-.2-.6-.2-.1-.2-.5-.2-.1-.2ZM105.7,106l3.5-5.2.1.1.5.4.5.4.6.2.7.5.5.4.6.2.7.5.5.4.7.4.7.5.6.2.7.5.7.5.7.4.5.4.7.5.6.2-3.3,5.4-.5-.4-.7-.4-.7-.5-.7-.4-.5-.4-.7-.5-.7-.4-.7-.5-.5-.4-.7-.4-.5-.4-.7-.5-.6-.2-.7-.5-.5-.4-.6-.2-.5-.4Zm15.9,10,3.1-5.4.7.4.7.5.7.4.8.6.7.4.8.6.7.5.8.4.7.5.8.4.8.6,1.5.7.8.6-3,5.5-.8-.6-1.8-.8-.7-.5-.8-.5-.8-.4-.6-.5-.8-.4-.8-.5-.7-.4-.8-.6-.7-.4-.8-.6Zm27.7,14.7-2.1-1-.8-.5-2.7-1.2-.8-.6-1.9-.8-.8-.6-2-1,2.9-5.5,2,1,.8.6,1.8.8.8.5,3.7,1.7.8.6,1.3.6Zm17.3,7.5-.6-.1-2.9-1.3-1.1-.4-6.9-3.1,2.5-5.7,6.8,3.1,1.1.4,2.7,1.2.6.1Zm18,6.2-.8-.4-1.1-.4-1-.2-1.1-.4-1-.2-1-.5-1-.2-1.1-.4-.8-.4-1.1-.4-.8-.4-1.1-.4-.1-.1,2.1-5.8.1.1,1.1.4.8.4,1,.2.8.4,1.1.4,1,.2.8.4,1.1.4,1,.2,1,.2.8.4,1.1.4Zm18.4,4.1h-.5l-1.2-.1-1-.2-1-.1-1-.2-1-.1-1.1-.4-1-.2-1-.1-1-.2-1.1-.4-1-.2-1-.2,1.4-6,1,.2,1.9.5,1,.1,1,.2,1.9.5,1,.1,1,.2,1,.1,1,.2,1,.1h.5Zm19.1,1.5-1,.1h-1.9l-1-.1h-1.9l-1-.1-1-.1h-1.9l-1-.1-1-.1-1-.1.7-6.2h.8l2,.2h1.6l1,.1h.8l1,.1,1-.1h3.5l.2,6.2Zm-44.9-38c-8.8-1.9-18-6.2-19.8-7-7.9-3.6-6.8-4.3-19.3-10.6-6.1-3.1-10.5-5-17.1-9.2-4.5-2.9-4-2.9-6.5-4.4-12-7-19.2-3.2-26.3-8.7C81.4,67,79,56.9,83,52.9c1.3-1.3,3.3-2.1,6.5-2.1,16.1-.5,26.9-1.2,36.8,2.5s7.6,8.6,18.1,12.9c1.7.7,14.3,5.7,19.4,1.4,2.7-2.3,1-5.2,4.4-8.1,3.6-3.1,9-2.7,10.5-2.6A16.78,16.78,0,0,1,190.6,64a54,54,0,0,1,14.6,4.9,41.87,41.87,0,0,1,14.5,10.5c2.4,2.6,11.3,12.9,8.1,21.2C223.1,112.6,195.5,116,177.2,112Zm61,36.2-1,.2-1,.1-1,.2-1.8.2-1,.2-1,.1-1,.1-1,.1-1,.1-.2.1-.6-6.2.1-.1,1-.1,1-.1h.8l.8-.2,1-.1.7-.1,1-.1.7-.1,1-.2,1.5-.4.7-.1.8-.4.6-.1,1.7,6-.6.1-.8.4-1,.2Zm53.5,28.3c-2.4-1.4-4.8-3.1-6.9-3.7a23.5,23.5,0,0,0-18.2,1.7c-2.9,1.7-4.9.6-6.3.6-8.6,0-20.2-3.9-20.6-9-.4-5.4,11.4-12.7,20.8-10.6a10.14,10.14,0,0,1,3.2,1.2,24.29,24.29,0,0,0,3.6.4,17.2,17.2,0,0,0,8.2-2c3-1.5,3-2.6,4.6-2.6,3,0,4.2,3.7,6,3.1s2.4-4.2,2.4-6.7c0-2-.5-3,0-3.6,1-1.1,3.6-.4,5.7.6,1.5-.5,5.1-1.3,8.1.5,3.8,2.4,4.2,8,4.2,13.2C306.6,168.5,305.6,184.9,291.7,176.5Zm-31.4-46.3.4-.5.7-.5.7-.7.6-.6.6-.6.7-.7.5-.7.7-.7.6-.6.6-.8.7-.7.6-.8.7-.7,4.9,3.8-.7.7-.6,1-.7.7-.7.7-.6,1-.7.7-.7.7-.7.7-.8.7-1.3,1.5-.7.5-.6.6Zm49.9-24.3-15,11.7L278.8,96.8l-21.9,15.9L245.7,97.2l20.8-15.6L250.6,60.8l15-12.1L282,70l21.3-16.1L315,69,293.7,84.9Z" transform="translate(0 0.1)"/><g class="cls-3"><path class="cls-2" d="M392.5,211.4a942,942,0,0,1,0-208.3A150.33,150.33,0,0,0,368.7.2L362,22.3,359-.1C348.9,0,338.8.9,331.2,3a772.83,772.83,0,0,1,0,208.3,114.3,114.3,0,0,0,21.2,2.9l1.9-6.7,2,6.9c6.3.1,13-.1,19.3-.6l1.5-15.9,3.7,15.5c4.2-.6,8.1-1.2,11.7-2ZM0,211.4A906.94,906.94,0,0,0,0,3.1c3.3-.7,7.1-1.3,11.4-1.9L17,7.6,17.1.7C22.2.2,27.7,0,33.2,0l1.3,4.2,1-4.2c3.2.1,6.2.2,9.2.5.6,6.2,1.9,18.6,1.9,19.3S49.8,7.2,51.2,1.2c3.7.6,7,1.2,10.1,1.9a772.83,772.83,0,0,0,0,208.3,67.32,67.32,0,0,1-12.7,2.1l-3.5-19-2.7,19.6c-4.2.4-8.6.4-12.9.4v-9.2l-4.2,5.5-4.2-13.2-3.5,16.3A155.12,155.12,0,0,1,0,211.4" transform="translate(0 0.1)"/></g><path class="cls-4" d="M310.2,105.9l-15,11.7L278.8,96.8l-21.9,15.9L245.7,97.2l20.8-15.6L250.6,60.8l15-12.1L282,70l21.3-16.1L315,69,293.7,84.9Z" transform="translate(0 0.1)"/><g class="cls-5"><g class="cls-5"><path class="cls-6" d="M453.47,93.49q-11.72-10.38-11.72-22.3,0-11.14,9-18.84,9.62-8.26,25-8.27H574a78.5,78.5,0,0,0,12.88-1.15,52.8,52.8,0,0,0,9.8-2.31v39.6L594.77,80V78.68q0-15.57-11.53-21.91A30.3,30.3,0,0,0,570,53.69H551.13V165a12,12,0,0,0,3.75,8.46,11.81,11.81,0,0,0,8.56,3.46h2.5v1.92h-69v-1.92h2.5a12.33,12.33,0,0,0,12.3-11.73V53.69h-36q-10.77,0-17.87,5.19-8.26,6-8.27,14.9t6,18.75Z" transform="translate(0 0.1)"/></g><g class="cls-5"><path class="cls-6" d="M658.93,122.13a16.52,16.52,0,0,1,1.54,7,23.62,23.62,0,0,1-.77,6.34,21.58,21.58,0,0,1-2.4,5.43q-3.56,5.77-12.21,7.12a16.59,16.59,0,0,1,6.73,3.75,28.49,28.49,0,0,1,6,7.49q7.2,12.32,11.05,15.86a10.6,10.6,0,0,0,7.31,2.79v1h-12q-12.5,0-17.88-2.79-7.68-3.93-11-13.55a57.62,57.62,0,0,1-1.49-5.86c-.42-2-.77-3.54-1.06-4.47a20.38,20.38,0,0,0-1-2.6,6.67,6.67,0,0,0-1.25-1.87,7.45,7.45,0,0,0-2.69-1.73v-1h1.54a9,9,0,0,0,8.36-5.1,15.87,15.87,0,0,0,1.78-5.81q.33-3.12.33-3.9v-1q-.66-12.69-10.95-12.68h-4.23v55.27a5.76,5.76,0,0,0,1.82,4.27,6,6,0,0,0,4.33,1.78h1.15v1H597.41v-1h1.25a5.93,5.93,0,0,0,4.28-1.73,6,6,0,0,0,1.88-4.23V118.57a5.9,5.9,0,0,0-3.08-5.28,6.48,6.48,0,0,0-3.08-.77h-1.25v-1H635Q653.84,111.56,658.93,122.13Z" transform="translate(0 0.1)"/><path class="cls-6" d="M672.39,177.88a5.84,5.84,0,0,0,4.28-1.78,6.17,6.17,0,0,0,1.87-4.27V118.57a6,6,0,0,0-2.6-4.9,5.74,5.74,0,0,0-3.55-1.15h-1.25v-1h42.58a35.92,35.92,0,0,0,7.35-.68,26.61,26.61,0,0,0,4.09-1v19.8h-1v-.77q0-7.7-5.58-10.77a13.49,13.49,0,0,0-6.44-1.63H698.24v26.82h10.48A10.11,10.11,0,0,0,719.1,132.7v-.38h1V159h-1v-.48a10.1,10.1,0,0,0-10.28-10.48H698.24v25.86h11.83a18.54,18.54,0,0,0,12.4-4.61,24.83,24.83,0,0,0,7.59-12.79h1l-3.65,22.3H671.14v-1Z" transform="translate(0 0.1)"/><path class="cls-6" d="M802.73,177.88h.77v1H767.07v-1h.86a3.83,3.83,0,0,0,3.17-1.3,3.88,3.88,0,0,0,1.06-2.4,6.53,6.53,0,0,0-.48-2.35l-3.75-8.94H747.36l-3.84,8.94a5.71,5.71,0,0,0-.48,2,5,5,0,0,0,.33,1.69,3.49,3.49,0,0,0,1.44,1.63,4.27,4.27,0,0,0,2.36.72H748v1H726.6v-1h.86a8.38,8.38,0,0,0,4.38-1.3,10.09,10.09,0,0,0,3.6-3.89l22.4-49.12q5.08-10.75,5.48-14.32h.86l30.47,63.34Q797.73,177.89,802.73,177.88Zm-53.25-19.8h16.43l-8.07-19.22Z" transform="translate(0 0.1)"/><path class="cls-6" d="M855.88,157.12q0,11.63-8.27,17.35t-22,5.72a49.77,49.77,0,0,1-14-1.78q-6.06-1.78-8.75-4.47a12.07,12.07,0,0,1-.86-4.57,28.38,28.38,0,0,1,.38-4.75,20.2,20.2,0,0,1,3.56-8.85h.86a8.16,8.16,0,0,0-.09,1.25,17.56,17.56,0,0,0,5.62,12.74q5.63,5.63,15.33,5.62,6.54,0,10-2.74c2.33-1.82,3.5-3.91,3.5-6.25a8.35,8.35,0,0,0-2.4-6,26.35,26.35,0,0,0-7.78-5l-15.67-7.31a19.69,19.69,0,0,1-9.61-8.36,18.47,18.47,0,0,1-2.41-9.32q0-10.38,7-15.77,5.86-4.41,15.57-4.42,6.35,0,16.25,1h7.49l-2.11,15.67h-1a10.38,10.38,0,0,0-4.14-8.55A16.42,16.42,0,0,0,831.9,115q-6.39,0-9.9,2.21a7.42,7.42,0,0,0-3.8,5.86q-.39,4.51,5.77,7.69a23.12,23.12,0,0,0,2.79,1.25l18,8.36Q855.88,145.49,855.88,157.12Z" transform="translate(0 0.1)"/><path class="cls-6" d="M935.08,112.52h-1.53a5.14,5.14,0,0,0-3.51,1.3,4.41,4.41,0,0,0-1.59,3.22v37.1q0,12.21-7.54,19.13t-21.2,6.92q-17.3,0-25.85-6.73t-8.56-19.23V117.32a4.48,4.48,0,0,0-1.49-3.46,5.22,5.22,0,0,0-3.6-1.34h-1.54v-1h33v1H890.1a5.11,5.11,0,0,0-3.56,1.3,4.54,4.54,0,0,0-1.53,3.31v36.72q0,10.1,4.61,15.76t12.88,5.68q8.26,0,12.93-5.34t4.66-14.85v-38a4.55,4.55,0,0,0-1.54-3.31,5.1,5.1,0,0,0-3.55-1.3h-1.54v-1h21.62Z" transform="translate(0 0.1)"/><path class="cls-6" d="M998.52,122.13a16.52,16.52,0,0,1,1.54,7,23.62,23.62,0,0,1-.77,6.34,21.58,21.58,0,0,1-2.4,5.43q-3.55,5.77-12.21,7.12a16.59,16.59,0,0,1,6.73,3.75,28.29,28.29,0,0,1,6,7.49q7.21,12.32,11,15.86a10.62,10.62,0,0,0,7.31,2.79v1h-12q-12.5,0-17.87-2.79-7.7-3.93-11-13.55a57.62,57.62,0,0,1-1.49-5.86c-.42-2-.77-3.54-1.06-4.47a19,19,0,0,0-1-2.6,6.67,6.67,0,0,0-1.25-1.87,7.45,7.45,0,0,0-2.69-1.73v-1h1.54a9,9,0,0,0,8.36-5.1,15.87,15.87,0,0,0,1.78-5.81c.22-2.08.34-3.38.34-3.9v-1q-.67-12.69-11-12.68h-4.23v55.27A5.76,5.76,0,0,0,966,176.1a6,6,0,0,0,4.33,1.78h1.15v1H937v-1h1.25a5.91,5.91,0,0,0,4.27-1.73,6,6,0,0,0,1.88-4.23V118.57a5.9,5.9,0,0,0-3.08-5.28,6.47,6.47,0,0,0-3.07-.77H937v-1h37.58Q993.43,111.56,998.52,122.13Z" transform="translate(0 0.1)"/><path class="cls-6" d="M1012,177.88a5.82,5.82,0,0,0,4.28-1.78,6.17,6.17,0,0,0,1.87-4.27V118.57a6,6,0,0,0-2.59-4.9,5.77,5.77,0,0,0-3.56-1.15h-1.25v-1h42.58a36.09,36.09,0,0,0,7.36-.68,26.71,26.71,0,0,0,4.08-1v19.8h-1v-.77q0-7.7-5.58-10.77a13.48,13.48,0,0,0-6.43-1.63h-13.94v26.82h10.47a10.13,10.13,0,0,0,10.39-10.58v-.38h1V159h-1v-.48a10.12,10.12,0,0,0-10.29-10.48h-10.57v25.86h11.82a18.52,18.52,0,0,0,12.4-4.61,24.83,24.83,0,0,0,7.59-12.79h1l-3.65,22.3h-56.23v-1Z" transform="translate(0 0.1)"/></g><g class="cls-5"><path class="cls-6" d="M1171.15,176.92a11.84,11.84,0,0,0,8.74-3.56,12.38,12.38,0,0,0,3.75-8.55V116.36h-51.52v49q0,19-9.23,33.83-9.62,15.57-30.56,17.88a26.49,26.49,0,0,1-4.62.38,65.61,65.61,0,0,1-20.18-3.65v-1.92q15.38-6,20.38-16.53a38.93,38.93,0,0,0,4-12.89,169.81,169.81,0,0,0,.77-17.1V58.11a12,12,0,0,0-3.75-8.45,11.81,11.81,0,0,0-8.55-3.47h-2.5V44.27h69v1.92h-2.5A11.35,11.35,0,0,0,1134,52a12.22,12.22,0,0,0-1.92,6v48.83h51.52V61.57a51.38,51.38,0,0,1,17.69-38.64,46,46,0,0,1,31.53-11.72,63.34,63.34,0,0,1,15,1.92v1.92a37.9,37.9,0,0,0-15.76,9.42q-4,3.86-7.11,13.84a42.91,42.91,0,0,0-1.73,11.44q-.2,6.45-.2,11.82V164.81a11.52,11.52,0,0,0,6,10.38,12.16,12.16,0,0,0,6.35,1.73h2.3v1.92h-68.82v-1.92Z" transform="translate(0 0.1)"/></g><g class="cls-5"><path class="cls-6" d="M1318.65,112.52h-1.54a5.18,5.18,0,0,0-3.51,1.3A4.4,4.4,0,0,0,1312,117v37.1q0,12.21-7.55,19.13t-21.19,6.92q-17.31,0-25.86-6.73t-8.55-19.23V117.32a4.48,4.48,0,0,0-1.49-3.46,5.24,5.24,0,0,0-3.61-1.34h-1.54v-1h33v1h-1.53a5.11,5.11,0,0,0-3.56,1.3,4.55,4.55,0,0,0-1.54,3.31v36.72q0,10.1,4.62,15.76t12.88,5.68q8.27,0,12.92-5.34t4.67-14.85v-38a4.59,4.59,0,0,0-1.54-3.31,5.11,5.11,0,0,0-3.56-1.3H1297v-1h21.63Z" transform="translate(0 0.1)"/><path class="cls-6" d="M1399.68,112.52a5.72,5.72,0,0,0-4.13,1.68,5.78,5.78,0,0,0-1.83,4.09v49.59a47.83,47.83,0,0,0,1,11l.29,1.35h-.87l-46-40.95V172a5.42,5.42,0,0,0,3,5.09,5.66,5.66,0,0,0,2.89.77h1.82v1h-35.18v-1h1.83a5.72,5.72,0,0,0,4.13-1.68,5.58,5.58,0,0,0,1.73-4.18V122.13a47,47,0,0,0-1-10.67l-.29-1.34h1l46,40.94V118.38a6,6,0,0,0-1.83-4.18,5.73,5.73,0,0,0-4.13-1.68h-1.83v-1h35.18v1Z" transform="translate(0 0.1)"/><path class="cls-6" d="M1444.86,116.27v55.65a6.15,6.15,0,0,0,6.15,6h1.25v1h-34.51v-1H1419a6.16,6.16,0,0,0,6.15-5.86V116.27h-9.51q-5.78.09-9,3.41t-3.27,9.08v.68l-1,.09v-19.8a23.22,23.22,0,0,0,4.85,1.15,39.69,39.69,0,0,0,6.49.58h42.58a38.65,38.65,0,0,0,6.44-.58,25.74,25.74,0,0,0,4.91-1.15v19.8l-1-.09v-.68q0-7.78-5.77-11a15.07,15.07,0,0,0-6.63-1.53Z" transform="translate(0 0.1)"/></g></g></g></g></svg>