<svg width="140" height="49" viewBox="0 0 140 49" fill="none" xmlns="http://www.w3.org/2000/svg">
<path fill-rule="evenodd" clip-rule="evenodd" d="M40.274 20.1584V0H0V20.1584H2.10281V29.1203H0V49H40.274V29.1203H38.1712V20.1584H40.274ZM24.8377 18.7885H21.6718V29.9511H24.8377V32.4696H15.4571V29.9511H18.5397V18.7885H15.4519V16.2595H24.8325L24.8377 18.7885ZM90.4861 15.6084V0H43.062V49H90.4861V33.4593H83.3438V32.2013H90.4861V16.869H83.3438V15.6084H90.4861ZM72.9001 32.48H61.9561V16.2595H72.8558V18.8119H65.109V22.8957H71.777V25.3699H65.109V29.9511H72.9001V32.48ZM140 18.8301L135.797 24.151H126.552V25.06H135.797L140 29.8209V49H100.359L93.2847 41.6503V7.06846L100.359 0H140V18.8301ZM114.224 30.1621C113.251 30.1638 112.538 29.7818 112.085 29.0161H112.08C111.632 28.2504 111.406 27.0662 111.402 25.4636V23.2551C111.396 22.5888 111.453 21.9235 111.572 21.2679C111.66 20.7504 111.836 20.2518 112.093 19.7938C112.302 19.408 112.614 19.0886 112.996 18.8717C113.377 18.6549 113.812 18.5493 114.25 18.5671C114.652 18.5585 115.053 18.6211 115.433 18.752C115.745 18.8674 116.023 19.059 116.241 19.3093C116.474 19.5731 116.646 19.8841 116.747 20.2209C116.871 20.6322 116.945 21.0574 116.965 21.4867H120.092C120.033 20.7038 119.852 19.9349 119.556 19.2078C119.295 18.5584 118.898 17.9724 118.391 17.4894C117.884 17.0065 117.28 16.6377 116.619 16.408C115.855 16.1458 115.052 16.0189 114.245 16.033C113.385 16.0161 112.533 16.1942 111.751 16.5538C111.018 16.9015 110.372 17.4098 109.862 18.041C109.319 18.7226 108.91 19.5013 108.658 20.3355C108.365 21.2931 108.221 22.2901 108.231 23.2915V25.4793C108.22 26.4739 108.356 27.4648 108.635 28.4197C108.87 29.2493 109.262 30.0263 109.789 30.709C110.293 31.3392 110.933 31.8461 111.663 32.1909C112.466 32.5511 113.339 32.729 114.219 32.7118C115.007 32.7218 115.792 32.5967 116.538 32.342C117.202 32.1184 117.812 31.76 118.33 31.2894C118.849 30.8188 119.264 30.2461 119.55 29.6073C119.857 28.9099 120.034 28.1623 120.071 27.4014H116.945C116.898 28.3737 116.637 29.0769 116.163 29.5109C115.624 29.9684 114.93 30.2015 114.224 30.1621Z" fill="#FFCC4D"/>
</svg>
