<svg xmlns="http://www.w3.org/2000/svg" xmlns:xlink="http://www.w3.org/1999/xlink" width="500" zoomAndPan="magnify" viewBox="0 0 375 374.999991" height="500" preserveAspectRatio="xMidYMid meet" version="1.0"><path fill="#f56d15" d="M 187.433594 375 C 186.035156 375 184.703125 374.714844 183.425781 374.148438 C 182.152344 373.582031 181.046875 372.78125 180.113281 371.742188 C 174.925781 366 53.285156 230.171875 53.285156 134.210938 C 53.285156 132.015625 53.339844 129.820312 53.449219 127.625 C 53.554688 125.433594 53.71875 123.242188 53.933594 121.058594 C 54.148438 118.875 54.417969 116.695312 54.742188 114.523438 C 55.066406 112.351562 55.441406 110.1875 55.871094 108.035156 C 56.296875 105.878906 56.78125 103.738281 57.3125 101.609375 C 57.847656 99.476562 58.433594 97.363281 59.070312 95.261719 C 59.707031 93.160156 60.398438 91.074219 61.136719 89.007812 C 61.878906 86.941406 62.667969 84.894531 63.507812 82.863281 C 64.347656 80.835938 65.238281 78.828125 66.179688 76.84375 C 67.117188 74.859375 68.105469 72.898438 69.140625 70.960938 C 70.175781 69.027344 71.257812 67.117188 72.386719 65.234375 C 73.515625 63.347656 74.6875 61.496094 75.90625 59.667969 C 77.128906 57.84375 78.390625 56.050781 79.699219 54.285156 C 81.007812 52.523438 82.359375 50.792969 83.75 49.09375 C 85.144531 47.398438 86.578125 45.734375 88.050781 44.109375 C 89.527344 42.480469 91.039062 40.890625 92.589844 39.339844 C 94.144531 37.785156 95.734375 36.273438 97.359375 34.800781 C 98.984375 33.324219 100.648438 31.890625 102.34375 30.496094 C 104.042969 29.105469 105.773438 27.753906 107.535156 26.445312 C 109.296875 25.140625 111.09375 23.875 112.917969 22.65625 C 114.742188 21.433594 116.597656 20.261719 118.480469 19.132812 C 120.363281 18.003906 122.273438 16.921875 124.207031 15.886719 C 126.144531 14.851562 128.105469 13.863281 130.089844 12.925781 C 132.074219 11.988281 134.078125 11.097656 136.105469 10.257812 C 138.132812 9.417969 140.179688 8.628906 142.25 7.886719 C 144.316406 7.148438 146.398438 6.460938 148.5 5.824219 C 150.597656 5.1875 152.714844 4.601562 154.84375 4.066406 C 156.972656 3.535156 159.113281 3.050781 161.265625 2.625 C 163.417969 2.195312 165.582031 1.820312 167.753906 1.5 C 169.921875 1.175781 172.101562 0.90625 174.285156 0.691406 C 176.46875 0.476562 178.660156 0.316406 180.851562 0.207031 C 183.042969 0.101562 185.238281 0.046875 187.433594 0.046875 C 189.625 0.046875 191.820312 0.101562 194.011719 0.207031 C 196.203125 0.316406 198.394531 0.476562 200.578125 0.691406 C 202.761719 0.90625 204.941406 1.175781 207.109375 1.5 C 209.28125 1.820312 211.445312 2.195312 213.597656 2.625 C 215.75 3.050781 217.890625 3.535156 220.019531 4.066406 C 222.148438 4.601562 224.265625 5.1875 226.363281 5.824219 C 228.464844 6.460938 230.546875 7.148438 232.617188 7.886719 C 234.683594 8.628906 236.730469 9.417969 238.757812 10.257812 C 240.785156 11.097656 242.792969 11.988281 244.777344 12.925781 C 246.761719 13.863281 248.71875 14.851562 250.65625 15.886719 C 252.59375 16.921875 254.5 18.003906 256.382812 19.132812 C 258.265625 20.261719 260.121094 21.433594 261.945312 22.65625 C 263.769531 23.875 265.566406 25.140625 267.328125 26.445312 C 269.089844 27.753906 270.820312 29.105469 272.519531 30.496094 C 274.214844 31.890625 275.878906 33.324219 277.503906 34.800781 C 279.128906 36.273438 280.71875 37.785156 282.273438 39.339844 C 283.824219 40.890625 285.339844 42.480469 286.8125 44.109375 C 288.285156 45.734375 289.71875 47.398438 291.113281 49.09375 C 292.503906 50.792969 293.855469 52.523438 295.164062 54.285156 C 296.472656 56.050781 297.734375 57.84375 298.957031 59.667969 C 300.175781 61.496094 301.351562 63.347656 302.480469 65.234375 C 303.609375 67.117188 304.691406 69.027344 305.726562 70.960938 C 306.761719 72.898438 307.746094 74.859375 308.6875 76.84375 C 309.625 78.828125 310.515625 80.835938 311.355469 82.863281 C 312.195312 84.894531 312.984375 86.941406 313.726562 89.007812 C 314.464844 91.074219 315.15625 93.160156 315.792969 95.261719 C 316.429688 97.363281 317.015625 99.476562 317.550781 101.609375 C 318.082031 103.738281 318.566406 105.878906 318.996094 108.035156 C 319.421875 110.1875 319.800781 112.351562 320.121094 114.523438 C 320.445312 116.695312 320.714844 118.875 320.929688 121.058594 C 321.144531 123.242188 321.308594 125.433594 321.414062 127.625 C 321.523438 129.820312 321.578125 132.015625 321.578125 134.210938 C 321.578125 230.171875 199.9375 366 194.75 371.742188 C 193.816406 372.78125 192.710938 373.582031 191.4375 374.148438 C 190.160156 374.714844 188.828125 375 187.433594 375 Z M 187.433594 19.738281 C 185.558594 19.738281 183.6875 19.789062 181.820312 19.882812 C 179.949219 19.976562 178.082031 20.113281 176.222656 20.300781 C 174.359375 20.484375 172.5 20.71875 170.648438 20.992188 C 168.796875 21.269531 166.953125 21.59375 165.117188 21.960938 C 163.285156 22.328125 161.457031 22.738281 159.640625 23.195312 C 157.828125 23.652344 156.023438 24.152344 154.234375 24.695312 C 152.441406 25.242188 150.664062 25.832031 148.902344 26.460938 C 147.140625 27.09375 145.394531 27.769531 143.667969 28.488281 C 141.9375 29.207031 140.226562 29.964844 138.535156 30.765625 C 136.84375 31.566406 135.171875 32.410156 133.523438 33.292969 C 131.871094 34.179688 130.242188 35.101562 128.636719 36.066406 C 127.03125 37.027344 125.453125 38.03125 123.894531 39.070312 C 122.339844 40.113281 120.808594 41.191406 119.308594 42.308594 C 117.804688 43.421875 116.328125 44.574219 114.882812 45.761719 C 113.433594 46.953125 112.019531 48.175781 110.628906 49.433594 C 109.242188 50.691406 107.886719 51.980469 106.566406 53.304688 C 105.242188 54.628906 103.949219 55.984375 102.695312 57.375 C 101.4375 58.761719 100.214844 60.179688 99.027344 61.625 C 97.839844 63.074219 96.6875 64.550781 95.570312 66.054688 C 94.457031 67.558594 93.378906 69.089844 92.335938 70.644531 C 91.296875 72.203125 90.296875 73.785156 89.332031 75.390625 C 88.367188 76.996094 87.445312 78.625 86.5625 80.273438 C 85.679688 81.925781 84.835938 83.597656 84.035156 85.292969 C 83.234375 86.984375 82.476562 88.695312 81.757812 90.425781 C 81.039062 92.15625 80.367188 93.902344 79.734375 95.664062 C 79.101562 97.425781 78.515625 99.203125 77.96875 100.996094 C 77.425781 102.789062 76.925781 104.59375 76.46875 106.40625 C 76.011719 108.222656 75.601562 110.050781 75.234375 111.886719 C 74.867188 113.722656 74.542969 115.566406 74.269531 117.421875 C 73.992188 119.273438 73.761719 121.128906 73.574219 122.996094 C 73.390625 124.859375 73.25 126.726562 73.15625 128.59375 C 73.0625 130.464844 73.015625 132.335938 73.011719 134.210938 C 73.011719 209.761719 161.136719 319.105469 187.433594 350.074219 C 213.730469 319.105469 301.851562 209.761719 301.851562 134.210938 C 301.851562 132.335938 301.800781 130.464844 301.707031 128.59375 C 301.613281 126.726562 301.472656 124.859375 301.289062 122.996094 C 301.101562 121.128906 300.871094 119.273438 300.59375 117.421875 C 300.320312 115.566406 299.996094 113.722656 299.628906 111.886719 C 299.265625 110.050781 298.851562 108.222656 298.394531 106.40625 C 297.941406 104.59375 297.4375 102.789062 296.894531 100.996094 C 296.347656 99.203125 295.761719 97.425781 295.128906 95.664062 C 294.496094 93.902344 293.824219 92.15625 293.105469 90.425781 C 292.386719 88.695312 291.628906 86.984375 290.828125 85.292969 C 290.027344 83.597656 289.183594 81.925781 288.300781 80.273438 C 287.417969 78.625 286.496094 76.996094 285.53125 75.390625 C 284.570312 73.785156 283.566406 72.203125 282.527344 70.644531 C 281.484375 69.089844 280.40625 67.558594 279.292969 66.054688 C 278.175781 64.550781 277.027344 63.074219 275.835938 61.625 C 274.648438 60.179688 273.425781 58.761719 272.171875 57.375 C 270.914062 55.984375 269.621094 54.628906 268.296875 53.304688 C 266.976562 51.980469 265.621094 50.691406 264.234375 49.433594 C 262.847656 48.175781 261.429688 46.953125 259.980469 45.761719 C 258.535156 44.574219 257.058594 43.421875 255.558594 42.308594 C 254.054688 41.191406 252.523438 40.113281 250.96875 39.070312 C 249.410156 38.03125 247.832031 37.027344 246.226562 36.066406 C 244.621094 35.101562 242.992188 34.179688 241.34375 33.292969 C 239.691406 32.410156 238.019531 31.566406 236.328125 30.765625 C 234.636719 29.964844 232.925781 29.207031 231.195312 28.488281 C 229.46875 27.769531 227.722656 27.09375 225.960938 26.460938 C 224.199219 25.832031 222.421875 25.242188 220.628906 24.695312 C 218.839844 24.152344 217.035156 23.652344 215.222656 23.195312 C 213.40625 22.738281 211.582031 22.328125 209.746094 21.960938 C 207.910156 21.59375 206.066406 21.269531 204.214844 20.992188 C 202.363281 20.71875 200.503906 20.484375 198.644531 20.300781 C 196.78125 20.113281 194.914062 19.976562 193.042969 19.882812 C 191.175781 19.789062 189.304688 19.738281 187.433594 19.738281 Z M 187.433594 188.488281 C 185.65625 188.488281 183.882812 188.398438 182.113281 188.226562 C 180.347656 188.050781 178.589844 187.789062 176.847656 187.445312 C 175.105469 187.097656 173.382812 186.664062 171.683594 186.148438 C 169.984375 185.632812 168.3125 185.035156 166.671875 184.355469 C 165.03125 183.675781 163.425781 182.914062 161.859375 182.078125 C 160.292969 181.238281 158.769531 180.328125 157.292969 179.339844 C 155.8125 178.351562 154.390625 177.292969 153.015625 176.167969 C 151.640625 175.039062 150.328125 173.847656 149.070312 172.589844 C 147.8125 171.332031 146.621094 170.015625 145.496094 168.644531 C 144.367188 167.269531 143.3125 165.84375 142.324219 164.363281 C 141.335938 162.886719 140.425781 161.363281 139.585938 159.796875 C 138.75 158.226562 137.992188 156.625 137.308594 154.980469 C 136.628906 153.339844 136.03125 151.667969 135.515625 149.964844 C 135 148.265625 134.570312 146.542969 134.222656 144.800781 C 133.875 143.054688 133.617188 141.300781 133.441406 139.53125 C 133.269531 137.761719 133.179688 135.988281 133.179688 134.210938 C 133.179688 132.433594 133.269531 130.660156 133.441406 128.890625 C 133.617188 127.121094 133.875 125.363281 134.222656 123.621094 C 134.570312 121.878906 135 120.15625 135.515625 118.453125 C 136.03125 116.753906 136.628906 115.082031 137.308594 113.441406 C 137.992188 111.796875 138.75 110.191406 139.585938 108.625 C 140.425781 107.058594 141.335938 105.535156 142.324219 104.054688 C 143.3125 102.578125 144.367188 101.152344 145.496094 99.777344 C 146.621094 98.402344 147.8125 97.089844 149.070312 95.832031 C 150.328125 94.574219 151.640625 93.382812 153.015625 92.253906 C 154.390625 91.125 155.8125 90.070312 157.292969 89.082031 C 158.769531 88.09375 160.292969 87.179688 161.859375 86.34375 C 163.425781 85.503906 165.03125 84.746094 166.671875 84.066406 C 168.3125 83.386719 169.984375 82.789062 171.683594 82.269531 C 173.382812 81.753906 175.105469 81.324219 176.847656 80.976562 C 178.589844 80.628906 180.347656 80.371094 182.113281 80.195312 C 183.882812 80.019531 185.65625 79.933594 187.433594 79.933594 C 189.207031 79.933594 190.980469 80.019531 192.75 80.195312 C 194.515625 80.371094 196.273438 80.628906 198.015625 80.976562 C 199.757812 81.324219 201.480469 81.753906 203.179688 82.269531 C 204.878906 82.789062 206.550781 83.386719 208.191406 84.066406 C 209.835938 84.746094 211.4375 85.503906 213.003906 86.34375 C 214.574219 87.179688 216.09375 88.09375 217.570312 89.082031 C 219.050781 90.070312 220.476562 91.125 221.847656 92.253906 C 223.222656 93.382812 224.535156 94.574219 225.792969 95.832031 C 227.050781 97.089844 228.242188 98.402344 229.367188 99.777344 C 230.496094 101.152344 231.550781 102.578125 232.539062 104.054688 C 233.527344 105.535156 234.4375 107.058594 235.277344 108.625 C 236.113281 110.191406 236.875 111.796875 237.554688 113.441406 C 238.234375 115.082031 238.832031 116.753906 239.347656 118.453125 C 239.863281 120.15625 240.292969 121.878906 240.640625 123.621094 C 240.988281 125.363281 241.246094 127.121094 241.421875 128.890625 C 241.597656 130.660156 241.683594 132.433594 241.683594 134.210938 C 241.679688 135.988281 241.59375 137.761719 241.417969 139.527344 C 241.242188 141.296875 240.980469 143.050781 240.628906 144.796875 C 240.28125 146.539062 239.851562 148.257812 239.332031 149.960938 C 238.816406 151.660156 238.21875 153.332031 237.539062 154.972656 C 236.855469 156.613281 236.097656 158.21875 235.257812 159.785156 C 234.421875 161.351562 233.507812 162.875 232.523438 164.351562 C 231.535156 165.828125 230.476562 167.253906 229.351562 168.628906 C 228.222656 170 227.03125 171.316406 225.777344 172.574219 C 224.519531 173.828125 223.207031 175.019531 221.832031 176.148438 C 220.460938 177.277344 219.035156 178.332031 217.558594 179.320312 C 216.082031 180.308594 214.558594 181.222656 212.992188 182.058594 C 211.425781 182.898438 209.824219 183.660156 208.183594 184.339844 C 206.542969 185.019531 204.871094 185.621094 203.171875 186.136719 C 201.472656 186.652344 199.753906 187.085938 198.011719 187.433594 C 196.269531 187.78125 194.515625 188.042969 192.746094 188.21875 C 190.980469 188.394531 189.207031 188.484375 187.433594 188.488281 Z M 187.433594 99.671875 C 186.300781 99.671875 185.171875 99.726562 184.046875 99.835938 C 182.921875 99.949219 181.804688 100.113281 180.695312 100.335938 C 179.585938 100.554688 178.492188 100.828125 177.410156 101.160156 C 176.328125 101.488281 175.265625 101.867188 174.21875 102.300781 C 173.175781 102.734375 172.15625 103.214844 171.15625 103.75 C 170.160156 104.28125 169.191406 104.863281 168.25 105.492188 C 167.3125 106.121094 166.40625 106.792969 165.53125 107.511719 C 164.65625 108.230469 163.820312 108.988281 163.019531 109.789062 C 162.21875 110.585938 161.460938 111.425781 160.746094 112.300781 C 160.027344 113.171875 159.355469 114.082031 158.726562 115.019531 C 158.097656 115.960938 157.519531 116.929688 156.984375 117.929688 C 156.453125 118.925781 155.96875 119.949219 155.535156 120.992188 C 155.105469 122.039062 154.722656 123.101562 154.394531 124.183594 C 154.066406 125.265625 153.792969 126.363281 153.570312 127.472656 C 153.351562 128.582031 153.183594 129.699219 153.074219 130.824219 C 152.964844 131.949219 152.910156 133.078125 152.910156 134.210938 C 152.910156 135.339844 152.964844 136.46875 153.074219 137.597656 C 153.183594 138.722656 153.351562 139.839844 153.570312 140.949219 C 153.792969 142.058594 154.066406 143.152344 154.394531 144.238281 C 154.722656 145.320312 155.105469 146.382812 155.535156 147.429688 C 155.96875 148.472656 156.453125 149.496094 156.984375 150.492188 C 157.519531 151.488281 158.097656 152.460938 158.726562 153.398438 C 159.355469 154.339844 160.027344 155.246094 160.746094 156.121094 C 161.460938 156.996094 162.21875 157.832031 163.019531 158.632812 C 163.820312 159.433594 164.65625 160.191406 165.53125 160.910156 C 166.40625 161.628906 167.3125 162.300781 168.25 162.929688 C 169.191406 163.558594 170.160156 164.136719 171.15625 164.671875 C 172.15625 165.203125 173.175781 165.6875 174.21875 166.121094 C 175.265625 166.554688 176.328125 166.933594 177.410156 167.261719 C 178.492188 167.589844 179.585938 167.867188 180.695312 168.085938 C 181.804688 168.308594 182.921875 168.472656 184.046875 168.582031 C 185.171875 168.695312 186.300781 168.75 187.433594 168.75 C 188.5625 168.75 189.691406 168.695312 190.816406 168.582031 C 191.941406 168.472656 193.058594 168.308594 194.167969 168.085938 C 195.277344 167.867188 196.371094 167.589844 197.453125 167.261719 C 198.535156 166.933594 199.597656 166.554688 200.644531 166.121094 C 201.6875 165.6875 202.707031 165.203125 203.707031 164.671875 C 204.703125 164.136719 205.671875 163.558594 206.613281 162.929688 C 207.550781 162.300781 208.460938 161.628906 209.332031 160.910156 C 210.207031 160.191406 211.042969 159.433594 211.84375 158.632812 C 212.644531 157.832031 213.402344 156.996094 214.117188 156.121094 C 214.835938 155.246094 215.507812 154.339844 216.136719 153.398438 C 216.765625 152.460938 217.34375 151.488281 217.878906 150.492188 C 218.410156 149.496094 218.894531 148.472656 219.328125 147.429688 C 219.761719 146.382812 220.140625 145.320312 220.46875 144.238281 C 220.796875 143.152344 221.070312 142.058594 221.292969 140.949219 C 221.511719 139.839844 221.679688 138.722656 221.789062 137.597656 C 221.898438 136.46875 221.957031 135.339844 221.957031 134.210938 C 221.953125 133.078125 221.898438 131.953125 221.785156 130.828125 C 221.671875 129.699219 221.507812 128.582031 221.285156 127.476562 C 221.0625 126.367188 220.789062 125.269531 220.460938 124.1875 C 220.128906 123.105469 219.75 122.042969 219.316406 121 C 218.882812 119.953125 218.398438 118.933594 217.867188 117.9375 C 217.332031 116.9375 216.753906 115.972656 216.125 115.03125 C 215.496094 114.089844 214.824219 113.183594 214.105469 112.308594 C 213.390625 111.433594 212.632812 110.597656 211.832031 109.800781 C 211.03125 109 210.195312 108.242188 209.324219 107.523438 C 208.449219 106.804688 207.542969 106.132812 206.601562 105.503906 C 205.664062 104.875 204.695312 104.292969 203.699219 103.761719 C 202.703125 103.226562 201.679688 102.742188 200.636719 102.3125 C 199.59375 101.878906 198.53125 101.496094 197.449219 101.167969 C 196.367188 100.839844 195.273438 100.5625 194.164062 100.339844 C 193.054688 100.121094 191.9375 99.953125 190.816406 99.839844 C 189.691406 99.730469 188.5625 99.671875 187.433594 99.671875 Z M 187.433594 99.671875 " fill-opacity="1" fill-rule="nonzero"/></svg>