<svg xmlns="http://www.w3.org/2000/svg" xmlns:xlink="http://www.w3.org/1999/xlink" width="500" zoomAndPan="magnify" viewBox="0 0 375 374.999991" height="500" preserveAspectRatio="xMidYMid meet" version="1.0"><path fill="#f56d15" d="M 300.734375 99.722656 C 316.417969 99.722656 316.46875 234.964844 316.46875 253.332031 C 316.46875 275.621094 282.613281 275.476562 282.613281 301.519531 C 282.613281 307.878906 282.601562 313.996094 282.589844 319.964844 C 283.753906 337.398438 300.496094 347.863281 312.492188 338.128906 C 324.488281 328.398438 323.617188 317.804688 326.003906 303.613281 C 331.261719 272.328125 361.628906 238.191406 364.738281 193.554688 C 368.234375 143.457031 360.800781 95.910156 331.992188 65.875 C 294.699219 26.996094 262.515625 47.230469 202.253906 31.082031 C 115.578125 7.863281 15.332031 62.183594 39.765625 193.554688 C 49.972656 248.394531 33.316406 299.148438 74.605469 326.871094 C 114.488281 353.640625 126.289062 316.816406 126.417969 309.347656 L 126.746094 290.296875 C 126.746094 285.042969 124.527344 282.359375 111.210938 272.222656 C 62.949219 235.46875 87.113281 98.011719 138.878906 98.011719 C 190.644531 98.007812 214.804688 235.46875 166.542969 272.222656 C 153.226562 282.359375 151.007812 285.042969 151.007812 290.304688 C 151.117188 296.550781 151.121094 296.625 151.328125 309.042969 C 151.539062 321.464844 155.210938 348.652344 175.957031 351.488281 C 177.691406 351.726562 184.90625 353.101562 186.671875 353.269531 C 193.246094 353.269531 196.308594 354.425781 202.253906 356.015625 C 212.027344 358.632812 218.355469 356.675781 230.335938 361.902344 C 242.316406 367.132812 258.910156 351.246094 258.90625 337.042969 C 258.894531 322.847656 258.839844 314.085938 258.839844 301.519531 C 258.839844 275.476562 224.984375 275.621094 224.984375 253.332031 C 224.984375 234.964844 225.035156 99.722656 240.71875 99.722656 C 242.527344 99.722656 245.402344 102.496094 245.402344 107.890625 L 245.402344 191.378906 C 245.375 203.390625 245.792969 212.570312 253.734375 212.570312 C 261.671875 212.570312 261.035156 196.1875 261.035156 191.066406 C 261.035156 189.703125 264.636719 110.007812 264.722656 108.75 C 265.167969 102.179688 266.324219 98.011719 270.726562 98.011719 C 275.125 98.007812 276.953125 102.179688 277.394531 108.75 C 277.476562 110.007812 280.417969 189.703125 280.417969 191.066406 C 280.417969 196.1875 279.78125 212.570312 287.71875 212.570312 C 295.660156 212.570312 296.074219 203.390625 296.046875 191.378906 L 296.046875 107.890625 C 296.046875 102.496094 298.925781 99.722656 300.734375 99.722656 Z M 11.339844 183.753906 C 18.421875 184.277344 21.433594 184.8125 23.738281 176.5 C 26.046875 168.191406 25.859375 152.96875 18.277344 153.023438 C 10.699219 153.082031 0.0117188 158.925781 2.667969 172.621094 C 4.210938 180.566406 4.261719 183.234375 11.339844 183.753906 Z M 25.027344 253.566406 C 30.835938 252.277344 31.296875 234.796875 30.628906 226.289062 C 29.960938 217.777344 29.34375 188.46875 15.164062 194.652344 C 0.988281 200.832031 2.148438 208.335938 8.414062 220.726562 C 12.046875 227.90625 19.222656 254.859375 25.027344 253.566406 Z M 369.15625 262.109375 C 363.703125 259.734375 357.683594 264.339844 353.214844 271.617188 C 348.738281 278.882812 331.960938 302.929688 347.0625 306.285156 C 362.164062 309.636719 371.53125 299.574219 373.769531 285.875 C 375.0625 277.933594 374.609375 264.484375 369.15625 262.109375 " fill-opacity="1" fill-rule="evenodd"/></svg>