<svg xmlns="http://www.w3.org/2000/svg" xmlns:xlink="http://www.w3.org/1999/xlink" width="1000" zoomAndPan="magnify" viewBox="0 0 750 749.999995" height="1000" preserveAspectRatio="xMidYMid meet" version="1.0"><path fill="#ffffff" d="M 637.457031 719.210938 L 649.78125 730.449219 L 642.792969 715.5 C 644.25 714.113281 645.773438 712.804688 647.367188 711.574219 L 725.195312 633.550781 C 726.308594 632.40625 727.359375 631.214844 728.355469 629.972656 C 729.351562 628.730469 730.285156 627.441406 731.15625 626.109375 C 732.027344 624.773438 732.832031 623.402344 733.570312 621.992188 C 734.308594 620.582031 734.976562 619.136719 735.578125 617.664062 C 736.175781 616.1875 736.703125 614.6875 737.15625 613.160156 C 737.613281 611.632812 737.992188 610.089844 738.296875 608.527344 C 738.601562 606.964844 738.832031 605.390625 738.984375 603.804688 C 739.140625 602.21875 739.214844 600.632812 739.214844 599.039062 C 739.214844 597.445312 739.140625 595.859375 738.984375 594.273438 C 738.832031 592.6875 738.601562 591.113281 738.296875 589.550781 C 737.992188 587.988281 737.613281 586.445312 737.15625 584.917969 C 736.703125 583.390625 736.175781 581.890625 735.578125 580.417969 C 734.976562 578.941406 734.308594 577.496094 733.570312 576.085938 C 732.832031 574.675781 732.027344 573.304688 731.15625 571.972656 C 730.285156 570.636719 729.351562 569.351562 728.355469 568.105469 C 727.359375 566.863281 726.308594 565.671875 725.195312 564.53125 L 628.628906 468.242188 C 627.5 467.117188 626.316406 466.054688 625.082031 465.046875 C 623.847656 464.039062 622.566406 463.097656 621.242188 462.214844 C 619.914062 461.335938 618.546875 460.519531 617.140625 459.773438 C 615.734375 459.023438 614.292969 458.347656 612.820312 457.738281 C 611.347656 457.132812 609.847656 456.597656 608.324219 456.140625 C 606.800781 455.679688 605.253906 455.292969 603.691406 454.984375 C 602.128906 454.675781 600.554688 454.441406 598.96875 454.285156 C 597.382812 454.132812 595.796875 454.054688 594.203125 454.054688 C 592.609375 454.054688 591.019531 454.132812 589.433594 454.285156 C 587.847656 454.441406 586.273438 454.675781 584.710938 454.984375 C 583.148438 455.292969 581.605469 455.679688 580.078125 456.140625 C 578.554688 456.597656 577.054688 457.132812 575.582031 457.738281 C 574.109375 458.347656 572.667969 459.023438 571.261719 459.773438 C 569.855469 460.519531 568.488281 461.335938 567.164062 462.214844 C 565.835938 463.097656 564.554688 464.039062 563.320312 465.046875 C 562.085938 466.054688 560.902344 467.117188 559.773438 468.242188 L 496.390625 530.882812 C 495.683594 531.566406 494.917969 532.179688 494.097656 532.726562 C 493.28125 533.269531 492.421875 533.742188 491.519531 534.136719 C 490.617188 534.53125 489.6875 534.84375 488.730469 535.070312 C 487.773438 535.300781 486.804688 535.445312 485.820312 535.503906 C 484.839844 535.566406 483.859375 535.539062 482.882812 535.421875 C 481.902344 535.308594 480.945312 535.109375 480 534.828125 C 479.058594 534.542969 478.148438 534.179688 477.269531 533.734375 C 476.390625 533.289062 475.558594 532.773438 474.773438 532.179688 C 429.296875 495.929688 385.839844 457.394531 344.410156 416.585938 C 303.390625 375.039062 264.824219 331.328125 228.710938 285.460938 C 228.050781 284.71875 227.46875 283.917969 226.960938 283.0625 C 226.449219 282.207031 226.027344 281.3125 225.6875 280.378906 C 225.347656 279.445312 225.097656 278.484375 224.9375 277.503906 C 224.777344 276.523438 224.710938 275.535156 224.738281 274.542969 C 224.765625 273.546875 224.882812 272.566406 225.097656 271.59375 C 225.308594 270.621094 225.609375 269.679688 225.996094 268.761719 C 226.386719 267.847656 226.855469 266.976562 227.410156 266.152344 C 227.964844 265.324219 228.589844 264.558594 229.285156 263.847656 L 292.773438 201.203125 C 293.886719 200.050781 294.945312 198.847656 295.941406 197.59375 C 296.941406 196.339844 297.875 195.042969 298.75 193.699219 C 299.621094 192.355469 300.429688 190.972656 301.167969 189.550781 C 301.910156 188.128906 302.578125 186.675781 303.179688 185.1875 C 303.78125 183.703125 304.308594 182.191406 304.765625 180.65625 C 305.21875 179.121094 305.601562 177.5625 305.90625 175.992188 C 306.210938 174.417969 306.441406 172.835938 306.59375 171.238281 C 306.75 169.644531 306.824219 168.046875 306.824219 166.441406 C 306.824219 164.839844 306.75 163.242188 306.59375 161.644531 C 306.441406 160.050781 306.210938 158.46875 305.90625 156.894531 C 305.601562 155.320312 305.21875 153.765625 304.765625 152.230469 C 304.308594 150.691406 303.78125 149.183594 303.179688 147.695312 C 302.578125 146.210938 301.910156 144.757812 301.167969 143.335938 C 300.429688 141.914062 299.621094 140.53125 298.75 139.1875 C 297.875 137.84375 296.941406 136.542969 295.941406 135.289062 C 294.945312 134.035156 293.886719 132.832031 292.773438 131.679688 L 196.171875 35.175781 C 195.003906 34.089844 193.785156 33.0625 192.519531 32.09375 C 191.253906 31.125 189.945312 30.214844 188.59375 29.367188 C 187.242188 28.519531 185.855469 27.734375 184.433594 27.015625 C 183.007812 26.296875 181.554688 25.648438 180.066406 25.066406 C 178.582031 24.484375 177.074219 23.972656 175.542969 23.53125 C 174.007812 23.089844 172.457031 22.71875 170.890625 22.421875 C 169.324219 22.128906 167.746094 21.90625 166.15625 21.753906 C 164.570312 21.605469 162.976562 21.53125 161.382812 21.53125 C 159.789062 21.53125 158.195312 21.605469 156.609375 21.753906 C 155.019531 21.90625 153.441406 22.128906 151.875 22.421875 C 150.308594 22.71875 148.757812 23.089844 147.226562 23.53125 C 145.691406 23.972656 144.183594 24.484375 142.699219 25.066406 C 141.214844 25.648438 139.757812 26.296875 138.335938 27.015625 C 136.910156 27.734375 135.523438 28.519531 134.171875 29.367188 C 132.820312 30.214844 131.511719 31.125 130.246094 32.09375 C 128.980469 33.0625 127.765625 34.089844 126.59375 35.175781 L 47.613281 114.929688 C 47.003906 115.601562 46.273438 116.082031 45.414062 116.371094 C 44.980469 117.308594 43.070312 120.730469 42.820312 121.019531 C 3.183594 178.65625 69.519531 344.933594 242.796875 518.167969 C 368.910156 645.003906 511.707031 729.800781 596.671875 729.800781 C 600.238281 729.976562 603.800781 729.878906 607.355469 729.515625 C 610.910156 729.148438 614.414062 728.515625 617.871094 727.621094 C 621.332031 726.722656 624.703125 725.566406 627.984375 724.160156 C 631.269531 722.75 634.425781 721.101562 637.457031 719.210938 Z M 637.457031 719.210938 " fill-opacity="1" fill-rule="nonzero"/></svg>