<svg width="60" height="60" viewBox="0 0 60 60" fill="none" xmlns="http://www.w3.org/2000/svg">
<mask id="mask0_0_1" style="mask-type:alpha" maskUnits="userSpaceOnUse" x="0" y="0" width="60" height="60">
<circle cx="30" cy="30" r="30" fill="#A6A6A6"/>
</mask>
<g mask="url(#mask0_0_1)">
<rect x="-22.7273" width="104.545" height="69.0909" fill="#A6A6A6"/>
</g>
<g filter="url(#filter0_d_0_1)">
<path d="M37.9219 24.9688C37.9219 25.9792 37.6927 26.8854 37.2344 27.6875C36.7865 28.4896 35.9427 29.3333 34.7031 30.2188L33.5156 31.0781C32.1406 32.0573 31.4219 33.1458 31.3594 34.3438H27.1875C27.2292 33.6354 27.375 32.9792 27.625 32.375C27.875 31.7708 28.2344 31.2031 28.7031 30.6719C29.1823 30.1406 29.7656 29.6354 30.4531 29.1562C31.2031 28.6354 31.7969 28.1667 32.2344 27.75C32.6823 27.3229 33.0052 26.9062 33.2031 26.5C33.401 26.0833 33.5 25.6354 33.5 25.1562C33.5 24.2396 33.1979 23.5156 32.5938 22.9844C32 22.4531 31.151 22.1875 30.0469 22.1875C28.9948 22.1875 28.1094 22.4948 27.3906 23.1094C26.6823 23.724 26.2656 24.5365 26.1406 25.5469L21.6875 25.3594C21.9688 23.2448 22.8385 21.599 24.2969 20.4219C25.7552 19.2448 27.651 18.6562 29.9844 18.6562C32.4531 18.6562 34.3906 19.2188 35.7969 20.3438C37.2135 21.4583 37.9219 23 37.9219 24.9688ZM31.5781 36.7812V41H27.0625V36.7812H31.5781Z" fill="white"/>
</g>
<defs>
<filter id="filter0_d_0_1" x="17.6875" y="18.6562" width="24.2344" height="30.3438" filterUnits="userSpaceOnUse" color-interpolation-filters="sRGB">
<feFlood flood-opacity="0" result="BackgroundImageFix"/>
<feColorMatrix in="SourceAlpha" type="matrix" values="0 0 0 0 0 0 0 0 0 0 0 0 0 0 0 0 0 0 127 0" result="hardAlpha"/>
<feOffset dy="4"/>
<feGaussianBlur stdDeviation="2"/>
<feComposite in2="hardAlpha" operator="out"/>
<feColorMatrix type="matrix" values="0 0 0 0 0 0 0 0 0 0 0 0 0 0 0 0 0 0 0.5 0"/>
<feBlend mode="normal" in2="BackgroundImageFix" result="effect1_dropShadow_0_1"/>
<feBlend mode="normal" in="SourceGraphic" in2="effect1_dropShadow_0_1" result="shape"/>
</filter>
</defs>
</svg>
