<svg xmlns="http://www.w3.org/2000/svg" xmlns:xlink="http://www.w3.org/1999/xlink" width="500" zoomAndPan="magnify" viewBox="0 0 375 374.999991" height="500" preserveAspectRatio="xMidYMid meet" version="1.0"><defs><clipPath id="2cc585d740"><path d="M 78 161 L 297 161 L 297 308.273438 L 78 308.273438 Z M 78 161 " clip-rule="nonzero"/></clipPath><clipPath id="8ad9a07ca3"><path d="M 66.773438 66.773438 L 308.273438 66.773438 L 308.273438 158 L 66.773438 158 Z M 66.773438 66.773438 " clip-rule="nonzero"/></clipPath></defs><path fill="#ffffff" d="M 375 187.5 C 375 190.570312 374.925781 193.636719 374.773438 196.699219 C 374.625 199.765625 374.398438 202.824219 374.097656 205.878906 C 373.796875 208.933594 373.421875 211.976562 372.96875 215.011719 C 372.519531 218.046875 371.996094 221.070312 371.398438 224.078125 C 370.796875 227.089844 370.125 230.082031 369.378906 233.058594 C 368.636719 236.035156 367.816406 238.992188 366.925781 241.929688 C 366.035156 244.863281 365.074219 247.777344 364.039062 250.667969 C 363.003906 253.554688 361.902344 256.417969 360.726562 259.253906 C 359.554688 262.089844 358.308594 264.890625 356.996094 267.667969 C 355.6875 270.441406 354.304688 273.179688 352.859375 275.886719 C 351.414062 278.59375 349.902344 281.261719 348.324219 283.894531 C 346.746094 286.527344 345.105469 289.117188 343.402344 291.667969 C 341.695312 294.222656 339.929688 296.730469 338.101562 299.195312 C 336.273438 301.660156 334.386719 304.078125 332.4375 306.449219 C 330.492188 308.820312 328.488281 311.144531 326.429688 313.417969 C 324.367188 315.691406 322.253906 317.914062 320.082031 320.082031 C 317.914062 322.253906 315.691406 324.367188 313.417969 326.429688 C 311.144531 328.488281 308.820312 330.492188 306.449219 332.4375 C 304.078125 334.386719 301.660156 336.273438 299.195312 338.101562 C 296.730469 339.929688 294.222656 341.695312 291.667969 343.402344 C 289.117188 345.105469 286.527344 346.746094 283.894531 348.324219 C 281.261719 349.902344 278.59375 351.414062 275.886719 352.859375 C 273.179688 354.308594 270.441406 355.6875 267.667969 356.996094 C 264.890625 358.308594 262.089844 359.554688 259.253906 360.726562 C 256.417969 361.902344 253.554688 363.003906 250.667969 364.039062 C 247.777344 365.074219 244.863281 366.035156 241.929688 366.925781 C 238.992188 367.816406 236.035156 368.636719 233.058594 369.378906 C 230.082031 370.125 227.089844 370.796875 224.078125 371.398438 C 221.070312 371.996094 218.046875 372.519531 215.011719 372.96875 C 211.976562 373.421875 208.933594 373.796875 205.878906 374.097656 C 202.824219 374.398438 199.765625 374.625 196.699219 374.773438 C 193.636719 374.925781 190.570312 375 187.5 375 C 184.429688 375 181.363281 374.925781 178.300781 374.773438 C 175.234375 374.625 172.175781 374.398438 169.121094 374.097656 C 166.066406 373.796875 163.023438 373.421875 159.988281 372.96875 C 156.953125 372.519531 153.929688 371.996094 150.921875 371.398438 C 147.910156 370.796875 144.917969 370.125 141.941406 369.378906 C 138.964844 368.636719 136.007812 367.816406 133.070312 366.925781 C 130.136719 366.035156 127.222656 365.074219 124.332031 364.039062 C 121.445312 363.003906 118.582031 361.902344 115.746094 360.726562 C 112.910156 359.554688 110.105469 358.308594 107.332031 356.996094 C 104.558594 355.6875 101.820312 354.308594 99.113281 352.859375 C 96.40625 351.414062 93.738281 349.902344 91.105469 348.324219 C 88.472656 346.746094 85.882812 345.105469 83.332031 343.402344 C 80.777344 341.695312 78.269531 339.929688 75.804688 338.101562 C 73.339844 336.273438 70.921875 334.386719 68.550781 332.4375 C 66.179688 330.492188 63.855469 328.488281 61.582031 326.429688 C 59.308594 324.367188 57.085938 322.253906 54.917969 320.082031 C 52.746094 317.914062 50.632812 315.691406 48.570312 313.417969 C 46.511719 311.144531 44.507812 308.820312 42.558594 306.449219 C 40.613281 304.078125 38.726562 301.660156 36.898438 299.195312 C 35.070312 296.730469 33.304688 294.222656 31.597656 291.667969 C 29.894531 289.117188 28.253906 286.527344 26.675781 283.894531 C 25.097656 281.261719 23.585938 278.59375 22.140625 275.886719 C 20.691406 273.179688 19.3125 270.441406 18.003906 267.667969 C 16.691406 264.890625 15.445312 262.089844 14.273438 259.253906 C 13.097656 256.417969 11.996094 253.554688 10.960938 250.667969 C 9.925781 247.777344 8.964844 244.863281 8.074219 241.929688 C 7.183594 238.992188 6.363281 236.035156 5.617188 233.058594 C 4.875 230.082031 4.203125 227.089844 3.601562 224.078125 C 3.003906 221.070312 2.480469 218.046875 2.03125 215.011719 C 1.578125 211.976562 1.203125 208.933594 0.902344 205.878906 C 0.601562 202.824219 0.375 199.765625 0.226562 196.699219 C 0.0742188 193.636719 0 190.570312 0 187.5 C 0 184.429688 0.0742188 181.363281 0.226562 178.300781 C 0.375 175.234375 0.601562 172.175781 0.902344 169.121094 C 1.203125 166.066406 1.578125 163.023438 2.03125 159.988281 C 2.480469 156.953125 3.003906 153.929688 3.601562 150.921875 C 4.203125 147.910156 4.875 144.917969 5.617188 141.941406 C 6.363281 138.964844 7.183594 136.007812 8.074219 133.070312 C 8.964844 130.136719 9.925781 127.222656 10.960938 124.332031 C 11.996094 121.445312 13.097656 118.582031 14.273438 115.746094 C 15.445312 112.910156 16.691406 110.105469 18.003906 107.332031 C 19.3125 104.558594 20.691406 101.820312 22.140625 99.113281 C 23.585938 96.40625 25.097656 93.738281 26.675781 91.105469 C 28.253906 88.472656 29.894531 85.882812 31.597656 83.332031 C 33.304688 80.777344 35.070312 78.269531 36.898438 75.804688 C 38.726562 73.339844 40.613281 70.921875 42.558594 68.550781 C 44.507812 66.179688 46.511719 63.855469 48.570312 61.582031 C 50.632812 59.308594 52.746094 57.085938 54.917969 54.917969 C 57.085938 52.746094 59.308594 50.632812 61.582031 48.570312 C 63.855469 46.511719 66.179688 44.507812 68.550781 42.558594 C 70.921875 40.613281 73.339844 38.726562 75.804688 36.898438 C 78.269531 35.070312 80.777344 33.304688 83.332031 31.597656 C 85.882812 29.894531 88.472656 28.253906 91.105469 26.675781 C 93.738281 25.097656 96.40625 23.585938 99.113281 22.140625 C 101.820312 20.691406 104.558594 19.3125 107.332031 18.003906 C 110.105469 16.691406 112.910156 15.445312 115.746094 14.273438 C 118.582031 13.097656 121.445312 11.996094 124.332031 10.960938 C 127.222656 9.925781 130.136719 8.964844 133.070312 8.074219 C 136.007812 7.183594 138.964844 6.363281 141.941406 5.617188 C 144.917969 4.875 147.910156 4.203125 150.921875 3.601562 C 153.929688 3.003906 156.953125 2.480469 159.988281 2.03125 C 163.023438 1.578125 166.066406 1.203125 169.121094 0.902344 C 172.175781 0.601562 175.234375 0.375 178.300781 0.226562 C 181.363281 0.0742188 184.429688 0 187.5 0 C 190.570312 0 193.636719 0.0742188 196.699219 0.226562 C 199.765625 0.375 202.824219 0.601562 205.878906 0.902344 C 208.933594 1.203125 211.976562 1.578125 215.011719 2.03125 C 218.046875 2.480469 221.070312 3.003906 224.078125 3.601562 C 227.089844 4.203125 230.082031 4.875 233.058594 5.617188 C 236.035156 6.363281 238.992188 7.183594 241.929688 8.074219 C 244.863281 8.964844 247.777344 9.925781 250.667969 10.960938 C 253.554688 11.996094 256.417969 13.097656 259.253906 14.273438 C 262.089844 15.445312 264.890625 16.691406 267.667969 18.003906 C 270.441406 19.3125 273.179688 20.691406 275.886719 22.140625 C 278.59375 23.585938 281.261719 25.097656 283.894531 26.675781 C 286.527344 28.253906 289.117188 29.894531 291.667969 31.597656 C 294.222656 33.304688 296.730469 35.070312 299.195312 36.898438 C 301.660156 38.726562 304.078125 40.613281 306.449219 42.558594 C 308.820312 44.507812 311.144531 46.511719 313.417969 48.570312 C 315.691406 50.632812 317.914062 52.746094 320.082031 54.917969 C 322.253906 57.085938 324.367188 59.308594 326.429688 61.582031 C 328.488281 63.855469 330.492188 66.179688 332.4375 68.550781 C 334.386719 70.921875 336.273438 73.339844 338.101562 75.804688 C 339.929688 78.269531 341.695312 80.777344 343.402344 83.332031 C 345.105469 85.882812 346.746094 88.472656 348.324219 91.105469 C 349.902344 93.738281 351.414062 96.40625 352.859375 99.113281 C 354.304688 101.820312 355.6875 104.558594 356.996094 107.332031 C 358.308594 110.105469 359.554688 112.910156 360.726562 115.746094 C 361.902344 118.582031 363.003906 121.445312 364.039062 124.332031 C 365.074219 127.222656 366.035156 130.136719 366.925781 133.070312 C 367.816406 136.007812 368.636719 138.964844 369.378906 141.941406 C 370.125 144.917969 370.796875 147.910156 371.398438 150.921875 C 371.996094 153.929688 372.519531 156.953125 372.96875 159.988281 C 373.421875 163.023438 373.796875 166.066406 374.097656 169.121094 C 374.398438 172.175781 374.625 175.234375 374.773438 178.300781 C 374.925781 181.363281 375 184.429688 375 187.5 Z M 375 187.5 " fill-opacity="1" fill-rule="nonzero"/><g clip-path="url(#2cc585d740)"><path fill="#000000" d="M 289.3125 244.125 L 281.765625 244.125 L 281.765625 164.882812 C 279.125 164.882812 276.671875 164.503906 274.21875 163.941406 L 274.21875 244.125 L 262.898438 244.125 L 262.898438 229.03125 C 262.898438 226.957031 261.199219 225.257812 259.125 225.257812 L 249.691406 225.257812 L 249.691406 217.710938 L 257.238281 217.710938 C 259.3125 217.710938 261.011719 216.011719 261.011719 213.9375 L 261.011719 202.617188 C 261.011719 200.542969 259.3125 198.84375 257.238281 198.84375 L 230.824219 198.84375 C 228.75 198.84375 227.050781 200.542969 227.050781 202.617188 L 227.050781 213.9375 C 227.050781 216.011719 228.75 217.710938 230.824219 217.710938 L 242.144531 217.710938 L 242.144531 225.257812 L 213.84375 225.257812 C 211.769531 225.257812 210.070312 226.957031 210.070312 229.03125 L 210.070312 244.125 L 176.109375 244.125 L 176.109375 229.03125 C 176.109375 216.578125 165.921875 206.390625 153.46875 206.390625 L 134.601562 206.390625 C 122.148438 206.390625 111.960938 216.578125 111.960938 229.03125 L 111.960938 244.125 L 100.640625 244.125 L 100.640625 163.941406 C 98.1875 164.503906 95.734375 164.882812 93.09375 164.882812 L 93.09375 244.125 L 85.546875 244.125 L 85.546875 163.941406 C 82.90625 163.375 80.453125 162.429688 78 161.296875 L 78 304.5 C 78 306.574219 79.699219 308.273438 81.773438 308.273438 L 293.085938 308.273438 C 295.160156 308.273438 296.859375 306.574219 296.859375 304.5 L 296.859375 161.296875 C 294.40625 162.429688 291.953125 163.375 289.3125 163.941406 Z M 234.597656 210.164062 L 234.597656 206.390625 L 253.464844 206.390625 L 253.464844 210.164062 Z M 217.617188 232.804688 L 255.351562 232.804688 L 255.351562 244.125 L 217.617188 244.125 Z M 119.507812 229.03125 C 119.507812 220.730469 126.300781 213.9375 134.601562 213.9375 L 153.46875 213.9375 C 161.769531 213.9375 168.5625 220.730469 168.5625 229.03125 L 168.5625 244.125 L 161.015625 244.125 L 161.015625 230.917969 C 161.015625 228.84375 159.316406 227.144531 157.242188 227.144531 C 155.167969 227.144531 153.46875 228.84375 153.46875 230.917969 L 153.46875 244.125 L 134.601562 244.125 L 134.601562 230.917969 C 134.601562 228.84375 132.902344 227.144531 130.828125 227.144531 C 128.753906 227.144531 127.054688 228.84375 127.054688 230.917969 L 127.054688 244.125 L 119.507812 244.125 Z M 289.3125 300.726562 L 85.546875 300.726562 L 85.546875 251.671875 L 289.3125 251.671875 Z M 289.3125 300.726562 " fill-opacity="1" fill-rule="nonzero"/></g><g clip-path="url(#8ad9a07ca3)"><path fill="#000000" d="M 308.179688 130.734375 C 308.179688 130.542969 308.179688 130.542969 308.179688 130.355469 C 308.179688 130.167969 308.179688 130.167969 308.179688 129.980469 C 308.179688 129.789062 308.179688 129.789062 307.992188 129.601562 C 307.992188 129.414062 307.992188 129.414062 307.800781 129.222656 C 307.800781 129.035156 307.613281 129.035156 307.613281 128.847656 C 307.613281 128.65625 307.425781 128.65625 307.425781 128.46875 C 307.425781 128.46875 307.234375 128.28125 307.234375 128.28125 C 307.234375 128.09375 307.046875 128.09375 306.859375 127.902344 C 306.859375 127.902344 306.859375 127.902344 306.671875 127.714844 L 262.898438 91.488281 L 262.898438 78.847656 C 262.898438 72.246094 257.425781 66.773438 250.824219 66.773438 L 124.035156 66.773438 C 117.433594 66.773438 111.960938 72.246094 111.960938 78.847656 L 111.960938 89.980469 C 111.773438 90.167969 111.582031 90.167969 111.394531 90.359375 L 68 128.09375 C 67.8125 128.09375 67.8125 128.28125 67.8125 128.46875 C 67.8125 128.46875 67.621094 128.65625 67.621094 128.65625 C 67.621094 128.847656 67.433594 128.847656 67.433594 129.035156 C 67.433594 129.222656 67.246094 129.222656 67.246094 129.414062 C 67.246094 129.601562 67.246094 129.601562 67.058594 129.789062 C 67.058594 129.980469 67.058594 129.980469 66.867188 130.167969 C 66.867188 130.355469 66.867188 130.355469 66.867188 130.542969 C 66.867188 130.734375 66.867188 130.734375 66.867188 130.921875 C 66.867188 130.921875 66.867188 130.921875 66.867188 131.109375 C 66.867188 145.636719 78.753906 157.523438 93.28125 157.523438 C 103.660156 157.523438 112.527344 151.488281 116.867188 142.996094 C 121.207031 151.675781 130.074219 157.523438 140.449219 157.523438 C 150.828125 157.523438 159.695312 151.488281 164.035156 142.996094 C 168.375 151.675781 177.242188 157.523438 187.617188 157.523438 C 197.996094 157.523438 206.863281 151.488281 211.203125 142.996094 C 215.542969 151.675781 224.410156 157.523438 234.785156 157.523438 C 245.164062 157.523438 254.03125 151.488281 258.371094 142.996094 C 262.710938 151.675781 271.578125 157.523438 281.953125 157.523438 C 296.292969 157.335938 308.179688 145.449219 308.179688 130.734375 C 308.179688 130.921875 308.179688 130.734375 308.179688 130.734375 Z M 119.507812 78.847656 C 119.507812 76.394531 121.582031 74.320312 124.035156 74.320312 L 250.824219 74.320312 C 253.277344 74.320312 255.351562 76.394531 255.351562 78.847656 L 255.351562 89.414062 L 119.507812 89.414062 Z M 281.765625 149.789062 C 271.386719 149.789062 262.898438 141.300781 262.898438 130.921875 C 262.898438 128.847656 261.199219 127.148438 259.125 127.148438 C 258.746094 127.148438 258.558594 127.148438 258.179688 127.335938 C 257.804688 127.335938 257.617188 127.148438 257.238281 127.148438 C 255.164062 127.148438 253.464844 128.847656 253.464844 130.921875 C 253.464844 141.300781 244.972656 149.789062 234.597656 149.789062 C 224.21875 149.789062 215.730469 141.300781 215.730469 130.921875 C 215.730469 128.847656 214.03125 127.148438 211.957031 127.148438 C 211.578125 127.148438 211.390625 127.148438 211.011719 127.335938 C 210.636719 127.148438 210.449219 127.148438 210.070312 127.148438 C 207.996094 127.148438 206.296875 128.847656 206.296875 130.921875 C 206.296875 141.300781 197.804688 149.789062 187.429688 149.789062 C 177.050781 149.789062 168.5625 141.300781 168.5625 130.921875 C 168.5625 128.847656 166.863281 127.148438 164.789062 127.148438 C 164.410156 127.148438 164.222656 127.148438 163.84375 127.335938 C 163.46875 127.148438 163.28125 127.148438 162.902344 127.148438 C 160.828125 127.148438 159.128906 128.847656 159.128906 130.921875 C 159.128906 141.300781 150.636719 149.789062 140.261719 149.789062 C 129.882812 149.789062 121.394531 141.300781 121.394531 130.921875 C 121.394531 128.847656 119.695312 127.148438 117.621094 127.148438 C 117.242188 127.148438 117.054688 127.148438 116.675781 127.335938 C 116.300781 127.148438 116.113281 127.148438 115.734375 127.148438 C 113.660156 127.148438 111.960938 128.847656 111.960938 130.921875 C 111.960938 141.300781 103.46875 149.789062 93.09375 149.789062 C 83.28125 149.789062 75.167969 142.242188 74.226562 132.621094 L 115.167969 96.960938 L 257.804688 96.960938 L 300.632812 132.621094 C 299.6875 142.242188 291.578125 149.789062 281.765625 149.789062 Z M 281.765625 149.789062 " fill-opacity="1" fill-rule="nonzero"/></g><path fill="#000000" d="M 162.902344 183.75 C 162.902344 173.375 154.410156 164.882812 144.035156 164.882812 C 133.65625 164.882812 125.167969 173.375 125.167969 183.75 C 125.167969 194.128906 133.65625 202.617188 144.035156 202.617188 C 154.410156 202.617188 162.902344 194.128906 162.902344 183.75 Z M 132.714844 183.75 C 132.714844 177.523438 137.808594 172.429688 144.035156 172.429688 C 150.261719 172.429688 155.355469 177.523438 155.355469 183.75 C 155.355469 189.976562 150.261719 195.070312 144.035156 195.070312 C 137.808594 195.070312 132.714844 189.976562 132.714844 183.75 Z M 132.714844 183.75 " fill-opacity="1" fill-rule="nonzero"/><path fill="#000000" d="M 172.902344 81.867188 C 172.523438 81.488281 172.335938 81.300781 171.769531 81.113281 C 171.390625 80.925781 170.828125 80.734375 170.449219 80.546875 L 169.503906 79.980469 C 169.128906 79.980469 168.75 79.792969 168.5625 79.601562 C 168.375 79.414062 168.183594 79.226562 168.183594 78.847656 C 168.183594 78.660156 168.183594 78.472656 168.375 78.28125 C 168.5625 78.09375 168.5625 78.09375 168.75 77.90625 C 168.941406 77.90625 169.128906 77.714844 169.316406 77.714844 C 169.503906 77.714844 169.695312 77.714844 169.882812 77.714844 C 170.449219 77.714844 171.015625 77.714844 171.582031 77.90625 C 172.148438 78.09375 172.335938 78.28125 172.714844 78.28125 C 172.902344 77.90625 173.089844 77.339844 173.277344 76.960938 C 173.46875 76.585938 173.46875 76.019531 173.46875 75.640625 C 172.714844 75.453125 172.148438 75.265625 171.582031 75.074219 C 171.015625 74.886719 170.449219 74.886719 169.695312 74.886719 C 168.941406 74.886719 168.375 74.886719 167.808594 75.074219 C 167.242188 75.265625 166.675781 75.453125 166.296875 75.828125 C 165.921875 76.207031 165.542969 76.585938 165.355469 77.152344 C 165.167969 77.714844 164.976562 78.28125 164.976562 78.847656 C 164.976562 79.414062 164.976562 79.792969 165.167969 80.167969 C 165.355469 80.546875 165.542969 80.925781 165.730469 81.300781 C 165.921875 81.867188 166.296875 82.054688 166.675781 82.246094 C 167.054688 82.433594 167.429688 82.621094 167.808594 82.8125 L 168.941406 83.1875 C 169.128906 83.1875 169.316406 83.375 169.503906 83.375 C 169.695312 83.375 169.882812 83.566406 169.882812 83.566406 C 170.070312 83.753906 170.070312 83.753906 170.261719 83.941406 C 170.261719 84.132812 170.449219 84.320312 170.449219 84.507812 C 170.449219 85.074219 170.261719 85.261719 169.882812 85.453125 C 169.503906 85.640625 168.941406 85.828125 168.375 85.828125 C 167.617188 85.828125 166.488281 85.640625 165.355469 85.074219 C 165.167969 85.640625 164.976562 86.019531 164.976562 86.585938 C 164.789062 87.148438 164.789062 87.527344 164.789062 87.90625 C 165.542969 88.09375 166.109375 88.28125 166.675781 88.472656 C 167.242188 88.660156 167.996094 88.660156 168.75 88.660156 C 169.503906 88.660156 170.261719 88.472656 171.015625 88.28125 C 171.582031 88.09375 172.148438 87.714844 172.714844 87.339844 C 173.089844 86.960938 173.46875 86.585938 173.65625 86.019531 C 173.84375 85.453125 174.035156 84.886719 174.035156 84.320312 C 174.035156 83.753906 174.035156 83.1875 173.84375 82.8125 C 173.65625 82.433594 173.089844 82.054688 172.902344 81.867188 Z M 172.902344 81.867188 " fill-opacity="1" fill-rule="nonzero"/><path fill="#000000" d="M 183.84375 75.074219 C 183.65625 75.074219 183.46875 75.074219 183.089844 75.074219 C 182.902344 75.074219 182.523438 75.074219 182.148438 75.265625 L 182.148438 80.167969 L 178.75 80.167969 L 178.75 75.265625 C 178.375 75.265625 178.183594 75.265625 177.808594 75.074219 C 177.617188 75.074219 177.242188 75.074219 177.050781 75.074219 C 176.863281 75.074219 176.675781 75.074219 176.296875 75.074219 C 176.109375 75.074219 175.730469 75.074219 175.355469 75.265625 L 175.355469 88.660156 C 175.921875 88.847656 176.488281 88.847656 177.050781 88.847656 C 177.429688 88.847656 177.996094 88.847656 178.75 88.660156 L 178.75 83 L 182.148438 83 L 182.148438 88.472656 C 182.710938 88.660156 183.277344 88.660156 183.84375 88.660156 C 184.222656 88.660156 184.789062 88.660156 185.542969 88.472656 L 185.542969 75.265625 C 185.164062 75.265625 184.976562 75.265625 184.597656 75.074219 C 184.410156 75.074219 184.035156 75.074219 183.84375 75.074219 Z M 183.84375 75.074219 " fill-opacity="1" fill-rule="nonzero"/><path fill="#000000" d="M 197.804688 76.960938 C 197.242188 76.394531 196.675781 75.828125 195.917969 75.453125 C 195.164062 75.074219 194.222656 74.886719 193.277344 74.886719 C 192.335938 74.886719 191.390625 75.074219 190.636719 75.453125 C 189.882812 75.828125 189.316406 76.207031 188.75 76.960938 C 188.183594 77.527344 187.996094 78.28125 187.617188 79.226562 C 187.617188 79.980469 187.429688 80.925781 187.429688 81.867188 C 187.429688 82.8125 187.617188 83.753906 187.808594 84.699219 C 187.996094 85.453125 188.371094 86.207031 188.9375 86.960938 C 189.503906 87.527344 190.070312 88.09375 190.824219 88.472656 C 191.582031 88.847656 192.523438 89.035156 193.46875 89.035156 C 194.410156 89.035156 195.355469 88.847656 196.109375 88.472656 C 196.863281 88.09375 197.429688 87.714844 197.996094 86.960938 C 198.5625 86.207031 198.75 85.640625 199.128906 84.699219 C 199.316406 83.941406 199.503906 83 199.503906 81.867188 C 199.503906 80.925781 199.316406 79.980469 199.128906 79.039062 C 198.5625 78.28125 198.183594 77.527344 197.804688 76.960938 Z M 193.277344 86.019531 C 192.523438 86.019531 191.769531 85.640625 191.390625 85.074219 C 191.203125 84.320312 190.824219 83.375 190.824219 81.867188 C 190.824219 79.226562 191.582031 77.714844 193.277344 77.714844 C 194.789062 77.714844 195.730469 79.039062 195.730469 81.867188 C 195.730469 84.699219 194.976562 86.019531 193.277344 86.019531 Z M 193.277344 86.019531 " fill-opacity="1" fill-rule="nonzero"/><path fill="#000000" d="M 208.371094 75.828125 C 207.804688 75.453125 207.238281 75.265625 206.484375 75.074219 C 205.730469 74.886719 205.164062 74.886719 204.410156 74.886719 C 203.464844 74.886719 202.710938 74.886719 202.144531 75.074219 C 201.578125 75.074219 201.203125 75.265625 200.824219 75.265625 L 200.824219 88.660156 C 201.390625 88.847656 201.957031 88.847656 202.523438 88.847656 C 202.710938 88.847656 202.902344 88.847656 203.277344 88.847656 C 203.464844 88.847656 203.84375 88.847656 204.222656 88.660156 L 204.222656 84.132812 C 204.410156 84.132812 204.410156 84.132812 204.789062 84.132812 C 205.164062 84.132812 205.351562 84.132812 205.542969 84.132812 C 206.109375 84.132812 206.675781 84.132812 207.238281 83.941406 C 207.804688 83.753906 208.371094 83.566406 208.75 83.1875 C 209.125 82.8125 209.503906 82.433594 209.882812 81.867188 C 210.070312 81.300781 210.257812 80.546875 210.257812 79.601562 C 210.257812 78.660156 210.070312 77.714844 209.691406 77.152344 C 209.503906 76.585938 208.9375 76.207031 208.371094 75.828125 Z M 206.484375 81.113281 C 206.109375 81.488281 205.730469 81.488281 205.164062 81.488281 C 204.976562 81.488281 204.789062 81.488281 204.789062 81.488281 C 204.789062 81.488281 204.597656 81.488281 204.410156 81.488281 L 204.410156 77.714844 C 204.597656 77.714844 204.597656 77.714844 204.789062 77.714844 C 204.976562 77.714844 204.976562 77.714844 204.976562 77.714844 C 205.164062 77.714844 205.542969 77.714844 205.730469 77.714844 C 205.917969 77.714844 206.109375 77.90625 206.296875 78.09375 C 206.484375 78.28125 206.675781 78.472656 206.675781 78.660156 C 206.863281 78.847656 206.863281 79.226562 206.863281 79.601562 C 206.863281 80.359375 206.675781 80.734375 206.484375 81.113281 Z M 206.484375 81.113281 " fill-opacity="1" fill-rule="nonzero"/></svg>