<svg width="23" height="24" viewBox="0 0 23 24" fill="none" xmlns="http://www.w3.org/2000/svg">
<path d="M5.33369 15.2374C6.52394 16.3724 8.02594 17.1829 9.70206 17.5116L4.53594 22.6799L3.92494 20.2655C3.88681 20.1191 3.77431 20.0045 3.62581 19.9664L1.21569 19.3554L5.33369 15.2374ZM17.5053 15.2374L21.6233 19.3554L19.2089 19.9664C19.0626 20.0045 18.9479 20.1191 18.9119 20.2655L18.2987 22.6799L13.1306 17.5116C14.8087 17.1829 16.3129 16.3724 17.5053 15.2374ZM11.4184 4.97088L12.6087 7.38525C12.6702 7.50413 12.7847 7.58688 12.9184 7.606L15.5809 7.99213L13.6524 9.87388C13.5569 9.96725 13.5124 10.1051 13.5337 10.2389L13.9877 12.8888L11.6072 11.6391C11.4884 11.5755 11.3442 11.5755 11.2253 11.637L8.84494 12.8866L9.29894 10.2368C9.32231 10.103 9.27769 9.96725 9.18019 9.87175L7.25369 7.99638L9.91419 7.61013C10.0499 7.589 10.1646 7.50625 10.2261 7.38525L11.4184 4.97088ZM11.4206 3.628C11.4078 3.628 11.3951 3.628 11.3823 3.628C11.2402 3.64063 11.1129 3.72763 11.0493 3.85713L9.58531 6.82313L6.31169 7.30038C6.08681 7.33013 5.92769 7.54013 5.95956 7.765C5.97231 7.85413 6.01469 7.939 6.08044 8.00263L8.45031 10.3131L7.89231 13.574C7.85419 13.7989 8.00481 14.011 8.22756 14.0493C8.31669 14.0641 8.40794 14.0493 8.48844 14.0089L11.4163 12.4686L14.3483 14.0068C14.5478 14.1129 14.7981 14.0344 14.9042 13.8329C14.9467 13.7544 14.9614 13.661 14.9446 13.5719L14.3866 10.3131L16.7542 8.00263C16.9176 7.84563 16.9218 7.58475 16.7627 7.42138C16.6991 7.35563 16.6163 7.31313 16.5272 7.30038L13.2514 6.82525L11.7854 3.85713C11.7176 3.717 11.5754 3.628 11.4206 3.628ZM11.4184 0.82325C15.8504 0.82325 19.4338 4.40875 19.4338 8.84075C19.4338 13.2728 15.8504 16.8561 11.4184 16.8561C6.98644 16.8561 3.40094 13.2728 3.40094 8.84075C3.40094 4.40875 6.98644 0.82325 11.4184 0.82325ZM11.4184 0C6.54081 0 2.57769 3.96313 2.57769 8.84075C2.57769 11.062 3.40519 13.086 4.76294 14.6411L0.120937 19.2874C-0.0403125 19.4465 -0.0403125 19.7075 0.120937 19.8688C0.171813 19.9196 0.237563 19.9579 0.307688 19.977L3.18669 20.7068L3.91644 23.5836C3.96956 23.8043 4.19231 23.9401 4.41294 23.8849C4.48719 23.868 4.55506 23.8298 4.61019 23.7746L10.7289 17.6518C10.9559 17.6686 11.1851 17.6793 11.4184 17.6793C11.6497 17.6793 11.8788 17.6686 12.1058 17.6518L18.2266 23.7746C18.3878 23.9359 18.6488 23.9359 18.8101 23.7725C18.8609 23.7216 18.8992 23.6536 18.9162 23.5836L19.6459 20.7068L22.5271 19.977C22.7477 19.9196 22.8793 19.6948 22.8241 19.4741C22.8051 19.4041 22.7668 19.3384 22.7159 19.2874L18.0717 14.6433C19.4296 13.0881 20.2569 11.062 20.2569 8.84075C20.2569 3.96313 16.2959 0 11.4184 0Z" fill="#A6A6A6"/>
</svg>
