<svg width="24" height="24" viewBox="0 0 24 24" fill="none" xmlns="http://www.w3.org/2000/svg">
<g clip-path="url(#clip0_106_140)">
<path d="M12 0C11.8351 0 11.6885 0.105875 11.6341 0.260125L10.8976 2.38913C6.19663 2.92438 2.52375 6.89213 2.33163 11.6129H0.387125C0.172375 11.6129 0 11.7853 0 12C0 12.2148 0.172375 12.3871 0.387125 12.3871H2.33163C2.53125 17.4149 6.58513 21.4688 11.6129 21.6669V23.6129C11.6129 23.8276 11.7853 24 12 24C12.2148 24 12.3871 23.8276 12.3871 23.6129V21.6669C17.4149 21.4688 21.4688 17.4149 21.6669 12.3871H23.6129C23.8276 12.3871 24 12.2148 24 12C24 11.7853 23.8276 11.6129 23.6129 11.6129H21.6593C21.4718 6.84075 17.87 2.9305 13.1024 2.38913L12.3659 0.260125C12.3115 0.105875 12.1649 0 12 0ZM12 1.5695L14.7868 9.6215L12.1875 8.17738C12.13 8.14563 12.065 8.129 12 8.129C11.935 8.129 11.87 8.14563 11.8125 8.17738L9.21325 9.6215L12 1.5695ZM10.6119 3.21325L10.0221 4.91738C7.432 5.63863 5.44813 7.70113 4.83725 10.3246C4.78875 10.5333 4.91738 10.7419 5.126 10.7904C5.15475 10.7964 5.185 10.7994 5.21375 10.7994C5.39062 10.7994 5.54938 10.68 5.59025 10.5C6.09675 8.33463 7.64663 6.59725 9.70613 5.83363L8.15175 10.3246C8.09875 10.4758 8.14412 10.6451 8.26813 10.748C8.39062 10.8524 8.566 10.8675 8.70363 10.7904L12 8.95913L15.2964 10.7904C15.3554 10.8221 15.4189 10.8388 15.4839 10.8388C15.5731 10.8388 15.6608 10.8085 15.7319 10.748C15.8559 10.6451 15.9028 10.4774 15.8498 10.3246L13.3896 3.21475C17.5766 3.86638 20.7036 7.36238 20.8851 11.6129H17.8065C17.5918 11.6129 17.4194 11.7853 17.4194 12C17.4194 12.2148 17.5918 12.3871 17.8065 12.3871H20.8926C20.6945 16.9884 16.9884 20.6945 12.3871 20.8926V17.8065C12.3871 17.5918 12.2148 17.4194 12 17.4194C11.7853 17.4194 11.6129 17.5918 11.6129 17.8065V20.8926C7.01163 20.6945 3.3055 16.9884 3.10588 12.3871H6.1935C6.40825 12.3871 6.58063 12.2148 6.58063 12C6.58063 11.7853 6.40825 11.6129 6.1935 11.6129H3.11488C3.30238 7.40925 6.47938 3.86638 10.6119 3.21325ZM15.9496 5.92288C15.8513 5.9395 15.7606 5.994 15.6986 6.08013C15.5746 6.2555 15.6169 6.4975 15.7924 6.6215C17.1154 7.55438 18.0439 8.9335 18.4097 10.5C18.4506 10.68 18.6109 10.7994 18.7863 10.7994C18.815 10.7994 18.8453 10.7964 18.8755 10.7904C19.0826 10.7419 19.2128 10.5333 19.1628 10.3246C18.7545 8.57213 17.7173 7.03275 16.2384 5.98788C16.1508 5.92738 16.0464 5.90625 15.9496 5.92288ZM12 11.2258C11.5721 11.2258 11.2258 11.5721 11.2258 12C11.2258 12.4279 11.5721 12.7743 12 12.7743C12.4279 12.7743 12.7743 12.4279 12.7743 12C12.7743 11.5721 12.4279 11.2258 12 11.2258ZM18.75 13.0253C18.6034 13.0555 18.4794 13.1689 18.4476 13.3261C17.9289 15.8559 15.9678 17.8549 13.4486 18.4219C13.2399 18.4673 13.1084 18.6744 13.1553 18.8831C13.1961 19.063 13.3564 19.1855 13.5333 19.1855C13.5605 19.1855 13.5893 19.1825 13.618 19.1749C16.4335 18.5429 18.6275 16.3095 19.2051 13.4819C19.249 13.2731 19.1129 13.0675 18.9043 13.0253C18.8529 13.0146 18.7999 13.0146 18.75 13.0253ZM6.33413 14.132C6.28425 14.1336 6.23288 14.1441 6.1845 14.1654L5.47838 14.4799C5.28175 14.5675 5.194 14.7959 5.28175 14.9925C5.34525 15.1361 5.48738 15.2208 5.63563 15.2208C5.6885 15.2208 5.74138 15.2101 5.79288 15.1875L6.499 14.873C6.694 14.7853 6.78325 14.557 6.69563 14.3619C6.6305 14.2153 6.48538 14.129 6.33413 14.132ZM7.692 16.069C7.59225 16.0706 7.494 16.1099 7.41988 16.1855L6.8815 16.7435C6.73338 16.8961 6.73638 17.1411 6.89063 17.2909C6.96475 17.3634 7.063 17.3998 7.15975 17.3998C7.26113 17.3998 7.36238 17.3589 7.438 17.2803L7.97625 16.7238C8.1245 16.5711 8.12 16.3246 7.96575 16.1764C7.89013 16.1024 7.79038 16.0675 7.692 16.069ZM9.67438 17.3544C9.52313 17.3574 9.381 17.4496 9.32063 17.5978L9.03025 18.3145C8.95163 18.5141 9.04688 18.7394 9.245 18.818C9.29188 18.8378 9.34175 18.8468 9.39013 18.8468C9.54288 18.8468 9.688 18.756 9.7485 18.6049L10.0388 17.8866C10.119 17.6885 10.0238 17.4633 9.82413 17.3831C9.77575 17.3634 9.72425 17.3544 9.67438 17.3544Z" fill="#FFCC4D"/>
</g>
<defs>
<clipPath id="clip0_106_140">
<rect width="24" height="24" fill="white"/>
</clipPath>
</defs>
</svg>
