<svg width="24" height="24" viewBox="0 0 24 24" fill="none" xmlns="http://www.w3.org/2000/svg">
<g clip-path="url(#clip0_113_249)">
<path d="M13.1713 3.94037C12.5241 3.29274 11.4712 3.29274 10.8288 3.94037L3.6418 11.1307C3.32793 11.4449 3.15405 11.8605 3.15405 12.305V21.8006C3.15405 22.7139 3.8978 23.458 4.81068 23.458H8.67943C9.5923 23.458 10.3362 22.7139 10.3362 21.8006V17.379C10.3362 17.0745 10.5824 16.8281 10.8868 16.8281H13.0989C13.4032 16.8281 13.6494 17.0745 13.6494 17.379V21.8054C13.6494 22.7187 14.3933 23.4629 15.3062 23.4629H19.1749C20.0878 23.4629 20.8316 22.7187 20.8316 21.8054V12.305C20.8316 11.8605 20.6577 11.4449 20.3438 11.1307L13.1713 3.94037ZM19.7401 21.8006C19.7401 22.105 19.4937 22.3515 19.1894 22.3515H15.3207C15.0163 22.3515 14.7701 22.105 14.7701 21.8006V17.379C14.7701 16.4656 14.0262 15.7215 13.1133 15.7215H10.9013C9.98843 15.7215 9.24455 16.4656 9.24455 17.379V21.8054C9.24455 22.1099 8.9983 22.3562 8.69393 22.3562H4.81068C4.50643 22.3562 4.26005 22.1099 4.26005 21.8054V12.305C4.26005 12.1552 4.31805 12.02 4.4243 11.9136L11.6064 4.72312C11.8141 4.51537 12.1812 4.51537 12.3888 4.72312L19.5758 11.9136C19.6821 12.02 19.7401 12.1552 19.7401 12.305V21.8006Z" fill="#A6A6A6"/>
<path d="M13.1713 1.17625C12.5434 0.548 11.4518 0.548 10.8288 1.17625L7.57813 4.42838V3.82913C7.57813 2.91588 6.83438 2.17175 5.9215 2.17175H4.81063C3.89775 2.17175 3.154 2.91588 3.154 3.82913V8.85475L0 12.0102L0.7825 12.7931L11.6064 1.95913C11.814 1.75125 12.1811 1.75125 12.3888 1.95913L23.2175 12.7931L24 12.0102L13.1713 1.17625ZM4.26 3.82913C4.26 3.52475 4.50638 3.27825 4.81063 3.27825H5.91663C6.221 3.27825 6.46725 3.52475 6.46725 3.82913V5.535L4.25513 7.74813V3.82913H4.26Z" fill="#A6A6A6"/>
</g>
<defs>
<clipPath id="clip0_113_249">
<rect width="24" height="24" fill="white"/>
</clipPath>
</defs>
</svg>
