<svg width="24" height="24" viewBox="0 0 24 24" fill="none" xmlns="http://www.w3.org/2000/svg">
<g clip-path="url(#clip0_32_95)">
<path d="M13.1713 3.94043C12.5241 3.29281 11.4712 3.29281 10.8288 3.94043L3.6418 11.1308C3.32793 11.4449 3.15405 11.8606 3.15405 12.3051V21.8007C3.15405 22.7139 3.8978 23.4581 4.81068 23.4581H8.67943C9.5923 23.4581 10.3362 22.7139 10.3362 21.8007V17.3791C10.3362 17.0746 10.5824 16.8282 10.8868 16.8282H13.0989C13.4032 16.8282 13.6494 17.0746 13.6494 17.3791V21.8054C13.6494 22.7188 14.3933 23.4629 15.3062 23.4629H19.1749C20.0878 23.4629 20.8316 22.7188 20.8316 21.8054V12.3051C20.8316 11.8606 20.6577 11.4449 20.3438 11.1308L13.1713 3.94043ZM19.7401 21.8007C19.7401 22.1051 19.4937 22.3516 19.1894 22.3516H15.3207C15.0163 22.3516 14.7701 22.1051 14.7701 21.8007V17.3791C14.7701 16.4657 14.0262 15.7216 13.1133 15.7216H10.9013C9.98843 15.7216 9.24455 16.4657 9.24455 17.3791V21.8054C9.24455 22.1099 8.9983 22.3563 8.69393 22.3563H4.81068C4.50643 22.3563 4.26005 22.1099 4.26005 21.8054V12.3051C4.26005 12.1553 4.31805 12.0201 4.4243 11.9137L11.6064 4.72318C11.8141 4.51543 12.1812 4.51543 12.3888 4.72318L19.5758 11.9137C19.6821 12.0201 19.7401 12.1553 19.7401 12.3051V21.8007Z" fill="#FFCC4D"/>
<path d="M13.1713 1.17627C12.5434 0.548016 11.4518 0.548016 10.8288 1.17627L7.57813 4.42839V3.82914C7.57813 2.91589 6.83438 2.17177 5.9215 2.17177H4.81063C3.89775 2.17177 3.154 2.91589 3.154 3.82914V8.85477L0 12.0103L0.7825 12.7931L11.6064 1.95914C11.814 1.75127 12.1811 1.75127 12.3888 1.95914L23.2175 12.7931L24 12.0103L13.1713 1.17627ZM4.26 3.82914C4.26 3.52477 4.50638 3.27827 4.81063 3.27827H5.91663C6.221 3.27827 6.46725 3.52477 6.46725 3.82914V5.53502L4.25513 7.74814V3.82914H4.26Z" fill="#FFCC4D"/>
</g>
<defs>
<clipPath id="clip0_32_95">
<rect width="24" height="24" fill="white"/>
</clipPath>
</defs>
</svg>
